<svg width="42" height="41" viewBox="0 0 42 41" fill="none" xmlns="http://www.w3.org/2000/svg">
<path d="M22.8113 7.62349H19.352C18.7113 7.62349 18.1988 7.17505 18.1988 6.59849C18.1988 6.02192 18.7113 5.57349 19.352 5.57349H24.477C25.2457 5.57349 25.9504 4.93286 25.9504 4.10005C25.9504 3.26724 25.3098 2.62661 24.477 2.62661H23.0035V2.56255C23.0035 1.7938 22.3629 1.08911 21.5301 1.08911C20.7613 1.08911 20.0566 1.72974 20.0566 2.56255V2.62661H19.2879C17.0457 2.62661 15.252 4.42036 15.252 6.53442C15.252 8.64849 17.0457 10.4422 19.2879 10.4422H22.7473C23.3879 10.4422 23.9004 10.8907 23.9004 11.4672C23.9004 12.0438 23.3879 12.4922 22.7473 12.4922H16.9816C16.2129 12.4922 15.5082 13.1329 15.5082 13.9657C15.5082 14.7985 16.1488 15.4391 16.9816 15.4391H20.1207V15.5032C20.1207 16.2719 20.7613 16.9766 21.5941 16.9766C22.3629 16.9766 23.0676 16.336 23.0676 15.5032V15.4391C25.1816 15.375 26.9113 13.6454 26.9113 11.5313C26.8473 9.35317 25.0535 7.62349 22.8113 7.62349Z" fill="#8BC83F"/>
<path d="M9.16592 22.6141H6.53936C5.06592 22.6141 3.78467 23.8313 3.78467 25.3688V37.1563C3.78467 38.6298 5.00186 39.911 6.53936 39.911H9.16592C10.6394 39.911 11.9206 38.6938 11.9206 37.1563V25.3688C11.8565 23.8313 10.6394 22.6141 9.16592 22.6141ZM8.97373 37.0282H6.66748V25.4969H8.97373V37.0282Z" fill="#8BC83F"/>
<path d="M22.1706 18.9625H19.544C18.0706 18.9625 16.7893 20.1797 16.7893 21.6531V37.1563C16.7893 38.6297 18.0065 39.911 19.544 39.911H22.1706C23.644 39.911 24.9252 38.6938 24.9252 37.1563V21.7172C24.8612 20.1797 23.644 18.9625 22.1706 18.9625ZM21.9784 37.0281H19.6721V21.8453H21.9784V37.0281Z" fill="#8BC83F"/>
<path d="M35.1112 22.6141H32.4847C31.0112 22.6141 29.73 23.8313 29.73 25.3688V37.1563C29.73 38.6298 30.9472 39.911 32.4847 39.911H35.1112C36.5847 39.911 37.8659 38.6938 37.8659 37.1563V25.3688C37.8659 23.8313 36.6487 22.6141 35.1112 22.6141ZM34.9831 37.0282H32.6769V25.4969H34.9831V37.0282Z" fill="#8BC83F"/>
</svg>
