<svg width="38" height="41" viewBox="0 0 38 41" fill="none" xmlns="http://www.w3.org/2000/svg">
<path d="M34.8914 7.32143H24.338V2.92857C24.3367 2.1525 24.0584 1.40718 23.5637 0.858072C23.0703 0.310428 22.3989 0.00146488 21.6997 0H3.23135C2.53219 0.00146488 1.86074 0.308965 1.36605 0.858072C0.871362 1.40718 0.594337 2.1525 0.593018 2.92857V38.0714C0.594337 38.8475 0.872681 39.5928 1.36605 40.1405C1.86074 40.6896 2.53219 40.9985 3.23135 41H34.8914C35.5905 40.9985 36.2607 40.6896 36.7553 40.1405C37.25 39.5914 37.5284 38.8475 37.5297 38.0714V10.25C37.5284 9.47393 37.25 8.72861 36.7553 8.1795C36.262 7.63186 35.5905 7.32289 34.8914 7.32143ZM15.1039 38.0714H9.82719V30.75H15.1039V38.0714ZM21.6997 38.0714H17.7422V30.75C17.7409 29.9739 17.4625 29.2286 16.9678 28.681C16.4745 28.1319 15.803 27.8229 15.1039 27.8214H9.82719C9.12803 27.8229 8.45657 28.1319 7.96189 28.681C7.46852 29.2286 7.19017 29.9739 7.18885 30.75V38.0714H3.23135L3.23003 2.92857H21.6997V38.0714ZM34.8914 38.0714H24.338V10.25H34.8914V38.0714ZM30.9339 20.5C30.9339 20.7899 30.856 21.0725 30.7109 21.3141C30.5671 21.5543 30.36 21.7417 30.1199 21.853C29.8785 21.9643 29.6134 21.9921 29.3575 21.9365C29.1015 21.8794 28.8667 21.7402 28.682 21.5352C28.4974 21.3302 28.372 21.0696 28.3206 20.7855C28.2705 20.5015 28.2955 20.2071 28.3958 19.9392C28.496 19.6727 28.6649 19.4428 28.8812 19.2832C29.0989 19.1221 29.3535 19.0357 29.6147 19.0357C29.9643 19.0357 30.3007 19.1895 30.5473 19.4648C30.7954 19.7386 30.9339 20.112 30.9339 20.5ZM28.2955 14.6429C28.2955 14.3529 28.3734 14.0703 28.5185 13.8287C28.6623 13.5886 28.8694 13.4011 29.1095 13.2899C29.3509 13.1786 29.616 13.1508 29.8719 13.2064C30.1279 13.2635 30.3627 13.4026 30.5473 13.6076C30.732 13.8126 30.8574 14.0733 30.9088 14.3573C30.9589 14.6414 30.9339 14.9357 30.8336 15.2037C30.7334 15.4702 30.5645 15.7001 30.3482 15.8597C30.1305 16.0208 29.8759 16.1071 29.6147 16.1071C29.2651 16.1071 28.9287 15.9534 28.682 15.6781C28.434 15.4043 28.2955 15.0309 28.2955 14.6429ZM17.7422 20.5C17.7422 20.7899 17.6644 21.0725 17.5193 21.3141C17.3755 21.5543 17.1684 21.7417 16.9283 21.853C16.6869 21.9643 16.4217 21.9921 16.1658 21.9365C15.9099 21.8794 15.6751 21.7402 15.4904 21.5352C15.3057 21.3302 15.1804 21.0696 15.1289 20.7855C15.0788 20.5015 15.1039 20.2071 15.2041 19.9392C15.3044 19.6727 15.4732 19.4428 15.6896 19.2832C15.9072 19.1221 16.1618 19.0357 16.423 19.0357C16.7726 19.0357 17.109 19.1895 17.3557 19.4648C17.6037 19.7386 17.7422 20.112 17.7422 20.5ZM17.7422 14.6429C17.7422 14.9328 17.6644 15.2154 17.5193 15.457C17.3755 15.6971 17.1684 15.8846 16.9283 15.9959C16.6869 16.1071 16.4217 16.135 16.1658 16.0793C15.9099 16.0222 15.6751 15.8831 15.4904 15.6781C15.3057 15.4731 15.1804 15.2125 15.1289 14.9284C15.0788 14.6443 15.1039 14.35 15.2041 14.082C15.3044 13.8155 15.4732 13.5856 15.6896 13.426C15.9072 13.265 16.1618 13.1786 16.423 13.1786C16.7726 13.1786 17.109 13.3323 17.3557 13.6076C17.6037 13.8814 17.7422 14.2548 17.7422 14.6429ZM17.7422 8.78571C17.7422 9.07564 17.6644 9.35825 17.5193 9.59986C17.3755 9.84 17.1684 10.0274 16.9283 10.1387C16.6869 10.25 16.4217 10.2778 16.1658 10.2222C15.9099 10.1651 15.6751 10.026 15.4904 9.82096C15.3057 9.61596 15.1804 9.35532 15.1289 9.07125C15.0788 8.78718 15.1039 8.49286 15.2041 8.22489C15.3044 7.95839 15.4732 7.7285 15.6896 7.56889C15.9072 7.40782 16.1618 7.32143 16.423 7.32143C16.7726 7.32143 17.109 7.47518 17.3557 7.75046C17.6037 8.02429 17.7422 8.39768 17.7422 8.78571ZM9.82719 20.5C9.82719 20.7899 9.74936 21.0725 9.60425 21.3141C9.46046 21.5543 9.25335 21.7417 9.01326 21.853C8.77185 21.9643 8.5067 21.9921 8.25078 21.9365C7.99486 21.8794 7.76005 21.7402 7.57537 21.5352C7.39069 21.3302 7.26537 21.0696 7.21392 20.7855C7.16379 20.5015 7.18885 20.2071 7.28911 19.9392C7.38937 19.6727 7.55822 19.4428 7.77456 19.2832C7.99223 19.1221 8.24683 19.0357 8.50802 19.0357C8.8576 19.0357 9.19399 19.1895 9.44067 19.4648C9.68868 19.7386 9.82719 20.112 9.82719 20.5ZM9.82719 14.6429C9.82719 14.9328 9.74936 15.2154 9.60425 15.457C9.46046 15.6971 9.25335 15.8846 9.01326 15.9959C8.77185 16.1071 8.5067 16.135 8.25078 16.0793C7.99486 16.0222 7.76005 15.8831 7.57537 15.6781C7.39069 15.4731 7.26537 15.2125 7.21392 14.9284C7.16379 14.6443 7.18885 14.35 7.28911 14.082C7.38937 13.8155 7.55822 13.5856 7.77456 13.426C7.99223 13.265 8.24683 13.1786 8.50802 13.1786C8.8576 13.1786 9.19399 13.3323 9.44067 13.6076C9.68868 13.8814 9.82719 14.2548 9.82719 14.6429ZM9.82719 8.78571C9.82719 9.07564 9.74936 9.35825 9.60425 9.59986C9.46046 9.84 9.25335 10.0274 9.01326 10.1387C8.77185 10.25 8.5067 10.2778 8.25078 10.2222C7.99486 10.1651 7.76005 10.026 7.57537 9.82096C7.39069 9.61596 7.26537 9.35532 7.21392 9.07125C7.16379 8.78718 7.18885 8.49286 7.28911 8.22489C7.38937 7.95839 7.55822 7.7285 7.77456 7.56889C7.99223 7.40782 8.24683 7.32143 8.50802 7.32143C8.8576 7.32143 9.19399 7.47518 9.44067 7.75046C9.68868 8.02429 9.82719 8.39768 9.82719 8.78571Z" fill="#2790A3"/>
</svg>
