<svg width="43" height="43" viewBox="0 0 43 43" fill="none" xmlns="http://www.w3.org/2000/svg">
<mask id="path-1-inside-1_258_4238" fill="white">
<path d="M29.608 8.93881C29.608 9.04359 29.6066 9.14837 29.6052 9.25315L29.6038 9.37463V9.39285V9.41107L29.6108 9.81044V9.82411V9.83778L29.6504 10.5606L29.6533 10.6396L29.6745 10.717C29.9614 11.8468 30.5792 12.8277 31.5815 13.5293C32.5075 14.1762 33.7233 14.5573 35.2317 14.6454V16.1654C33.3246 16.0591 31.8219 15.5246 30.7036 14.7137L29.6009 13.9135V15.3424V19.9815V20.7407H30.3078H31.7215C31.9463 20.7407 32.1555 20.8561 32.2884 21.046L32.3548 21.1599L42.2395 40.8809C42.477 41.3531 42.1942 41.9226 41.7192 41.9924L41.5991 42H2.03367C1.53463 42 1.20099 41.4624 1.36923 40.9811L1.42153 40.8626L11.3076 21.1401C11.4235 20.9093 11.6129 20.7817 11.8208 20.7499L11.8745 20.7407H27.4804H28.1872V19.9815L28.1901 15.3439V13.915L27.0874 14.7137C25.9691 15.5246 24.4678 16.0591 22.5607 16.1654V14.6454C24.0083 14.5604 25.1845 14.2066 26.095 13.6067C27.1637 12.9037 27.8211 11.8923 28.118 10.717L28.1363 10.6471L28.142 10.5758L28.1632 10.2964V10.2842V10.2721L28.1816 9.82867V9.80741L28.1872 9.43689V9.42474L28.1901 7.76956V6.11133L27.0209 7.19404C25.9154 8.21752 24.4409 8.8887 22.5607 9.02385V7.50078C24.0083 7.37626 25.1987 6.86604 26.119 6.00656C27.1779 5.01648 27.8098 3.63007 28.1081 2.04474L28.1109 2.03107L28.1137 2.01741L28.142 1.82152L28.1448 1.80937V1.79874C28.1689 1.60589 28.1844 1.40544 28.1901 1.21715V1.18526V1.15489L28.1844 1.03493V1H29.6009V1.328H29.608C29.6151 1.48744 29.6292 1.64689 29.6476 1.79874V1.80937L29.6504 1.82152L29.6801 2.01741L29.6829 2.03107L29.6844 2.04474C29.9713 3.57541 30.5693 4.92081 31.566 5.9033C32.4976 6.822 33.7247 7.3717 35.2317 7.50078V9.02385C33.3501 8.8887 31.8742 8.21448 30.7687 7.191L29.6009 6.10678V7.76652V8.26459V8.93881H29.608ZM11.2228 27.5209L9.89246 27.161L3.77959 39.3623L3.21694 40.4815H4.40163H10.5159H11.2228V39.7222V27.5209ZM39.2509 40.48H40.4328L39.8715 39.3608L31.4996 22.6571L31.2988 22.2577H30.8775L14.2976 22.2593H13.1129L13.6727 23.3784L22.0461 40.0821L22.2468 40.4815H22.6695L39.2509 40.48ZM13.9653 27.1656L12.6365 27.5255V39.7222V40.4815H13.3433H19.459H20.6409L20.0796 39.3623L13.9653 27.1656ZM10.5159 4.03704C13.2486 4.03704 15.4639 6.41656 15.4639 9.35185C15.4639 12.2871 13.2486 14.6667 10.5159 14.6667C7.78321 14.6667 5.56793 12.2871 5.56793 9.35185C5.56793 6.41656 7.78321 4.03704 10.5159 4.03704ZM10.5159 5.55556C8.56358 5.55556 6.98164 7.25478 6.98164 9.35185C6.98164 11.4489 8.56358 13.1481 10.5159 13.1481C12.4682 13.1481 14.0502 11.4489 14.0502 9.35185C14.0502 7.25478 12.4682 5.55556 10.5159 5.55556Z"/>
</mask>
<path d="M29.608 8.93881C29.608 9.04359 29.6066 9.14837 29.6052 9.25315L29.6038 9.37463V9.39285V9.41107L29.6108 9.81044V9.82411V9.83778L29.6504 10.5606L29.6533 10.6396L29.6745 10.717C29.9614 11.8468 30.5792 12.8277 31.5815 13.5293C32.5075 14.1762 33.7233 14.5573 35.2317 14.6454V16.1654C33.3246 16.0591 31.8219 15.5246 30.7036 14.7137L29.6009 13.9135V15.3424V19.9815V20.7407H30.3078H31.7215C31.9463 20.7407 32.1555 20.8561 32.2884 21.046L32.3548 21.1599L42.2395 40.8809C42.477 41.3531 42.1942 41.9226 41.7192 41.9924L41.5991 42H2.03367C1.53463 42 1.20099 41.4624 1.36923 40.9811L1.42153 40.8626L11.3076 21.1401C11.4235 20.9093 11.6129 20.7817 11.8208 20.7499L11.8745 20.7407H27.4804H28.1872V19.9815L28.1901 15.3439V13.915L27.0874 14.7137C25.9691 15.5246 24.4678 16.0591 22.5607 16.1654V14.6454C24.0083 14.5604 25.1845 14.2066 26.095 13.6067C27.1637 12.9037 27.8211 11.8923 28.118 10.717L28.1363 10.6471L28.142 10.5758L28.1632 10.2964V10.2842V10.2721L28.1816 9.82867V9.80741L28.1872 9.43689V9.42474L28.1901 7.76956V6.11133L27.0209 7.19404C25.9154 8.21752 24.4409 8.8887 22.5607 9.02385V7.50078C24.0083 7.37626 25.1987 6.86604 26.119 6.00656C27.1779 5.01648 27.8098 3.63007 28.1081 2.04474L28.1109 2.03107L28.1137 2.01741L28.142 1.82152L28.1448 1.80937V1.79874C28.1689 1.60589 28.1844 1.40544 28.1901 1.21715V1.18526V1.15489L28.1844 1.03493V1H29.6009V1.328H29.608C29.6151 1.48744 29.6292 1.64689 29.6476 1.79874V1.80937L29.6504 1.82152L29.6801 2.01741L29.6829 2.03107L29.6844 2.04474C29.9713 3.57541 30.5693 4.92081 31.566 5.9033C32.4976 6.822 33.7247 7.3717 35.2317 7.50078V9.02385C33.3501 8.8887 31.8742 8.21448 30.7687 7.191L29.6009 6.10678V7.76652V8.26459V8.93881H29.608ZM11.2228 27.5209L9.89246 27.161L3.77959 39.3623L3.21694 40.4815H4.40163H10.5159H11.2228V39.7222V27.5209ZM39.2509 40.48H40.4328L39.8715 39.3608L31.4996 22.6571L31.2988 22.2577H30.8775L14.2976 22.2593H13.1129L13.6727 23.3784L22.0461 40.0821L22.2468 40.4815H22.6695L39.2509 40.48ZM13.9653 27.1656L12.6365 27.5255V39.7222V40.4815H13.3433H19.459H20.6409L20.0796 39.3623L13.9653 27.1656ZM10.5159 4.03704C13.2486 4.03704 15.4639 6.41656 15.4639 9.35185C15.4639 12.2871 13.2486 14.6667 10.5159 14.6667C7.78321 14.6667 5.56793 12.2871 5.56793 9.35185C5.56793 6.41656 7.78321 4.03704 10.5159 4.03704ZM10.5159 5.55556C8.56358 5.55556 6.98164 7.25478 6.98164 9.35185C6.98164 11.4489 8.56358 13.1481 10.5159 13.1481C12.4682 13.1481 14.0502 11.4489 14.0502 9.35185C14.0502 7.25478 12.4682 5.55556 10.5159 5.55556Z" fill="#215F83" stroke="#215F83" stroke-width="2" mask="url(#path-1-inside-1_258_4238)"/>
<path d="M29.608 8.93881C29.608 9.04359 29.6066 9.14837 29.6052 9.25315L29.6038 9.37463V9.39285V9.41107L29.6108 9.81044V9.82411V9.83778L29.6504 10.5606L29.6533 10.6396L29.6745 10.717C29.9614 11.8468 30.5792 12.8277 31.5815 13.5293C32.5075 14.1762 33.7233 14.5573 35.2317 14.6454V16.1654C33.3246 16.0591 31.8219 15.5246 30.7036 14.7137L29.6009 13.9135V15.3424V19.9815V20.7407H30.3078H31.7215C31.9463 20.7407 32.1555 20.8561 32.2884 21.046L32.3548 21.1599L42.2395 40.8809C42.477 41.3531 42.1942 41.9226 41.7192 41.9924L41.5991 42H2.03367C1.53463 42 1.20099 41.4624 1.36923 40.9811L1.42153 40.8626L11.3076 21.1401C11.4235 20.9093 11.6129 20.7817 11.8208 20.7499L11.8745 20.7407H27.4804H28.1872V19.9815L28.1901 15.3439V13.915L27.0874 14.7137C25.9691 15.5246 24.4678 16.0591 22.5607 16.1654V14.6454C24.0083 14.5604 25.1845 14.2066 26.095 13.6067C27.1637 12.9037 27.8211 11.8923 28.118 10.717L28.1363 10.6471L28.142 10.5758L28.1632 10.2964V10.2842V10.2721L28.1816 9.82867V9.80741L28.1872 9.43689V9.42474L28.1901 7.76956V6.11133L27.0209 7.19404C25.9154 8.21752 24.4409 8.8887 22.5607 9.02385V7.50078C24.0083 7.37626 25.1987 6.86604 26.119 6.00656C27.1779 5.01648 27.8098 3.63007 28.1081 2.04474L28.1109 2.03107L28.1137 2.01741L28.142 1.82152L28.1448 1.80937V1.79874C28.1689 1.60589 28.1844 1.40544 28.1901 1.21715V1.18526V1.15489L28.1844 1.03493V1H29.6009V1.328H29.608C29.6151 1.48744 29.6292 1.64689 29.6476 1.79874V1.80937L29.6504 1.82152L29.6801 2.01741L29.6829 2.03107L29.6844 2.04474C29.9713 3.57541 30.5693 4.92081 31.566 5.9033C32.4976 6.822 33.7247 7.3717 35.2317 7.50078V9.02385C33.3501 8.8887 31.8742 8.21448 30.7687 7.191L29.6009 6.10678V7.76652V8.26459V8.93881H29.608ZM11.2228 27.5209L9.89246 27.161L3.77959 39.3623L3.21694 40.4815H4.40163H10.5159H11.2228V39.7222V27.5209ZM39.2509 40.48H40.4328L39.8715 39.3608L31.4996 22.6571L31.2988 22.2577H30.8775L14.2976 22.2593H13.1129L13.6727 23.3784L22.0461 40.0821L22.2468 40.4815H22.6695L39.2509 40.48ZM13.9653 27.1656L12.6365 27.5255V39.7222V40.4815H13.3433H19.459H20.6409L20.0796 39.3623L13.9653 27.1656ZM10.5159 4.03704C13.2486 4.03704 15.4639 6.41656 15.4639 9.35185C15.4639 12.2871 13.2486 14.6667 10.5159 14.6667C7.78321 14.6667 5.56793 12.2871 5.56793 9.35185C5.56793 6.41656 7.78321 4.03704 10.5159 4.03704ZM10.5159 5.55556C8.56358 5.55556 6.98164 7.25478 6.98164 9.35185C6.98164 11.4489 8.56358 13.1481 10.5159 13.1481C12.4682 13.1481 14.0502 11.4489 14.0502 9.35185C14.0502 7.25478 12.4682 5.55556 10.5159 5.55556Z" fill="#215F83" stroke="#215F83"/>
</svg>
