<svg width="92" height="92" viewBox="0 0 92 92" fill="none" xmlns="http://www.w3.org/2000/svg">
<path d="M47.5 23.875C47.5 23.0466 46.8284 22.375 46 22.375C45.1716 22.375 44.5 23.0466 44.5 23.875H47.5ZM44.5 68.125C44.5 68.9534 45.1716 69.625 46 69.625C46.8284 69.625 47.5 68.9534 47.5 68.125H44.5ZM68.125 47.5C68.9534 47.5 69.625 46.8284 69.625 46C69.625 45.1716 68.9534 44.5 68.125 44.5V47.5ZM23.875 44.5C23.0466 44.5 22.375 45.1716 22.375 46C22.375 46.8284 23.0466 47.5 23.875 47.5V44.5ZM90.25 46H88.75C88.75 69.6102 69.6102 88.75 46 88.75V90.25V91.75C71.267 91.75 91.75 71.267 91.75 46H90.25ZM46 90.25V88.75C22.3898 88.75 3.25 69.6102 3.25 46H1.75H0.25C0.25 71.267 20.733 91.75 46 91.75V90.25ZM1.75 46H3.25C3.25 22.3898 22.3898 3.25 46 3.25V1.75V0.25C20.733 0.25 0.25 20.733 0.25 46H1.75ZM46 1.75V3.25C69.6102 3.25 88.75 22.3898 88.75 46H90.25H91.75C91.75 20.733 71.267 0.25 46 0.25V1.75ZM46 23.875H44.5L44.5 46H46H47.5L47.5 23.875H46ZM46 46H44.5V68.125H46H47.5V46H46ZM68.125 46V44.5H46V46V47.5H68.125V46ZM46 46V44.5H23.875V46V47.5H46V46Z" fill="#555E67"/>
</svg>
