<svg width="15" height="19" viewBox="0 0 15 19" fill="none" xmlns="http://www.w3.org/2000/svg">
<path d="M14.5 7.75C14.5 11.6158 7.5 18.25 7.5 18.25C7.5 18.25 0.5 11.6158 0.5 7.75C0.5 5.89348 1.2375 4.11301 2.55025 2.80025C3.86301 1.4875 5.64348 0.75 7.5 0.75C9.35652 0.75 11.137 1.4875 12.4497 2.80025C13.7625 4.11301 14.5 5.89348 14.5 7.75Z" fill="#FA712D"/>
<path d="M7.49995 8.44985C7.77843 8.44985 8.0455 8.33923 8.24241 8.14232C8.43933 7.9454 8.54995 7.67833 8.54995 7.39985C8.54995 7.12138 8.43933 6.8543 8.24241 6.65739C8.0455 6.46048 7.77843 6.34985 7.49995 6.34985C7.22147 6.34985 6.9544 6.46048 6.75749 6.65739C6.56058 6.8543 6.44995 7.12138 6.44995 7.39985C6.44995 7.67833 6.56058 7.9454 6.75749 8.14232C6.9544 8.33923 7.22147 8.44985 7.49995 8.44985Z" fill="white" stroke="white" stroke-width="1.25" stroke-linecap="round" stroke-linejoin="round"/>
</svg>
