<svg width="18" height="18" viewBox="0 0 18 18" fill="none" xmlns="http://www.w3.org/2000/svg">
<path d="M16.1437 5.0062L11.9812 4.04995C11.9812 3.96558 12.0093 3.90933 12.0093 3.82495C12.0093 2.4187 10.8843 1.2937 9.50615 1.2937C8.0999 1.2937 6.9749 2.4187 6.9749 3.82495C6.9749 4.1062 7.05928 4.47183 7.22803 4.8937L6.4124 5.06245L2.72803 4.02183C2.19365 3.8812 1.63115 3.96558 1.18115 4.30308C0.731152 4.64058 0.478027 5.14683 0.478027 5.70933V13.7531C0.478027 14.5406 1.0124 15.2437 1.77178 15.4406L6.21553 16.7062C6.21553 16.7062 6.21553 16.7062 6.24365 16.7062C6.2999 16.7062 6.35615 16.7343 6.4124 16.7343C6.46865 16.7343 6.49678 16.7343 6.55303 16.7343L11.6718 15.6656L15.3843 16.5375C15.5249 16.5656 15.6374 16.5937 15.778 16.5937C16.1718 16.5937 16.5655 16.4531 16.8749 16.2C17.2968 15.8625 17.5499 15.3562 17.5499 14.8218V6.72183C17.5218 5.9062 16.9593 5.20308 16.1437 5.0062ZM9.47803 2.55933C10.1812 2.55933 10.7155 3.12183 10.7155 3.82495C10.7155 4.13433 10.3218 5.06245 9.4499 6.41245C8.57803 5.06245 8.18428 4.16245 8.18428 3.82495C8.2124 3.12183 8.7749 2.55933 9.47803 2.55933ZM7.7624 6.04683C8.07178 6.60933 8.4374 7.17183 8.7749 7.64995C8.91553 7.87495 9.19678 8.01558 9.4499 8.01558C9.73115 8.01558 9.98428 7.87495 10.1249 7.64995C10.4062 7.22808 10.7155 6.77808 10.9968 6.29995V14.4562L7.03115 15.3V6.21558L7.7624 6.04683ZM1.77178 13.725V5.70933C1.77178 5.54058 1.85615 5.39995 1.96865 5.31558C2.08115 5.2312 2.2499 5.20308 2.39053 5.2312L5.76553 6.18745V15.2437L2.10928 14.2031C1.9124 14.1468 1.77178 13.95 1.77178 13.725ZM16.2562 14.7656C16.2562 14.9625 16.1437 15.1031 16.0593 15.1593C16.003 15.2156 15.8343 15.3 15.6374 15.2437L12.2624 14.4562V5.39995L15.8624 6.2437C16.0874 6.29995 16.2562 6.49683 16.2562 6.72183V14.7656Z" fill="#7D7F88"/>
<path d="M9.59043 4.35928C9.61855 4.35928 9.6748 4.33115 9.70293 4.33115C9.73105 4.33115 9.7873 4.30303 9.81543 4.2749C9.84355 4.24678 9.87168 4.21865 9.8998 4.19053C10.0123 4.07803 10.0967 3.90928 10.0967 3.74053C10.0967 3.57178 10.0404 3.40303 9.8998 3.29053C9.87168 3.2624 9.84355 3.23428 9.81543 3.20615C9.7873 3.17803 9.73105 3.1499 9.70293 3.1499C9.6748 3.12178 9.61855 3.12178 9.59043 3.12178C9.39355 3.09365 9.16855 3.1499 9.02793 3.29053C8.91543 3.40303 8.83105 3.57178 8.83105 3.74053C8.83105 3.90928 8.8873 4.07803 9.02793 4.19053C9.14043 4.30303 9.30918 4.3874 9.47793 4.3874C9.50605 4.35928 9.5623 4.35928 9.59043 4.35928Z" fill="#7D7F88"/>
</svg>
