<svg width="21" height="21" viewBox="0 0 21 21" fill="none" xmlns="http://www.w3.org/2000/svg">
<path d="M6.8748 16.9591C6.35304 17.1402 6.07684 17.7099 6.25789 18.2317C6.43895 18.7534 7.0087 19.0296 7.53046 18.8486L6.8748 16.9591ZM12.0518 18.2404L11.9574 17.2449L12.0518 18.2404ZM14.9613 17.5673L15.4143 18.4589L14.9613 17.5673ZM17.7414 14.9346L16.9522 14.3205V14.3205L17.7414 14.9346ZM15.84 13.2872L16.5612 13.98L15.84 13.2872ZM14.5596 14.6201L15.2808 15.3129L14.5596 14.6201ZM11.082 14.2115C10.5297 14.2115 10.082 14.6593 10.082 15.2115C10.082 15.7638 10.5297 16.2115 11.082 16.2115V14.2115ZM17.4458 13.1217L16.8757 13.9432L17.4458 13.1217ZM8.18668 12.6801L8.64839 13.5671H8.64839L8.18668 12.6801ZM11.6667 12.3487L11.9398 11.3867L11.6667 12.3487ZM13.0257 12.7345L12.7526 13.6965L13.0257 12.7345ZM13.4563 14.4225L12.7352 13.7297L12.7352 13.7297L13.4563 14.4225ZM11.9772 14.5188C11.5946 14.9171 11.6073 15.5501 12.0056 15.9327C12.4039 16.3153 13.037 16.3026 13.4196 15.9043L11.9772 14.5188ZM7.20263 17.9038L7.53046 18.8486C7.57157 18.8343 7.7244 18.8077 8.06812 18.8333C8.39099 18.8572 8.77245 18.9166 9.2234 18.9903C10.064 19.1277 11.1804 19.3275 12.1462 19.2359L12.0518 18.2404L11.9574 17.2449C11.3068 17.3066 10.4836 17.1698 9.54613 17.0165C9.10807 16.9449 8.64092 16.8703 8.2162 16.8388C7.81234 16.8088 7.31861 16.8051 6.8748 16.9591L7.20263 17.9038ZM12.0518 18.2404L12.1462 19.2359C12.7252 19.181 13.2561 19.1523 13.7386 19.0614C14.2736 18.9606 14.7708 18.7857 15.4143 18.4589L14.9613 17.5673L14.5084 16.6758C13.9948 16.9367 13.6784 17.0376 13.3684 17.096C13.006 17.1642 12.6606 17.1782 11.9574 17.2449L12.0518 18.2404ZM14.9613 17.5673L15.4143 18.4589C16.0557 18.133 16.6629 17.6145 17.1736 17.1037C17.6943 16.5829 18.1654 16.0181 18.5307 15.5486L17.7414 14.9346L16.9522 14.3205C16.6169 14.7514 16.2016 15.2472 15.7592 15.6897C15.3067 16.1423 14.8742 16.49 14.5084 16.6758L14.9613 17.5673ZM15.84 13.2872L15.1188 12.5945L13.8384 13.9274L14.5596 14.6201L15.2808 15.3129L16.5612 13.98L15.84 13.2872ZM13.1881 15.2115V14.2115H11.082V15.2115V16.2115H13.1881V15.2115ZM14.5596 14.6201L13.8384 13.9274C13.6588 14.1143 13.424 14.2115 13.1881 14.2115V15.2115V16.2115C13.981 16.2115 14.7329 15.8833 15.2808 15.3129L14.5596 14.6201ZM17.4458 13.1217L18.016 12.3002C17.1028 11.6664 15.8841 11.7978 15.1188 12.5945L15.84 13.2872L16.5612 13.98C16.6538 13.8835 16.7793 13.8764 16.8757 13.9432L17.4458 13.1217ZM17.7414 14.9346L18.5307 15.5486C19.3483 14.4977 19.0509 13.0184 18.016 12.3002L17.4458 13.1217L16.8757 13.9432C17.0203 14.0436 17.0267 14.2246 16.9522 14.3205L17.7414 14.9346ZM3.64656 11.8462V12.8462H6.23279V11.8462V10.8462H3.64656V11.8462ZM6.87935 12.5192H5.87935V18.5769H6.87935H7.87935V12.5192H6.87935ZM6.23279 19.25V18.25H3.64656V19.25V20.25H6.23279V19.25ZM3 18.5769H4V12.5192H3H2V18.5769H3ZM3.64656 19.25V18.25C3.87926 18.25 4 18.4346 4 18.5769H3H2C2 19.4627 2.69969 20.25 3.64656 20.25V19.25ZM6.87935 18.5769H5.87935C5.87935 18.4346 6.00009 18.25 6.23279 18.25V19.25V20.25C7.17966 20.25 7.87935 19.4627 7.87935 18.5769H6.87935ZM6.23279 11.8462V12.8462C6.00009 12.8462 5.87935 12.6615 5.87935 12.5192H6.87935H7.87935C7.87935 11.6335 7.17967 10.8462 6.23279 10.8462V11.8462ZM3.64656 11.8462V10.8462C2.69969 10.8462 2 11.6335 2 12.5192H3H4C4 12.6615 3.87926 12.8462 3.64656 12.8462V11.8462ZM7.20263 13.1923L7.66434 14.0793L8.64839 13.5671L8.18668 12.6801L7.72498 11.7931L6.74093 12.3053L7.20263 13.1923ZM10.2107 12.1827V13.1827H10.4759V12.1827V11.1827H10.2107V12.1827ZM11.6667 12.3487L11.3936 13.3107L12.7526 13.6965L13.0257 12.7345L13.2989 11.7726L11.9398 11.3867L11.6667 12.3487ZM13.4563 14.4225L12.7352 13.7297L11.9772 14.5188L12.6984 15.2115L13.4196 15.9043L14.1775 15.1153L13.4563 14.4225ZM13.0257 12.7345L12.7526 13.6965C12.7527 13.6965 12.7524 13.6965 12.7519 13.6963C12.7514 13.6961 12.7507 13.6958 12.7499 13.6955C12.7481 13.6947 12.7461 13.6937 12.744 13.6923C12.7396 13.6896 12.7365 13.6868 12.7348 13.6849C12.7321 13.682 12.736 13.6852 12.7389 13.6966C12.7418 13.708 12.7411 13.7175 12.74 13.7222C12.7396 13.724 12.7392 13.7247 12.739 13.7249C12.739 13.7249 12.7383 13.7265 12.7352 13.7297L13.4563 14.4225L14.1775 15.1153C15.2002 14.0506 14.7793 12.1929 13.2989 11.7726L13.0257 12.7345ZM10.4759 12.1827V13.1827C10.7855 13.1827 11.0941 13.2257 11.3936 13.3107L11.6667 12.3487L11.9398 11.3867C11.4632 11.2514 10.9708 11.1827 10.4759 11.1827V12.1827ZM8.18668 12.6801L8.64839 13.5671C9.13549 13.3136 9.67024 13.1827 10.2107 13.1827V12.1827V11.1827C9.34597 11.1827 8.49477 11.3924 7.72498 11.7931L8.18668 12.6801ZM15.2846 7.13462H14.2846C14.2846 8.10752 13.5369 8.82692 12.6984 8.82692V9.82692V10.8269C14.7165 10.8269 16.2846 9.13556 16.2846 7.13462H15.2846ZM12.6984 9.82692V8.82692C11.8598 8.82692 11.1121 8.10752 11.1121 7.13462H10.1121H9.11215C9.11215 9.13556 10.6803 10.8269 12.6984 10.8269V9.82692ZM10.1121 7.13462H11.1121C11.1121 6.16171 11.8598 5.44231 12.6984 5.44231V4.44231V3.44231C10.6803 3.44231 9.11215 5.13368 9.11215 7.13462H10.1121ZM12.6984 4.44231V5.44231C13.5369 5.44231 14.2846 6.16172 14.2846 7.13462H15.2846H16.2846C16.2846 5.13367 14.7165 3.44231 12.6984 3.44231V4.44231ZM10.1121 7.13462V6.13462C9.2736 6.13462 8.52591 5.41521 8.52591 4.44231H7.52591H6.52591C6.52591 6.44325 8.09402 8.13462 10.1121 8.13462V7.13462ZM7.52591 4.44231H8.52591C8.52591 3.46941 9.2736 2.75 10.1121 2.75V1.75V0.75C8.09402 0.75 6.52591 2.44137 6.52591 4.44231H7.52591ZM10.1121 1.75V2.75C10.9507 2.75 11.6984 3.46941 11.6984 4.44231H12.6984H13.6984C13.6984 2.44137 12.1303 0.75 10.1121 0.75V1.75Z" fill="#252B5C"/>
</svg>
