<svg width="21" height="21" viewBox="0 0 21 21" fill="none" xmlns="http://www.w3.org/2000/svg">
<path d="M10.5 12.2782L9.85081 13.0389C10.2248 13.358 10.7752 13.358 11.1492 13.0389L10.5 12.2782ZM6.2685 13.1535C6.8005 13.0052 7.11157 12.4537 6.96328 11.9217C6.81499 11.3897 6.2635 11.0786 5.7315 11.2269L6.2685 13.1535ZM15.2685 11.2269C14.7365 11.0786 14.185 11.3897 14.0367 11.9217C13.8884 12.4537 14.1995 13.0052 14.7315 13.1535L15.2685 11.2269ZM14.5 6.30375H13.5C13.5 6.70138 13.3378 7.22065 12.9993 7.83463C12.6684 8.43475 12.2142 9.04479 11.7389 9.60259C11.2664 10.157 10.791 10.6391 10.4324 10.9835C10.2537 11.155 10.1055 11.291 10.0032 11.383C9.95212 11.4289 9.91256 11.4638 9.88649 11.4866C9.87346 11.498 9.8638 11.5064 9.85777 11.5116C9.85476 11.5142 9.85265 11.516 9.85148 11.517C9.85089 11.5175 9.85054 11.5178 9.85043 11.5179C9.85037 11.518 9.85038 11.518 9.85044 11.5179C9.85047 11.5179 9.85056 11.5178 9.85058 11.5178C9.85069 11.5177 9.85081 11.5176 10.5 12.2782C11.1492 13.0389 11.1493 13.0387 11.1495 13.0386C11.1496 13.0385 11.1498 13.0384 11.1499 13.0382C11.1502 13.038 11.1506 13.0377 11.151 13.0373C11.1519 13.0366 11.153 13.0356 11.1543 13.0345C11.157 13.0322 11.1606 13.029 11.1652 13.0251C11.1743 13.0172 11.1871 13.0061 11.2034 12.9919C11.2359 12.9634 11.2823 12.9225 11.3405 12.8701C11.457 12.7654 11.6213 12.6146 11.8176 12.4261C12.209 12.0503 12.7336 11.5189 13.2611 10.8998C13.7858 10.284 14.3316 9.56045 14.7507 8.80031C15.1622 8.05403 15.5 7.18637 15.5 6.30375H14.5ZM10.5 12.2782C11.1492 11.5176 11.1493 11.5177 11.1494 11.5178C11.1494 11.5178 11.1495 11.5179 11.1496 11.5179C11.1496 11.518 11.1496 11.518 11.1496 11.5179C11.1495 11.5178 11.1491 11.5175 11.1485 11.517C11.1473 11.516 11.1452 11.5142 11.1422 11.5116C11.1362 11.5064 11.1265 11.498 11.1135 11.4866C11.0874 11.4638 11.0479 11.4289 10.9968 11.383C10.8945 11.291 10.7463 11.155 10.5676 10.9835C10.209 10.6391 9.73357 10.157 9.26115 9.60259C8.78583 9.04479 8.3316 8.43475 8.00071 7.83463C7.66218 7.22065 7.5 6.70138 7.5 6.30375H6.5H5.5C5.5 7.18637 5.83782 8.05403 6.24929 8.80031C6.6684 9.56045 7.21417 10.284 7.73885 10.8998C8.26643 11.5189 8.79104 12.0503 9.1824 12.4261C9.3787 12.6146 9.54303 12.7654 9.65948 12.8701C9.71774 12.9225 9.76412 12.9634 9.79664 12.9919C9.81291 13.0061 9.82572 13.0172 9.83482 13.0251C9.83938 13.029 9.84301 13.0322 9.84568 13.0345C9.84702 13.0356 9.84812 13.0366 9.84897 13.0373C9.8494 13.0377 9.84977 13.038 9.85007 13.0382C9.85023 13.0384 9.85041 13.0385 9.85049 13.0386C9.85066 13.0387 9.85081 13.0389 10.5 12.2782ZM6.5 6.30375H7.5C7.5 4.77276 8.80446 3.46301 10.5 3.46301V2.46301V1.46301C7.77726 1.46301 5.5 3.59238 5.5 6.30375H6.5ZM10.5 2.46301V3.46301C12.1955 3.46301 13.5 4.77276 13.5 6.30375H14.5H15.5C15.5 3.59238 13.2227 1.46301 10.5 1.46301V2.46301ZM18.5 14.8956H17.5C17.5 14.9921 17.4564 15.1793 17.1762 15.4502C16.8931 15.724 16.431 16.0166 15.7783 16.2835C14.4778 16.8154 12.6121 17.1674 10.5 17.1674V18.1674V19.1674C12.8061 19.1674 14.9405 18.7869 16.5354 18.1347C17.3304 17.8095 18.0399 17.3971 18.5664 16.888C19.0959 16.3761 19.5 15.7026 19.5 14.8956H18.5ZM10.5 18.1674V17.1674C8.38786 17.1674 6.52221 16.8154 5.22168 16.2835C4.56896 16.0166 4.1069 15.724 3.82379 15.4502C3.54362 15.1793 3.5 14.9921 3.5 14.8956H2.5H1.5C1.5 15.7026 1.9041 16.3761 2.43357 16.888C2.9601 17.3971 3.66961 17.8095 4.46461 18.1347C6.05951 18.7869 8.19386 19.1674 10.5 19.1674V18.1674ZM2.5 14.8956H3.5C3.5 14.778 3.57231 14.5093 4.06105 14.1395C4.53768 13.7789 5.28375 13.4279 6.2685 13.1535L6 12.1902L5.7315 11.2269C4.60348 11.5413 3.59955 11.9808 2.85437 12.5446C2.1213 13.0992 1.5 13.8887 1.5 14.8956H2.5ZM15 12.1902L14.7315 13.1535C15.7162 13.4279 16.4623 13.7789 16.9389 14.1395C17.4277 14.5093 17.5 14.778 17.5 14.8956H18.5H19.5C19.5 13.8887 18.8787 13.0992 18.1456 12.5446C17.4004 11.9808 16.3965 11.5413 15.2685 11.2269L15 12.1902Z" fill="#252B5C"/>
</svg>
