<svg width="25" height="26" viewBox="0 0 25 26" fill="none" xmlns="http://www.w3.org/2000/svg">
<path d="M15.625 15.0833H12.5M12.5 15.0833H9.375M12.5 15.0833V11.9583M12.5 15.0833V18.2083" stroke="#2790A3" stroke-width="2" stroke-linecap="round"/>
<path d="M22.9168 13.2123V14.7968C22.9168 18.8601 22.9168 20.8919 21.6964 22.1542C20.4761 23.4166 18.5118 23.4166 14.5835 23.4166H10.4168C6.48845 23.4166 4.52428 23.4166 3.30388 22.1542C2.0835 20.8919 2.0835 18.8601 2.0835 14.7968V13.2123C2.0835 10.8286 2.0835 9.63667 2.62433 8.64861C3.16516 7.66055 4.15324 7.04732 6.12936 5.82089L8.21269 4.52791C10.3016 3.23147 11.3461 2.58325 12.5002 2.58325C13.6542 2.58325 14.6987 3.23147 16.7877 4.52791L18.871 5.82088C20.8471 7.04732 21.8352 7.66055 22.376 8.64861" stroke="#2790A3" stroke-width="2.5" stroke-linecap="round"/>
</svg>
