<svg width="25" height="28" viewBox="0 0 25 28" fill="none" xmlns="http://www.w3.org/2000/svg">
<path d="M5.83333 11.9762V26.2619H2.5V5.30957H22.5V26.2619H19.1667V11.9762C19.1667 11.4505 18.7933 11.0239 18.3333 11.0239H6.66667C6.20667 11.0239 5.83333 11.4505 5.83333 11.9762Z" stroke="#2790A3" stroke-width="2"/>
<path d="M0 5.30957H25" stroke="#2790A3" stroke-width="2" stroke-linejoin="round"/>
<path d="M0 1.5H25" stroke="#2790A3" stroke-width="2" stroke-linejoin="round"/>
<path d="M12.4998 16.043C14.7223 18.2363 15.8332 20.3725 15.8332 22.4506C15.8332 24.5544 14.3407 26.2601 12.4998 26.2601C10.659 26.2601 9.1665 24.5287 9.1665 22.4506C9.1665 20.3725 10.2773 18.2363 12.4998 16.043Z" stroke="#2790A3" stroke-width="2"/>
<path d="M12.5 22.2144C13.5358 22.2144 14.375 23.1734 14.375 24.3572C14.375 25.541 13.5358 26.5001 12.5 26.5001C11.4642 26.5001 10.625 25.541 10.625 24.3572C10.625 23.1734 11.4642 22.2144 12.5 22.2144Z" stroke="#2790A3" stroke-width="2" stroke-linejoin="round"/>
</svg>
