<svg width="25" height="26" viewBox="0 0 25 26" fill="none" xmlns="http://www.w3.org/2000/svg">
<g clip-path="url(#clip0_681_8594)">
<path d="M8.46338 15.3403C8.00867 15.3403 7.64014 14.9717 7.64014 14.517V6.57713C7.64014 4.61507 9.2364 3.0188 11.1985 3.0188C11.6532 3.0188 12.0217 3.38734 12.0217 3.84204C12.0217 4.29675 11.6532 4.66528 11.1985 4.66528C10.1444 4.66528 9.28662 5.52283 9.28662 6.57713V14.5173C9.28662 14.9717 8.91808 15.3403 8.46338 15.3403Z" fill="#2790A3" stroke="#2790A3" stroke-width="0.4"/>
<path d="M16.5835 15.3403C16.1288 15.3403 15.7603 14.9717 15.7603 14.517V6.57713C15.7603 4.61507 17.3562 3.0188 19.3186 3.0188C19.7733 3.0188 20.1418 3.38734 20.1418 3.84204C20.1418 4.29675 19.7733 4.66528 19.3186 4.66528C18.2643 4.66528 17.4067 5.52283 17.4067 6.57713V14.5173C17.4067 14.9717 17.0382 15.3403 16.5835 15.3403Z" fill="#2790A3" stroke="#2790A3" stroke-width="0.4"/>
<path d="M16.5838 13.3796H8.46387C8.00916 13.3796 7.64062 13.0111 7.64062 12.5564C7.64062 12.1017 8.00916 11.7332 8.46387 11.7332H16.5838C17.0385 11.7332 17.407 12.1017 17.407 12.5564C17.407 13.0111 17.0385 13.3796 16.5838 13.3796Z" fill="#2790A3" stroke="#2790A3" stroke-width="0.4"/>
<path d="M16.5838 9.18872H8.46387C8.00916 9.18872 7.64062 8.82018 7.64062 8.36548C7.64062 7.91077 8.00916 7.54224 8.46387 7.54224H16.5838C17.0385 7.54224 17.407 7.91077 17.407 8.36548C17.407 8.82018 17.0385 9.18872 16.5838 9.18872Z" fill="#2790A3" stroke="#2790A3" stroke-width="0.4"/>
<path d="M7.87564 22.9514C6.90285 22.9514 5.93032 22.5129 5.00417 21.6356C3.78578 20.4811 2.74547 20.4811 1.52653 21.6356C1.19668 21.9487 0.675567 21.9344 0.362735 21.6043C0.0501774 21.2742 0.0641725 20.7531 0.394293 20.4405C2.24604 18.6862 4.28548 18.6867 6.13668 20.4405C7.35563 21.5947 8.39566 21.5958 9.6146 20.4405C11.4664 18.6867 13.5055 18.6862 15.3573 20.4405C16.5762 21.5952 17.6162 21.5947 18.8349 20.4405C20.6864 18.6864 22.7256 18.6859 24.5776 20.4405C24.9074 20.7533 24.9217 21.2742 24.6089 21.6043C24.2963 21.9336 23.7752 21.9484 23.4451 21.6356C22.2269 20.4817 21.1869 20.4811 19.9674 21.6356C18.116 23.3902 16.0768 23.3902 14.2248 21.6356C13.0058 20.4808 11.9658 20.4814 10.7468 21.6356C9.82124 22.5129 8.84844 22.9511 7.87564 22.9514Z" fill="#2790A3" stroke="#2790A3" stroke-width="0.4"/>
<path d="M7.87551 19.2345C6.90298 19.2345 5.93018 18.796 5.00431 17.919C3.78564 16.7645 2.74561 16.764 1.52666 17.919C1.19654 18.2318 0.675704 18.2175 0.362872 17.8877C0.0500402 17.5576 0.0643097 17.0365 0.394155 16.7239C2.24618 14.969 4.28535 14.9696 6.13682 16.7239C7.35549 17.8786 8.39579 17.8781 9.61474 16.7239C11.4662 14.9693 13.5054 14.9699 15.3574 16.7239C16.5758 17.8786 17.6164 17.8781 18.8351 16.7239C20.6873 14.969 22.7265 14.9696 24.5777 16.7239C24.9076 17.0367 24.9218 17.5576 24.609 17.8877C24.2964 18.2173 23.7753 18.2321 23.4452 17.919C22.2263 16.7637 21.1862 16.7643 19.9676 17.919C18.1158 19.6728 16.0766 19.6733 14.2249 17.919C13.006 16.7645 11.9659 16.7645 10.7472 17.919C9.8211 18.796 8.8483 19.2345 7.87551 19.2345Z" fill="#2790A3" stroke="#2790A3" stroke-width="0.4"/>
</g>
<defs>
<clipPath id="clip0_681_8594">
<rect width="25" height="25" fill="white" transform="translate(0 0.5)"/>
</clipPath>
</defs>
</svg>
