<svg width="26" height="27" viewBox="0 0 26 27" fill="none" xmlns="http://www.w3.org/2000/svg">
<path d="M16.625 4.94828V3.22414C16.625 2.27155 15.6927 1.5 14.5417 1.5H3.08333C1.93229 1.5 1 2.27155 1 3.22414V26.5" stroke="#2790A3" stroke-width="2"/>
<path d="M22.875 4.94824H10.375V8.39652H22.875V4.94824Z" stroke="#2790A3" stroke-width="2" stroke-linejoin="round"/>
<path d="M7.25 8.39648H26" stroke="#2790A3" stroke-width="2" stroke-linejoin="round"/>
<path d="M16.625 10.9827C16.05 10.9827 15.5833 11.3689 15.5833 11.8447C15.5833 12.3206 16.05 12.7068 16.625 12.7068C17.2 12.7068 17.6667 12.3206 17.6667 11.8447C17.6667 11.3689 17.2 10.9827 16.625 10.9827ZM11.4167 10.9827C10.8417 10.9827 10.375 11.3689 10.375 11.8447C10.375 12.3206 10.8417 12.7068 11.4167 12.7068C11.9917 12.7068 12.4583 12.3206 12.4583 11.8447C12.4583 11.3689 11.9917 10.9827 11.4167 10.9827ZM21.8333 10.9827C21.2583 10.9827 20.7917 11.3689 20.7917 11.8447C20.7917 12.3206 21.2583 12.7068 21.8333 12.7068C22.4083 12.7068 22.875 12.3206 22.875 11.8447C22.875 11.3689 22.4083 10.9827 21.8333 10.9827ZM16.625 14.4309C16.05 14.4309 15.5833 14.8171 15.5833 15.293C15.5833 15.7689 16.05 16.1551 16.625 16.1551C17.2 16.1551 17.6667 15.7689 17.6667 15.293C17.6667 14.8171 17.2 14.4309 16.625 14.4309ZM21.8333 14.4309C21.2583 14.4309 20.7917 14.8171 20.7917 15.293C20.7917 15.7689 21.2583 16.1551 21.8333 16.1551C22.4083 16.1551 22.875 15.7689 22.875 15.293C22.875 14.8171 22.4083 14.4309 21.8333 14.4309ZM11.4167 14.4309C10.8417 14.4309 10.375 14.8171 10.375 15.293C10.375 15.7689 10.8417 16.1551 11.4167 16.1551C11.9917 16.1551 12.4583 15.7689 12.4583 15.293C12.4583 14.8171 11.9917 14.4309 11.4167 14.4309ZM16.625 17.8792C16.05 17.8792 15.5833 18.2654 15.5833 18.7413C15.5833 19.2171 16.05 19.6034 16.625 19.6034C17.2 19.6034 17.6667 19.2171 17.6667 18.7413C17.6667 18.2654 17.2 17.8792 16.625 17.8792ZM21.8333 17.8792C21.2583 17.8792 20.7917 18.2654 20.7917 18.7413C20.7917 19.2171 21.2583 19.6034 21.8333 19.6034C22.4083 19.6034 22.875 19.2171 22.875 18.7413C22.875 18.2654 22.4083 17.8792 21.8333 17.8792ZM11.4167 17.8792C10.8417 17.8792 10.375 18.2654 10.375 18.7413C10.375 19.2171 10.8417 19.6034 11.4167 19.6034C11.9917 19.6034 12.4583 19.2171 12.4583 18.7413C12.4583 18.2654 11.9917 17.8792 11.4167 17.8792ZM16.625 21.3275C16.05 21.3275 15.5833 21.7137 15.5833 22.1896C15.5833 22.6654 16.05 23.0516 16.625 23.0516C17.2 23.0516 17.6667 22.6654 17.6667 22.1896C17.6667 21.7137 17.2 21.3275 16.625 21.3275ZM21.8333 21.3275C21.2583 21.3275 20.7917 21.7137 20.7917 22.1896C20.7917 22.6654 21.2583 23.0516 21.8333 23.0516C22.4083 23.0516 22.875 22.6654 22.875 22.1896C22.875 21.7137 22.4083 21.3275 21.8333 21.3275ZM11.4167 21.3275C10.8417 21.3275 10.375 21.7137 10.375 22.1896C10.375 22.6654 10.8417 23.0516 11.4167 23.0516C11.9917 23.0516 12.4583 22.6654 12.4583 22.1896C12.4583 21.7137 11.9917 21.3275 11.4167 21.3275ZM16.625 24.7758C16.05 24.7758 15.5833 25.162 15.5833 25.6378C15.5833 26.1137 16.05 26.4999 16.625 26.4999C17.2 26.4999 17.6667 26.1137 17.6667 25.6378C17.6667 25.162 17.2 24.7758 16.625 24.7758ZM21.8333 24.7758C21.2583 24.7758 20.7917 25.162 20.7917 25.6378C20.7917 26.1137 21.2583 26.4999 21.8333 26.4999C22.4083 26.4999 22.875 26.1137 22.875 25.6378C22.875 25.162 22.4083 24.7758 21.8333 24.7758ZM11.4167 24.7758C10.8417 24.7758 10.375 25.162 10.375 25.6378C10.375 26.1137 10.8417 26.4999 11.4167 26.4999C11.9917 26.4999 12.4583 26.1137 12.4583 25.6378C12.4583 25.162 11.9917 24.7758 11.4167 24.7758Z" fill="#2790A3"/>
<path d="M21.833 10.9827C21.258 10.9827 20.7913 11.3689 20.7913 11.8447C20.7913 12.3206 21.258 12.7068 21.833 12.7068C22.408 12.7068 22.8747 12.3206 22.8747 11.8447C22.8747 11.3689 22.408 10.9827 21.833 10.9827ZM16.6247 10.9827C16.0497 10.9827 15.583 11.3689 15.583 11.8447C15.583 12.3206 16.0497 12.7068 16.6247 12.7068C17.1997 12.7068 17.6663 12.3206 17.6663 11.8447C17.6663 11.3689 17.1997 10.9827 16.6247 10.9827ZM21.833 14.4309C21.258 14.4309 20.7913 14.8171 20.7913 15.293C20.7913 15.7689 21.258 16.1551 21.833 16.1551C22.408 16.1551 22.8747 15.7689 22.8747 15.293C22.8747 14.8171 22.408 14.4309 21.833 14.4309ZM16.6247 14.4309C16.0497 14.4309 15.583 14.8171 15.583 15.293C15.583 15.7689 16.0497 16.1551 16.6247 16.1551C17.1997 16.1551 17.6663 15.7689 17.6663 15.293C17.6663 14.8171 17.1997 14.4309 16.6247 14.4309ZM21.833 17.8792C21.258 17.8792 20.7913 18.2654 20.7913 18.7413C20.7913 19.2171 21.258 19.6034 21.833 19.6034C22.408 19.6034 22.8747 19.2171 22.8747 18.7413C22.8747 18.2654 22.408 17.8792 21.833 17.8792ZM16.6247 17.8792C16.0497 17.8792 15.583 18.2654 15.583 18.7413C15.583 19.2171 16.0497 19.6034 16.6247 19.6034C17.1997 19.6034 17.6663 19.2171 17.6663 18.7413C17.6663 18.2654 17.1997 17.8792 16.6247 17.8792ZM21.833 21.3275C21.258 21.3275 20.7913 21.7137 20.7913 22.1896C20.7913 22.6654 21.258 23.0516 21.833 23.0516C22.408 23.0516 22.8747 22.6654 22.8747 22.1896C22.8747 21.7137 22.408 21.3275 21.833 21.3275ZM16.6247 21.3275C16.0497 21.3275 15.583 21.7137 15.583 22.1896C15.583 22.6654 16.0497 23.0516 16.6247 23.0516C17.1997 23.0516 17.6663 22.6654 17.6663 22.1896C17.6663 21.7137 17.1997 21.3275 16.6247 21.3275ZM21.833 24.7758C21.258 24.7758 20.7913 25.162 20.7913 25.6378C20.7913 26.1137 21.258 26.4999 21.833 26.4999C22.408 26.4999 22.8747 26.1137 22.8747 25.6378C22.8747 25.162 22.408 24.7758 21.833 24.7758ZM16.6247 24.7758C16.0497 24.7758 15.583 25.162 15.583 25.6378C15.583 26.1137 16.0497 26.4999 16.6247 26.4999C17.1997 26.4999 17.6663 26.1137 17.6663 25.6378C17.6663 25.162 17.1997 24.7758 16.6247 24.7758Z" fill="#2790A3"/>
</svg>
