<svg width="25" height="27" viewBox="0 0 25 27" fill="none" xmlns="http://www.w3.org/2000/svg">
<path d="M12.4204 9.94305H20.1925M12.5002 0.5V2.92083V16.8572M12.5002 1.30032C16.7483 1.30032 20.1925 4.39614 20.1925 8.21451V16.8572H12.5002C12.5002 16.8572 12.5002 4.00117 12.5002 1.30032Z" stroke="#2790A3" stroke-width="2"/>
<path d="M12.5796 9.94305H4.80747M12.4998 0.5V2.92083V16.8572M12.4998 1.30032C8.2517 1.30032 4.80747 4.39614 4.80747 8.21451V16.8572H12.4998C12.4998 16.8572 12.4998 4.00117 12.4998 1.30032Z" stroke="#2790A3" stroke-width="2"/>
<path d="M22.1152 16.8572V25.4999" stroke="#2790A3" stroke-width="2"/>
<path d="M18.269 16.8572V25.4999" stroke="#2790A3" stroke-width="2"/>
<path d="M14.4229 16.8572V25.4999" stroke="#2790A3" stroke-width="2"/>
<path d="M10.5771 16.8572V25.4999" stroke="#2790A3" stroke-width="2"/>
<path d="M6.73096 16.8572V25.4999" stroke="#2790A3" stroke-width="2"/>
<path d="M2.88477 16.8572V25.4999" stroke="#2790A3" stroke-width="2"/>
<path d="M0 25.5H25" stroke="#2790A3" stroke-width="2"/>
<path d="M0 16.8572H25" stroke="#2790A3" stroke-width="2"/>
</svg>
