<svg width="25" height="26" viewBox="0 0 25 26" fill="none" xmlns="http://www.w3.org/2000/svg">
<path d="M0 25.5V23.7758H5.35625L5.35714 7.39621H3.57143C2.70089 7.39621 2.36161 6.33154 3.02679 5.84963L3.1125 5.79532L12.0411 0.622809C12.1616 0.552981 12.2982 0.5116 12.4384 0.502117C12.5795 0.492634 12.7205 0.515048 12.85 0.568498L12.9589 0.622809L21.8875 5.79532C22.6348 6.22722 22.358 7.30828 21.5304 7.39104L21.4286 7.39621H19.6429L19.642 23.7758H25V25.5H0ZM17.8563 23.7758L17.8571 7.39621H7.14286L7.14196 23.7758H8.92857V22.0517C8.92857 21.1516 9.29286 20.2878 9.94286 19.6439C10.5938 18.9999 11.4795 18.6266 12.4107 18.6042C13.342 18.5818 14.2455 18.9119 14.9286 19.5232C15.6116 20.1352 16.0205 20.9809 16.067 21.8792L16.0714 22.0517V23.7758H17.8563ZM12.5 20.3275C12.0491 20.3275 11.6152 20.4913 11.2848 20.787C10.9554 21.0835 10.7527 21.4887 10.7188 21.9223L10.7143 22.0517V23.7758H14.2857V22.0517C14.2857 21.5948 14.0973 21.156 13.7625 20.8327C13.4277 20.5094 12.9732 20.3275 12.5 20.3275ZM12.5 10.8446C12.7366 10.8446 12.9643 10.9351 13.1312 11.0971C13.2991 11.2584 13.3929 11.4782 13.3929 11.7066C13.3929 11.9351 13.2991 12.1549 13.1312 12.3161C12.9643 12.4782 12.7366 12.5687 12.5 12.5687C12.2634 12.5687 12.0357 12.4782 11.8687 12.3161C11.7009 12.1549 11.6071 11.9351 11.6071 11.7066C11.6071 11.4782 11.7009 11.2584 11.8687 11.0971C12.0357 10.9351 12.2634 10.8446 12.5 10.8446ZM12.5 2.36681L6.79375 5.67204H18.2054L12.5 2.36681Z" fill="#2790A3"/>
</svg>
