<svg width="14" height="15" viewBox="0 0 14 15" fill="none" xmlns="http://www.w3.org/2000/svg">
<path d="M11.6663 6.33329C11.6663 8.91046 6.99967 13.3333 6.99967 13.3333C6.99967 13.3333 2.33301 8.91046 2.33301 6.33329C2.33301 5.09562 2.82467 3.90863 3.69984 3.03346C4.57501 2.15829 5.762 1.66663 6.99967 1.66663C8.23735 1.66663 9.42434 2.15829 10.2995 3.03346C11.1747 3.90863 11.6663 5.09562 11.6663 6.33329Z" fill="#234F68"/>
<path d="M6.9998 6.7999C7.18546 6.7999 7.3635 6.72615 7.49478 6.59488C7.62605 6.4636 7.6998 6.28555 7.6998 6.0999C7.6998 5.91425 7.62605 5.7362 7.49478 5.60493C7.3635 5.47365 7.18546 5.3999 6.9998 5.3999C6.81415 5.3999 6.63611 5.47365 6.50483 5.60493C6.37355 5.7362 6.2998 5.91425 6.2998 6.0999C6.2998 6.28555 6.37355 6.4636 6.50483 6.59488C6.63611 6.72615 6.81415 6.7999 6.9998 6.7999Z" fill="white" stroke="white" stroke-width="1.25" stroke-linecap="round" stroke-linejoin="round"/>
</svg>
