<svg width="31" height="31" viewBox="0 0 31 31" fill="none" xmlns="http://www.w3.org/2000/svg">
<circle cx="15.5" cy="15.5" r="15" fill="#1F4C6B"/>
<path d="M22.2156 20.1138C22.2156 20.1138 21.3343 20.9027 21.1184 21.134C20.7666 21.4762 20.3521 21.6378 19.8087 21.6378C19.7565 21.6378 19.7008 21.6378 19.6485 21.6347C18.614 21.5745 17.6527 21.2069 16.9317 20.8932C14.9603 20.025 13.2292 18.7925 11.7907 17.2304C10.6029 15.9281 9.80879 14.724 9.28284 13.4312C8.95891 12.6422 8.84049 12.0275 8.89273 11.4477C8.92756 11.077 9.0843 10.7696 9.3734 10.5066L10.5611 9.42614C10.7318 9.28039 10.9129 9.20117 11.0906 9.20117C11.31 9.20117 11.4876 9.32158 11.5991 9.42297C11.6026 9.42614 11.6061 9.42931 11.6095 9.43248C11.822 9.61309 12.024 9.80003 12.2365 9.99965C12.3445 10.101 12.4559 10.2024 12.5674 10.307L13.5183 11.172C13.8875 11.5079 13.8875 11.8184 13.5183 12.1543C13.4173 12.2462 13.3197 12.3381 13.2187 12.4268C12.9262 12.6993 13.156 12.4902 12.853 12.7373C12.846 12.7437 12.839 12.7469 12.8355 12.7532C12.536 13.0257 12.5917 13.2918 12.6544 13.4725C12.6579 13.482 12.6614 13.4915 12.6649 13.501C12.9122 14.046 13.2605 14.5593 13.7899 15.1708L13.7934 15.174C14.7547 16.2513 15.7683 17.091 16.8864 17.7342C17.0292 17.8166 17.1755 17.8831 17.3148 17.9465C17.4402 18.0035 17.5586 18.0574 17.6596 18.1144C17.6736 18.1208 17.6875 18.1303 17.7014 18.1366C17.8198 18.1905 17.9313 18.2158 18.0462 18.2158C18.3353 18.2158 18.5165 18.0511 18.5757 17.9972L19.2584 17.3761C19.3768 17.2684 19.5649 17.1385 19.7844 17.1385C20.0003 17.1385 20.1779 17.262 20.2859 17.3698C20.2894 17.3729 20.2894 17.3729 20.2929 17.3761L22.2121 19.122C22.5708 19.4452 22.2156 20.1138 22.2156 20.1138Z" fill="white" stroke="white" stroke-width="2" stroke-linecap="round" stroke-linejoin="round"/>
</svg>
