<svg width="24" height="24" viewBox="0 0 24 24" fill="none" xmlns="http://www.w3.org/2000/svg">
<path d="M11.9988 7.99996C12.5511 7.99996 12.9988 8.44768 12.9988 8.99996V13C12.9988 13.5522 12.5511 14 11.9988 14C11.4465 14 10.9988 13.5522 10.9988 13V8.99996C10.9988 8.44768 11.4465 7.99996 11.9988 7.99996Z" fill="#E94235"/>
<path d="M11.9988 16C11.4465 16 10.9988 16.4477 10.9988 17C10.9988 17.5522 11.4465 18 11.9988 18H12.0088C12.5611 18 13.0088 17.5522 13.0088 17C13.0088 16.4477 12.5611 16 12.0088 16H11.9988Z" fill="#E94235"/>
<path fill-rule="evenodd" clip-rule="evenodd" d="M10.527 2.28306C10.9763 2.0301 11.4832 1.89722 11.9988 1.89722C12.5144 1.89722 13.0213 2.0301 13.4706 2.28306C13.9199 2.53601 14.2964 2.90049 14.5638 3.34133L14.5667 3.34608L23.0367 17.4861L23.0448 17.4999C23.3067 17.9535 23.4453 18.4678 23.4468 18.9917C23.4483 19.5155 23.3126 20.0306 23.0532 20.4857C22.7937 20.9408 22.4197 21.32 21.9682 21.5857C21.5168 21.8513 21.0036 21.9941 20.4798 21.9999L20.4688 22L3.51781 22C2.994 21.9942 2.48084 21.8513 2.02937 21.5857C1.5779 21.32 1.20385 20.9408 0.944449 20.4857C0.685046 20.0306 0.549326 19.5155 0.550793 18.9917C0.55226 18.4678 0.690862 17.9535 0.95281 17.4999L0.960933 17.4861L9.43093 3.34609L10.2888 3.85995L9.4338 3.34133C9.70121 2.90049 10.0777 2.53601 10.527 2.28306ZM11.145 4.3766L2.68149 18.5058C2.59631 18.6556 2.55127 18.8249 2.55079 18.9973C2.5503 19.1719 2.59554 19.3436 2.682 19.4953C2.76847 19.647 2.89315 19.7734 3.04364 19.8619C3.19282 19.9497 3.36219 19.9973 3.5352 20H20.4624C20.6354 19.9973 20.8048 19.9497 20.954 19.8619C21.1044 19.7734 21.2291 19.647 21.3156 19.4953C21.4021 19.3436 21.4473 19.1719 21.4468 18.9973C21.4463 18.8249 21.4013 18.6556 21.3161 18.5058L12.8538 4.37859L12.8526 4.3766C12.7635 4.23054 12.6385 4.10977 12.4894 4.02583C12.3396 3.94151 12.1707 3.89722 11.9988 3.89722C11.8269 3.89722 11.658 3.94151 11.5082 4.02583C11.3591 4.10977 11.2341 4.23054 11.145 4.3766Z" fill="#E94235"/>
</svg>
