<svg width="550" height="433" viewBox="0 0 550 433" fill="none" xmlns="http://www.w3.org/2000/svg">
<path d="M481.38 186.685V171.301C481.38 168.367 480.214 165.554 478.139 163.479C476.063 161.405 473.248 160.24 470.313 160.24H431.25C429.796 160.24 428.357 159.953 427.014 159.398C425.672 158.842 424.452 158.027 423.424 157C422.396 155.973 421.581 154.753 421.025 153.411C420.469 152.069 420.182 150.631 420.182 149.178V133.794C420.182 132.341 420.469 130.903 421.025 129.561C421.581 128.219 422.396 127 423.424 125.972C424.452 124.945 425.672 124.13 427.014 123.575C428.357 123.019 429.796 122.733 431.25 122.733H432.483C435.418 122.733 438.233 121.567 440.309 119.493C442.384 117.418 443.55 114.605 443.55 111.671V96.2869C443.55 93.3533 442.384 90.5398 440.309 88.4654C438.233 86.391 435.418 85.2256 432.483 85.2256H143.177C140.242 85.2256 137.427 86.391 135.351 88.4654C133.276 90.5398 132.11 93.3533 132.11 96.2869V111.671C132.11 114.605 133.276 117.418 135.351 119.493C137.427 121.567 140.242 122.733 143.177 122.733C146.112 122.733 148.927 123.898 151.003 125.972C153.078 128.047 154.244 130.86 154.244 133.794V149.178C154.244 152.112 153.078 154.925 151.003 157C148.927 159.074 146.112 160.24 143.177 160.24H100.379C97.4439 160.24 94.6289 161.405 92.5534 163.479C90.4779 165.554 89.3119 168.367 89.3119 171.301V186.685C89.3119 189.619 90.4779 192.432 92.5534 194.507C94.6289 196.581 97.4439 197.747 100.379 197.747H117.172C118.626 197.747 120.065 198.033 121.408 198.589C122.75 199.144 123.97 199.959 124.998 200.986C126.026 202.013 126.841 203.233 127.397 204.575C127.953 205.917 128.24 207.355 128.24 208.808V224.192C128.24 225.645 127.953 227.083 127.397 228.425C126.841 229.767 126.026 230.987 124.998 232.014C123.97 233.041 122.75 233.856 121.408 234.412C120.065 234.968 118.626 235.254 117.172 235.254H117.132C114.197 235.254 111.382 236.419 109.306 238.493C107.231 240.568 106.065 243.381 106.065 246.315V261.699C106.065 263.152 106.351 264.59 106.907 265.932C107.463 267.274 108.278 268.494 109.306 269.521C110.334 270.548 111.554 271.363 112.897 271.919C114.239 272.474 115.678 272.761 117.132 272.761H119.561C122.497 272.761 125.312 273.926 127.387 276C129.463 278.075 130.629 280.888 130.629 283.822V299.206C130.629 302.14 129.463 304.953 127.387 307.028C125.312 309.102 122.497 310.268 119.561 310.268H79.6869C76.7516 310.268 73.9367 311.433 71.8611 313.507C69.7856 315.582 68.6196 318.395 68.6196 321.329V336.713C68.6196 339.647 69.7856 342.46 71.8611 344.535C73.9367 346.609 76.7516 347.775 79.6869 347.775H438.425C441.36 347.775 444.175 346.609 446.25 344.535C448.326 342.46 449.492 339.647 449.492 336.713V321.329C449.492 318.395 448.326 315.582 446.25 313.507C444.175 311.433 441.36 310.268 438.425 310.268H428.829C425.894 310.268 423.079 309.102 421.003 307.028C418.928 304.953 417.762 302.14 417.762 299.206V283.822C417.762 280.888 418.928 278.075 421.003 276C423.079 273.926 425.894 272.761 428.829 272.761H451.455C452.908 272.761 454.348 272.474 455.69 271.919C457.033 271.363 458.253 270.548 459.281 269.521C460.308 268.494 461.124 267.274 461.68 265.932C462.236 264.59 462.522 263.152 462.522 261.699V246.315C462.522 243.381 461.356 240.568 459.281 238.493C457.205 236.419 454.39 235.254 451.455 235.254H444.591C443.138 235.254 441.699 234.968 440.356 234.412C439.013 233.856 437.793 233.041 436.766 232.014C435.738 230.987 434.923 229.767 434.366 228.425C433.81 227.083 433.524 225.645 433.524 224.192V208.808C433.524 207.355 433.81 205.917 434.366 204.575C434.923 203.233 435.738 202.013 436.766 200.986C437.793 199.959 439.013 199.144 440.356 198.589C441.699 198.033 443.138 197.747 444.591 197.747H470.313C473.248 197.747 476.063 196.581 478.139 194.507C480.214 192.432 481.38 189.619 481.38 186.685Z" fill="#DBE8EC"/>
<path d="M319.34 196.031H184.09V319.03H319.34V196.031Z" fill="#409CB5"/>
<path d="M391.229 196.031H319.339V319.03H391.229V196.031Z" fill="#3086A3"/>
<path d="M391.229 196.337H319.339L343.963 162.767C344.199 162.446 344.507 162.185 344.863 162.005C345.219 161.824 345.612 161.73 346.011 161.73H411.605C412.074 161.73 412.534 161.86 412.933 162.106C413.333 162.351 413.657 162.702 413.869 163.121C414.081 163.539 414.173 164.008 414.135 164.475C414.096 164.942 413.929 165.39 413.652 165.768L391.229 196.337Z" fill="#25788E"/>
<path d="M184.425 196.337H256.314L231.69 162.767C231.454 162.446 231.146 162.185 230.79 162.005C230.435 161.824 230.042 161.73 229.643 161.73H164.049C163.58 161.73 163.12 161.86 162.72 162.106C162.32 162.351 161.997 162.702 161.784 163.121C161.572 163.539 161.48 164.008 161.519 164.475C161.557 164.942 161.724 165.39 162.001 165.768L184.425 196.337Z" fill="#3086A3"/>
<path d="M431.786 241.159L391.229 196.336V245.353H429.864C430.35 245.353 430.826 245.213 431.235 244.951C431.645 244.688 431.97 244.314 432.172 243.872C432.375 243.43 432.446 242.94 432.377 242.459C432.309 241.978 432.104 241.526 431.786 241.159Z" fill="#25788E"/>
<path d="M302.709 130.062H208.91V196.336H302.709V130.062Z" fill="#EE781D"/>
<path d="M253.068 200.427H227.262C226.763 200.427 226.274 200.296 225.843 200.047C225.411 199.798 225.053 199.44 224.804 199.009C224.555 198.578 224.424 198.089 224.424 197.591C224.424 197.093 224.555 196.604 224.804 196.173L237.707 173.836L250.61 151.499C250.859 151.068 251.217 150.71 251.649 150.461C252.08 150.212 252.569 150.081 253.068 150.081C253.566 150.081 254.055 150.212 254.486 150.461C254.918 150.71 255.276 151.068 255.525 151.499L268.428 173.836L281.331 196.173C281.58 196.604 281.711 197.093 281.711 197.591C281.711 198.089 281.58 198.578 281.331 199.009C281.082 199.44 280.724 199.798 280.292 200.047C279.861 200.296 279.372 200.427 278.874 200.427H253.068Z" fill="#DBE8EC"/>
<path d="M254.487 164.049C254.487 163.265 253.852 162.63 253.068 162.63C252.283 162.63 251.648 163.265 251.648 164.049V185.202C251.648 185.985 252.283 186.621 253.068 186.621C253.852 186.621 254.487 185.985 254.487 185.202V164.049Z" fill="#409CB5"/>
<path d="M256.448 192.508C256.633 190.642 255.269 188.98 253.403 188.795C251.536 188.61 249.872 189.973 249.687 191.839C249.503 193.704 250.866 195.367 252.733 195.551C254.6 195.736 256.263 194.373 256.448 192.508Z" fill="#409CB5"/>
<path d="M275.564 245.353H147.02C146.534 245.353 146.058 245.213 145.649 244.951C145.24 244.688 144.915 244.314 144.712 243.872C144.51 243.431 144.439 242.94 144.507 242.459C144.575 241.978 144.781 241.526 145.098 241.159L183.786 196.336H319.035L277.486 244.473C277.248 244.749 276.953 244.971 276.621 245.122C276.29 245.274 275.929 245.353 275.564 245.353Z" fill="#47ACC4"/>
<path d="M401.32 286.131C404.526 286.131 404.526 287.822 407.733 287.822C410.939 287.822 410.939 286.131 414.144 286.131C417.352 286.131 417.352 287.822 420.56 287.822C423.768 287.822 423.768 286.131 426.976 286.131" stroke="#B9D4DB" stroke-width="3" stroke-miterlimit="10" stroke-linecap="round"/>
<path d="M401.32 293.521C404.526 293.521 404.526 295.213 407.733 295.213C410.939 295.213 410.939 293.521 414.144 293.521C417.352 293.521 417.352 295.213 420.56 295.213C423.768 295.213 423.768 293.521 426.976 293.521" stroke="#B9D4DB" stroke-width="3" stroke-miterlimit="10" stroke-linecap="round"/>
<path d="M401.32 300.912C404.526 300.912 404.526 302.604 407.733 302.604C410.939 302.604 410.939 300.912 414.144 300.912C417.352 300.912 417.352 302.604 420.56 302.604C423.768 302.604 423.768 300.912 426.976 300.912" stroke="#B9D4DB" stroke-width="3" stroke-miterlimit="10" stroke-linecap="round"/>
<path d="M94.0784 247.045C97.285 247.045 97.285 248.736 100.492 248.736C103.697 248.736 103.697 247.045 106.903 247.045C110.111 247.045 110.111 248.736 113.319 248.736C116.526 248.736 116.526 247.045 119.734 247.045" stroke="#B9D4DB" stroke-width="3" stroke-miterlimit="10" stroke-linecap="round"/>
<path d="M94.0784 254.436C97.285 254.436 97.285 256.127 100.492 256.127C103.697 256.127 103.697 254.436 106.903 254.436C110.111 254.436 110.111 256.127 113.319 256.127C116.526 256.127 116.526 254.436 119.734 254.436" stroke="#B9D4DB" stroke-width="3" stroke-miterlimit="10" stroke-linecap="round"/>
<path d="M94.0784 261.826C97.285 261.826 97.285 263.518 100.492 263.518C103.697 263.518 103.697 261.826 106.903 261.826C110.111 261.826 110.111 263.518 113.319 263.518C116.526 263.518 116.526 261.826 119.734 261.826" stroke="#B9D4DB" stroke-width="3" stroke-miterlimit="10" stroke-linecap="round"/>
<path d="M236.843 101.943C240.05 101.943 240.05 103.635 243.256 103.635C246.462 103.635 246.462 101.943 249.668 101.943C252.875 101.943 252.875 103.635 256.083 103.635C259.291 103.635 259.291 101.943 262.499 101.943" stroke="#B9D4DB" stroke-width="3" stroke-miterlimit="10" stroke-linecap="round"/>
<path d="M236.843 109.335C240.05 109.335 240.05 111.026 243.256 111.026C246.462 111.026 246.462 109.335 249.668 109.335C252.875 109.335 252.875 111.026 256.083 111.026C259.291 111.026 259.291 109.335 262.499 109.335" stroke="#B9D4DB" stroke-width="3" stroke-miterlimit="10" stroke-linecap="round"/>
<path d="M236.843 116.726C240.05 116.726 240.05 118.417 243.256 118.417C246.462 118.417 246.462 116.726 249.668 116.726C252.875 116.726 252.875 118.417 256.083 118.417C259.291 118.417 259.291 116.726 262.499 116.726" stroke="#B9D4DB" stroke-width="3" stroke-miterlimit="10" stroke-linecap="round"/>
<path d="M155.443 341.808C161.499 341.808 166.409 336.901 166.409 330.848C166.409 324.795 161.499 319.888 155.443 319.888C149.387 319.888 144.477 324.795 144.477 330.848C144.477 336.901 149.387 341.808 155.443 341.808Z" fill="#B9D4DB"/>
<path d="M163.4 307.62C166.541 307.62 169.086 305.076 169.086 301.937C169.086 298.798 166.541 296.254 163.4 296.254C160.26 296.254 157.714 298.798 157.714 301.937C157.714 305.076 160.26 307.62 163.4 307.62Z" fill="#B9D4DB"/>
<path d="M185.919 340.185C190.405 340.185 194.042 336.55 194.042 332.066C194.042 327.582 190.405 323.947 185.919 323.947C181.433 323.947 177.796 327.582 177.796 332.066C177.796 336.55 181.433 340.185 185.919 340.185Z" fill="#B9D4DB"/>
<path d="M144.666 192.923C151.872 192.923 157.714 187.085 157.714 179.882C157.714 172.68 151.872 166.842 144.666 166.842C137.461 166.842 131.619 172.68 131.619 179.882C131.619 187.085 137.461 192.923 144.666 192.923Z" fill="#B9D4DB"/>
<path d="M119.734 177.386C123.488 177.386 126.531 174.345 126.531 170.593C126.531 166.842 123.488 163.801 119.734 163.801C115.981 163.801 112.938 166.842 112.938 170.593C112.938 174.345 115.981 177.386 119.734 177.386Z" fill="#B9D4DB"/>
<path d="M125.977 151.421C128.142 151.421 129.898 149.667 129.898 147.503C129.898 145.339 128.142 143.585 125.977 143.585C123.812 143.585 122.056 145.339 122.056 147.503C122.056 149.667 123.812 151.421 125.977 151.421Z" fill="#B9D4DB"/>
<path d="M147.678 159.668C152.869 159.668 157.076 155.463 157.076 150.276C157.076 145.088 152.869 140.883 147.678 140.883C142.488 140.883 138.281 145.088 138.281 150.276C138.281 155.463 142.488 159.668 147.678 159.668Z" fill="#B9D4DB"/>
<path d="M371.451 129.677C378.657 129.677 384.498 123.838 384.498 116.636C384.498 109.434 378.657 103.596 371.451 103.596C364.245 103.596 358.403 109.434 358.403 116.636C358.403 123.838 364.245 129.677 371.451 129.677Z" fill="#B9D4DB"/>
<path d="M392.212 106.796C395.965 106.796 399.008 103.755 399.008 100.004C399.008 96.2521 395.965 93.2109 392.212 93.2109C388.458 93.2109 385.416 96.2521 385.416 100.004C385.416 103.755 388.458 106.796 392.212 106.796Z" fill="#B9D4DB"/>
<path d="M418.174 143.157C421.422 143.157 424.056 140.524 424.056 137.277C424.056 134.031 421.422 131.398 418.174 131.398C414.925 131.398 412.292 134.031 412.292 137.277C412.292 140.524 414.925 143.157 418.174 143.157Z" fill="#B9D4DB"/>
<path d="M408.848 121.116C411.013 121.116 412.768 119.361 412.768 117.197C412.768 115.034 411.013 113.279 408.848 113.279C406.682 113.279 404.927 115.034 404.927 117.197C404.927 119.361 406.682 121.116 408.848 121.116Z" fill="#B9D4DB"/>
<path d="M395.34 143.792C400.53 143.792 404.738 139.587 404.738 134.4C404.738 129.212 400.53 125.007 395.34 125.007C390.15 125.007 385.942 129.212 385.942 134.4C385.942 139.587 390.15 143.792 395.34 143.792Z" fill="#B9D4DB"/>
</svg>
