<svg width="45" height="45" viewBox="0 0 45 45" fill="none" xmlns="http://www.w3.org/2000/svg">
<rect x="0.638672" y="0.5" width="43.5029" height="43.5029" stroke="#30B0C7"/>
<path d="M11.9596 38.9399L29.6912 22.2513L38.0355 30.5956M11.9596 38.9399H32.8203C36.2767 38.9399 39.0786 36.138 39.0786 32.6817V22.2513M11.9596 38.9399C8.50331 38.9399 5.70142 36.138 5.70142 32.6817V11.821C5.70142 8.36464 8.50331 5.56274 11.9596 5.56274H25.5191M30.7343 9.8089L35.0008 5.56274M35.0008 5.56274L39.0786 9.61696M35.0008 5.56274V15.9931M18.2178 14.9501C18.2178 16.6782 16.8169 18.0792 15.0887 18.0792C13.3606 18.0792 11.9596 16.6782 11.9596 14.9501C11.9596 13.2219 13.3606 11.821 15.0887 11.821C16.8169 11.821 18.2178 13.2219 18.2178 14.9501Z" stroke="#30B0C7" stroke-width="2" stroke-linecap="round" stroke-linejoin="round"/>
</svg>
