<svg width="23" height="22" viewBox="0 0 23 22" fill="none" xmlns="http://www.w3.org/2000/svg">
<path d="M12.1265 19.0209C17.0581 19.0209 21.064 15.015 21.064 10.0834C21.064 5.15171 17.0581 1.14587 12.1265 1.14587C7.1948 1.14587 3.18896 5.15171 3.18896 10.0834C3.18896 15.015 7.1948 19.0209 12.1265 19.0209ZM12.1265 2.52087C16.2973 2.52087 19.689 5.91254 19.689 10.0834C19.689 14.2542 16.2973 17.6459 12.1265 17.6459C7.95563 17.6459 4.56396 14.2542 4.56396 10.0834C4.56396 5.91254 7.95563 2.52087 12.1265 2.52087Z" fill="#1A1E25"/>
<path d="M3.73012 20.8908C3.80346 20.8908 3.87679 20.8817 3.94096 20.8725C4.37179 20.8175 5.15096 20.5242 5.59096 19.2133C5.82012 18.5258 5.73762 17.8383 5.36179 17.3158C4.98596 16.7933 4.35346 16.5 3.62929 16.5C2.69429 16.5 1.96096 16.8575 1.63096 17.49C1.30096 18.1225 1.39262 18.9292 1.91512 19.7083C2.56596 20.6892 3.27179 20.8908 3.73012 20.8908ZM4.28012 18.7825C4.12429 19.2592 3.90429 19.4975 3.75762 19.5158C3.61096 19.5342 3.33596 19.36 3.05179 18.9475C2.78596 18.5533 2.76762 18.2692 2.83179 18.1408C2.89596 18.0125 3.15262 17.875 3.62929 17.875C3.91346 17.875 4.12429 17.9667 4.24346 18.1225C4.35346 18.2783 4.37179 18.5167 4.28012 18.7825Z" fill="#1A1E25"/>
</svg>
