<svg width="25" height="26" viewBox="0 0 25 26" fill="none" xmlns="http://www.w3.org/2000/svg">
<path d="M8.47656 1.82812H3.51562C2.1875 1.82812 1.09375 2.92188 1.09375 4.25V9.21094C1.09375 10.5391 2.1875 11.6328 3.51562 11.6328H8.47656C9.80469 11.6328 10.8984 10.5391 10.8984 9.21094V4.28906C10.9375 2.92187 9.84375 1.82812 8.47656 1.82812ZM9.17969 9.25C9.17969 9.64062 8.86719 9.95312 8.47656 9.95312H3.51562C3.125 9.95312 2.8125 9.64062 2.8125 9.25V4.28906C2.8125 3.89844 3.125 3.58594 3.51562 3.58594H8.47656C8.86719 3.58594 9.17969 3.89844 9.17969 4.28906V9.25Z" fill="#555E67"/>
<path d="M21.4844 1.82812H16.5234C15.1953 1.82812 14.1016 2.92188 14.1016 4.25V9.21094C14.1016 10.5391 15.1953 11.6328 16.5234 11.6328H21.4844C22.8125 11.6328 23.9062 10.5391 23.9062 9.21094V4.28906C23.9062 2.92187 22.8125 1.82812 21.4844 1.82812ZM22.1875 9.25C22.1875 9.64062 21.875 9.95312 21.4844 9.95312H16.5234C16.1328 9.95312 15.8203 9.64062 15.8203 9.25V4.28906C15.8203 3.89844 16.1328 3.58594 16.5234 3.58594H21.4844C21.875 3.58594 22.1875 3.89844 22.1875 4.28906V9.25Z" fill="#555E67"/>
<path d="M8.47656 14.2891H3.51562C2.1875 14.2891 1.09375 15.3828 1.09375 16.7109V21.6719C1.09375 23 2.1875 24.0938 3.51562 24.0938H8.47656C9.80469 24.0938 10.8984 23 10.8984 21.6719V16.75C10.9375 15.3828 9.84375 14.2891 8.47656 14.2891ZM9.17969 21.7109C9.17969 22.1016 8.86719 22.4141 8.47656 22.4141H3.51562C3.125 22.4141 2.8125 22.1016 2.8125 21.7109V16.75C2.8125 16.3594 3.125 16.0469 3.51562 16.0469H8.47656C8.86719 16.0469 9.17969 16.3594 9.17969 16.75V21.7109Z" fill="#555E67"/>
<path d="M21.4844 14.2891H16.5234C15.1953 14.2891 14.1016 15.3828 14.1016 16.7109V21.6719C14.1016 23 15.1953 24.0938 16.5234 24.0938H21.4844C22.8125 24.0938 23.9062 23 23.9062 21.6719V16.75C23.9062 15.3828 22.8125 14.2891 21.4844 14.2891ZM22.1875 21.7109C22.1875 22.1016 21.875 22.4141 21.4844 22.4141H16.5234C16.1328 22.4141 15.8203 22.1016 15.8203 21.7109V16.75C15.8203 16.3594 16.1328 16.0469 16.5234 16.0469H21.4844C21.875 16.0469 22.1875 16.3594 22.1875 16.75V21.7109Z" fill="#555E67"/>
</svg>
