<svg width="26" height="26" viewBox="0 0 26 26" fill="none" xmlns="http://www.w3.org/2000/svg">
<g clip-path="url(#clip0_258_4199)">
<path d="M10.7903 7.66529C11.3763 7.07924 12.1712 6.75 13 6.75C13.4315 6.75 13.7812 6.40022 13.7812 5.96875C13.7812 5.53728 13.4315 5.1875 13 5.1875C11.7568 5.1875 10.5645 5.68136 9.68544 6.56044C8.80636 7.43951 8.3125 8.6318 8.3125 9.875C8.3125 10.3065 8.66228 10.6562 9.09375 10.6562C9.52522 10.6562 9.875 10.3065 9.875 9.875C9.875 9.0462 10.2042 8.25134 10.7903 7.66529Z" fill="#555E67"/>
<path fill-rule="evenodd" clip-rule="evenodd" d="M5.1875 9.875C5.1875 5.56028 8.68528 2.0625 13 2.0625C17.3147 2.0625 20.8125 5.56028 20.8125 9.875V11.9737C20.8125 13.4241 21.3887 14.8151 22.4143 15.8407L23.251 16.6774C23.6906 17.117 23.9375 17.7131 23.9375 18.3347V19.25C23.9375 20.1129 23.2379 20.8125 22.375 20.8125H3.625C2.76206 20.8125 2.0625 20.1129 2.0625 19.25V18.3347C2.0625 17.7131 2.30943 17.117 2.74897 16.6774L3.58574 15.8407C4.61133 14.8151 5.1875 13.4241 5.1875 11.9737V9.875ZM13 3.625C9.54822 3.625 6.75 6.42322 6.75 9.875V11.9737C6.75 13.8385 6.00921 15.6269 4.69059 16.9455L3.85382 17.7823C3.70731 17.9288 3.625 18.1275 3.625 18.3347V19.25H22.375V18.3347C22.375 18.1275 22.2927 17.9288 22.1462 17.7823L21.3094 16.9455C19.9908 15.6269 19.25 13.8385 19.25 11.9737V9.875C19.25 6.42322 16.4518 3.625 13 3.625Z" fill="#555E67"/>
<path d="M13 25.5C10.8426 25.5 9.09375 23.7511 9.09375 21.5938H10.6562C10.6562 22.8882 11.7056 23.9375 13 23.9375C14.2944 23.9375 15.3438 22.8882 15.3438 21.5938H16.9062C16.9062 23.7511 15.1574 25.5 13 25.5Z" fill="#555E67"/>
</g>
<defs>
<clipPath id="clip0_258_4199">
<rect width="25" height="25" fill="white" transform="translate(0.5 0.5)"/>
</clipPath>
</defs>
</svg>
