<svg width="26" height="26" viewBox="0 0 26 26" fill="none" xmlns="http://www.w3.org/2000/svg">
<path d="M9.01562 14.875C11.7109 14.875 13.8594 12.6875 13.8594 10.0312C13.8594 7.375 11.6719 5.1875 9.01562 5.1875C6.35937 5.1875 4.17188 7.33594 4.17188 10.0312C4.17188 12.7266 6.35937 14.875 9.01562 14.875ZM9.01562 6.90625C10.7344 6.90625 12.1016 8.3125 12.1016 9.99219C12.1016 11.6719 10.6953 13.0781 9.01562 13.0781C7.29687 13.0781 5.92969 11.6719 5.92969 9.99219C5.92969 8.3125 7.29687 6.90625 9.01562 6.90625Z" fill="#555E67"/>
<path d="M9.01562 16.0859C6.20312 16.0859 3.50781 17.2187 1.4375 19.3281C1.08594 19.6797 1.08594 20.2266 1.4375 20.5781C1.59375 20.7344 1.82812 20.8516 2.0625 20.8516C2.29688 20.8516 2.53125 20.7734 2.6875 20.5781C4.40625 18.8203 6.67187 17.8438 9.01562 17.8438C11.3203 17.8438 13.5859 18.8203 15.3438 20.5781C15.6953 20.9297 16.2422 20.9297 16.5938 20.5781C16.9453 20.2266 16.9453 19.6797 16.5938 19.3281C14.5234 17.2578 11.8281 16.0859 9.01562 16.0859Z" fill="#555E67"/>
<path d="M18.9765 14.875C20.539 14.875 21.828 13.5859 21.828 12.0234C21.828 10.4609 20.539 9.17188 18.9765 9.17188C17.414 9.17188 16.1249 10.4609 16.1249 12.0234C16.0858 13.5859 17.3749 14.875 18.9765 14.875ZM18.9765 10.8906C19.6015 10.8906 20.0702 11.3984 20.0702 11.9844C20.0702 12.6094 19.5624 13.0781 18.9765 13.0781C18.3905 13.0781 17.8827 12.5703 17.8827 11.9844C17.8436 11.3984 18.3515 10.8906 18.9765 10.8906Z" fill="#555E67"/>
<path d="M24.5234 18.3125C22.4531 16.3985 19.6015 15.6172 16.75 16.3594C16.2812 16.4766 16.0078 16.9453 16.125 17.4141C16.2422 17.8828 16.75 18.1563 17.1797 18.0391C19.4453 17.4531 21.7109 18.0391 23.3125 19.5625C23.4687 19.7188 23.7031 19.7969 23.8984 19.7969C24.1328 19.7969 24.3672 19.7188 24.5234 19.5235C24.914 19.211 24.875 18.6641 24.5234 18.3125Z" fill="#555E67"/>
</svg>
