<svg width="24" height="25" viewBox="0 0 24 25" fill="none" xmlns="http://www.w3.org/2000/svg">
<path d="M4.60147 16.9759L3.78077 16.4046L3.78077 16.4046L4.60147 16.9759ZM5.69156 13.6034L4.69156 13.5922V13.6034H5.69156ZM5.71444 11.5643L6.71444 11.5755V11.5643H5.71444ZM19.4065 16.9923L20.2382 16.4371L20.2382 16.4371L19.4065 16.9923ZM18.3575 13.6034L17.3575 13.5916V13.6034H18.3575ZM18.3803 11.6653L19.3803 11.6771V11.6653H18.3803ZM10.124 19.8691C9.69173 19.5253 9.06264 19.5971 8.71889 20.0293C8.37513 20.4616 8.44688 21.0907 8.87914 21.4344L10.124 19.8691ZM15.123 21.4344C15.5553 21.0907 15.6271 20.4616 15.2833 20.0293C14.9395 19.5971 14.3105 19.5253 13.8782 19.8691L15.123 21.4344ZM3.06525 6.52391C2.86902 7.04016 3.12845 7.61774 3.6447 7.81396C4.16095 8.01019 4.73853 7.75076 4.93475 7.23451L3.06525 6.52391ZM7.31024 4.36947C7.79043 4.09665 7.95854 3.48621 7.68572 3.00601C7.41289 2.52582 6.80245 2.35771 6.32226 2.63053L7.31024 4.36947ZM17.6674 2.64511C17.1902 2.36706 16.578 2.52849 16.2999 3.00567C16.0219 3.48286 16.1833 4.0951 16.6605 4.37315L17.6674 2.64511ZM19.0616 7.2157C19.2526 7.73393 19.8274 7.99928 20.3457 7.80837C20.8639 7.61746 21.1293 7.04258 20.9384 6.52434L19.0616 7.2157ZM4.60147 16.9759L5.42217 17.5473C6.05994 16.6312 6.69156 15.2668 6.69156 13.6034H5.69156H4.69156C4.69156 14.7544 4.25239 15.7271 3.78077 16.4046L4.60147 16.9759ZM5.69156 13.6034L6.6915 13.6146L6.71438 11.5755L5.71444 11.5643L4.7145 11.5531L4.69162 13.5922L5.69156 13.6034ZM19.4065 16.9923L20.2382 16.4371C19.7861 15.7599 19.3575 14.7752 19.3575 13.6034H18.3575H17.3575C17.3575 15.2653 17.9626 16.6305 18.5748 17.5476L19.4065 16.9923ZM18.3575 13.6034L19.3574 13.6152L19.3803 11.6771L18.3803 11.6653L17.3804 11.6535L17.3575 13.5916L18.3575 13.6034ZM18.3803 11.6653H19.3803C19.3803 7.35267 16.1569 3.70465 12.0011 3.70465V4.70465V5.70465C14.8917 5.70465 17.3803 8.28945 17.3803 11.6653H18.3803ZM19.0248 17.9373V18.9373C19.7934 18.9373 20.2235 18.358 20.3798 17.9573C20.5415 17.5428 20.5787 16.9471 20.2382 16.4371L19.4065 16.9923L18.5748 17.5475C18.5161 17.4596 18.5023 17.3805 18.5001 17.3374C18.4979 17.2948 18.5047 17.2608 18.5166 17.2305C18.5276 17.2023 18.5569 17.1419 18.6309 17.0786C18.7124 17.0087 18.8498 16.9373 19.0248 16.9373V17.9373ZM5.71444 11.5643H6.71444C6.71444 8.24421 9.16167 5.70465 12.0011 5.70465V4.70465V3.70465C7.89647 3.70465 4.71444 7.30743 4.71444 11.5643H5.71444ZM4.97833 17.9373V16.9373C5.15701 16.9373 5.29585 17.0114 5.37667 17.082C5.44973 17.1458 5.47746 17.2054 5.48736 17.2315C5.49812 17.26 5.50459 17.2925 5.50192 17.3344C5.49923 17.3768 5.48455 17.4577 5.42217 17.5473L4.60147 16.9759L3.78077 16.4046C3.4243 16.9166 3.45904 17.5224 3.61677 17.9393C3.76862 18.3406 4.19715 18.9373 4.97833 18.9373V17.9373ZM19.0248 17.9373V16.9373H4.97833V17.9373V18.9373H19.0248V17.9373ZM12.0011 21.5V20.5C11.2633 20.5 10.6076 20.2536 10.124 19.8691L9.50157 20.6517L8.87914 21.4344C9.72218 22.1048 10.8183 22.5 12.0011 22.5V21.5ZM14.5006 20.6517L13.8782 19.8691C13.3946 20.2536 12.7389 20.5 12.0011 20.5V21.5V22.5C13.1839 22.5 14.28 22.1048 15.123 21.4344L14.5006 20.6517ZM4 6.87921L4.93475 7.23451C5.40847 5.98821 6.24648 4.97384 7.31024 4.36947L6.81625 3.5L6.32226 2.63053C4.81302 3.488 3.6867 4.88893 3.06525 6.52391L4 6.87921ZM17.1639 3.50913L16.6605 4.37315C17.7588 5.01314 18.6172 6.00924 19.0616 7.2157L20 6.87002L20.9384 6.52434C20.3274 4.86602 19.1526 3.51052 17.6674 2.64511L17.1639 3.50913Z" fill="#F9A000"/>
</svg>
