<svg width="42" height="41" viewBox="0 0 42 41" fill="none" xmlns="http://www.w3.org/2000/svg">
<path d="M23.3113 7.62349H19.852C19.2113 7.62349 18.6988 7.17505 18.6988 6.59849C18.6988 6.02192 19.2113 5.57349 19.852 5.57349H24.977C25.7457 5.57349 26.4504 4.93286 26.4504 4.10005C26.4504 3.26724 25.8098 2.62661 24.977 2.62661H23.5035V2.56255C23.5035 1.7938 22.8629 1.08911 22.0301 1.08911C21.2613 1.08911 20.5566 1.72974 20.5566 2.56255V2.62661H19.7879C17.5457 2.62661 15.752 4.42036 15.752 6.53442C15.752 8.64849 17.5457 10.4422 19.7879 10.4422H23.2473C23.8879 10.4422 24.4004 10.8907 24.4004 11.4672C24.4004 12.0438 23.8879 12.4922 23.2473 12.4922H17.4816C16.7129 12.4922 16.0082 13.1329 16.0082 13.9657C16.0082 14.7985 16.6488 15.4391 17.4816 15.4391H20.6207V15.5032C20.6207 16.2719 21.2613 16.9766 22.0941 16.9766C22.8629 16.9766 23.5676 16.336 23.5676 15.5032V15.4391C25.6816 15.375 27.4113 13.6454 27.4113 11.5313C27.3473 9.35317 25.5535 7.62349 23.3113 7.62349Z" fill="#F9A000"/>
<path d="M9.66641 22.6141H7.03984C5.56641 22.6141 4.28516 23.8313 4.28516 25.3688V37.1563C4.28516 38.6298 5.50234 39.911 7.03984 39.911H9.66641C11.1398 39.911 12.4211 38.6938 12.4211 37.1563V25.3688C12.357 23.8313 11.1398 22.6141 9.66641 22.6141ZM9.47422 37.0282H7.16797V25.4969H9.47422V37.0282Z" fill="#F9A000"/>
<path d="M22.6703 18.9625H20.0437C18.5703 18.9625 17.2891 20.1797 17.2891 21.6531V37.1563C17.2891 38.6297 18.5062 39.911 20.0437 39.911H22.6703C24.1437 39.911 25.425 38.6938 25.425 37.1563V21.7172C25.3609 20.1797 24.1437 18.9625 22.6703 18.9625ZM22.4781 37.0281H20.1719V21.8453H22.4781V37.0281Z" fill="#F9A000"/>
<path d="M35.6117 22.6141H32.9852C31.5117 22.6141 30.2305 23.8313 30.2305 25.3688V37.1563C30.2305 38.6298 31.4477 39.911 32.9852 39.911H35.6117C37.0852 39.911 38.3664 38.6938 38.3664 37.1563V25.3688C38.3664 23.8313 37.1492 22.6141 35.6117 22.6141ZM35.4836 37.0282H33.1773V25.4969H35.4836V37.0282Z" fill="#F9A000"/>
</svg>
