<svg width="41" height="41" viewBox="0 0 41 41" fill="none" xmlns="http://www.w3.org/2000/svg">
<path d="M35.8758 8.45622H28.7008V4.93279C28.7008 3.07498 27.1633 1.53748 25.3055 1.53748H15.632C13.7742 1.53748 12.2367 3.07498 12.2367 4.93279V8.45622H5.12578C2.94766 8.45622 1.08984 10.25 1.08984 12.4922V35.4265C1.08984 37.6047 2.88359 39.4625 5.12578 39.4625H35.8758C38.0539 39.4625 39.9117 37.6687 39.9117 35.4265V12.4922C39.8477 10.25 38.0539 8.45622 35.8758 8.45622ZM15.1836 4.93279C15.1836 4.67654 15.3758 4.48435 15.632 4.48435H25.3055C25.5617 4.48435 25.818 4.67654 25.818 4.99685V8.52029H15.1836V4.93279ZM36.9648 35.4265C36.9648 36.0672 36.4523 36.5797 35.8117 36.5797H5.12578C4.48516 36.5797 3.97266 36.0672 3.97266 35.4265V12.4922C3.97266 11.8515 4.48516 11.339 5.12578 11.339H35.8758C36.5164 11.339 37.0289 11.8515 37.0289 12.4922V35.4265H36.9648Z" fill="#215F83"/>
</svg>
