<svg width="38" height="41" viewBox="0 0 38 41" fill="none" xmlns="http://www.w3.org/2000/svg">
<path d="M34.3901 7.32143H23.8368V2.92857C23.8355 2.1525 23.5571 1.40718 23.0625 0.858072C22.5691 0.310428 21.8976 0.00146488 21.1985 0H2.73013C2.03097 0.00146488 1.35952 0.308965 0.864829 0.858072C0.370142 1.40718 0.0931166 2.1525 0.0917969 2.92857V38.0714C0.0931166 38.8475 0.37146 39.5928 0.864829 40.1405C1.35952 40.6896 2.03097 40.9985 2.73013 41H34.3901C35.0893 40.9985 35.7594 40.6896 36.2541 40.1405C36.7488 39.5914 37.0272 38.8475 37.0285 38.0714V10.25C37.0272 9.47393 36.7488 8.72861 36.2541 8.1795C35.7608 7.63186 35.0893 7.32289 34.3901 7.32143ZM14.6026 38.0714H9.32597V30.75H14.6026V38.0714ZM21.1985 38.0714H17.241V30.75C17.2397 29.9739 16.9613 29.2286 16.4666 28.681C15.9733 28.1319 15.3018 27.8229 14.6026 27.8214H9.32597C8.62681 27.8229 7.95535 28.1319 7.46067 28.681C6.9673 29.2286 6.68895 29.9739 6.68763 30.75V38.0714H2.73013L2.72881 2.92857H21.1985V38.0714ZM34.3901 38.0714H23.8368V10.25H34.3901V38.0714ZM30.4326 20.5C30.4326 20.7899 30.3548 21.0725 30.2097 21.3141C30.0659 21.5543 29.8588 21.7417 29.6187 21.853C29.3773 21.9643 29.1122 21.9921 28.8562 21.9365C28.6003 21.8794 28.3655 21.7402 28.1808 21.5352C27.9961 21.3302 27.8708 21.0696 27.8194 20.7855C27.7692 20.5015 27.7943 20.2071 27.8946 19.9392C27.9948 19.6727 28.1637 19.4428 28.38 19.2832C28.5977 19.1221 28.8523 19.0357 29.1135 19.0357C29.4631 19.0357 29.7994 19.1895 30.0461 19.4648C30.2941 19.7386 30.4326 20.112 30.4326 20.5ZM27.7943 14.6429C27.7943 14.3529 27.8721 14.0703 28.0173 13.8287C28.161 13.5886 28.3681 13.4011 28.6082 13.2899C28.8496 13.1786 29.1148 13.1508 29.3707 13.2064C29.6266 13.2635 29.8614 13.4026 30.0461 13.6076C30.2308 13.8126 30.3561 14.0733 30.4076 14.3573C30.4577 14.6414 30.4326 14.9357 30.3324 15.2037C30.2321 15.4702 30.0633 15.7001 29.8469 15.8597C29.6293 16.0208 29.3747 16.1071 29.1135 16.1071C28.7639 16.1071 28.4275 15.9534 28.1808 15.6781C27.9328 15.4043 27.7943 15.0309 27.7943 14.6429ZM17.241 20.5C17.241 20.7899 17.1631 21.0725 17.018 21.3141C16.8742 21.5543 16.6671 21.7417 16.427 21.853C16.1856 21.9643 15.9205 21.9921 15.6646 21.9365C15.4086 21.8794 15.1738 21.7402 14.9892 21.5352C14.8045 21.3302 14.6791 21.0696 14.6277 20.7855C14.5776 20.5015 14.6026 20.2071 14.7029 19.9392C14.8032 19.6727 14.972 19.4428 15.1883 19.2832C15.406 19.1221 15.6606 19.0357 15.9218 19.0357C16.2714 19.0357 16.6078 19.1895 16.8545 19.4648C17.1025 19.7386 17.241 20.112 17.241 20.5ZM17.241 14.6429C17.241 14.9328 17.1631 15.2154 17.018 15.457C16.8742 15.6971 16.6671 15.8846 16.427 15.9959C16.1856 16.1071 15.9205 16.135 15.6646 16.0793C15.4086 16.0222 15.1738 15.8831 14.9892 15.6781C14.8045 15.4731 14.6791 15.2125 14.6277 14.9284C14.5776 14.6443 14.6026 14.35 14.7029 14.082C14.8032 13.8155 14.972 13.5856 15.1883 13.426C15.406 13.265 15.6606 13.1786 15.9218 13.1786C16.2714 13.1786 16.6078 13.3323 16.8545 13.6076C17.1025 13.8814 17.241 14.2548 17.241 14.6429ZM17.241 8.78571C17.241 9.07564 17.1631 9.35825 17.018 9.59986C16.8742 9.84 16.6671 10.0274 16.427 10.1387C16.1856 10.25 15.9205 10.2778 15.6646 10.2222C15.4086 10.1651 15.1738 10.026 14.9892 9.82096C14.8045 9.61596 14.6791 9.35532 14.6277 9.07125C14.5776 8.78718 14.6026 8.49286 14.7029 8.22489C14.8032 7.95839 14.972 7.7285 15.1883 7.56889C15.406 7.40782 15.6606 7.32143 15.9218 7.32143C16.2714 7.32143 16.6078 7.47518 16.8545 7.75046C17.1025 8.02429 17.241 8.39768 17.241 8.78571ZM9.32597 20.5C9.32597 20.7899 9.24814 21.0725 9.10303 21.3141C8.95924 21.5543 8.75213 21.7417 8.51204 21.853C8.27063 21.9643 8.00548 21.9921 7.74956 21.9365C7.49364 21.8794 7.25883 21.7402 7.07415 21.5352C6.88947 21.3302 6.76414 21.0696 6.7127 20.7855C6.66257 20.5015 6.68763 20.2071 6.78789 19.9392C6.88815 19.6727 7.057 19.4428 7.27334 19.2832C7.49101 19.1221 7.74561 19.0357 8.0068 19.0357C8.35638 19.0357 8.69277 19.1895 8.93945 19.4648C9.18746 19.7386 9.32597 20.112 9.32597 20.5ZM9.32597 14.6429C9.32597 14.9328 9.24814 15.2154 9.10303 15.457C8.95924 15.6971 8.75213 15.8846 8.51204 15.9959C8.27063 16.1071 8.00548 16.135 7.74956 16.0793C7.49364 16.0222 7.25883 15.8831 7.07415 15.6781C6.88947 15.4731 6.76414 15.2125 6.7127 14.9284C6.66257 14.6443 6.68763 14.35 6.78789 14.082C6.88815 13.8155 7.057 13.5856 7.27334 13.426C7.49101 13.265 7.74561 13.1786 8.0068 13.1786C8.35638 13.1786 8.69277 13.3323 8.93945 13.6076C9.18746 13.8814 9.32597 14.2548 9.32597 14.6429ZM9.32597 8.78571C9.32597 9.07564 9.24814 9.35825 9.10303 9.59986C8.95924 9.84 8.75213 10.0274 8.51204 10.1387C8.27063 10.25 8.00548 10.2778 7.74956 10.2222C7.49364 10.1651 7.25883 10.026 7.07415 9.82096C6.88947 9.61596 6.76414 9.35532 6.7127 9.07125C6.66257 8.78718 6.68763 8.49286 6.78789 8.22489C6.88815 7.95839 7.057 7.7285 7.27334 7.56889C7.49101 7.40782 7.74561 7.32143 8.0068 7.32143C8.35638 7.32143 8.69277 7.47518 8.93945 7.75046C9.18746 8.02429 9.32597 8.39768 9.32597 8.78571Z" fill="#2790A3"/>
</svg>
