<svg width="41" height="41" viewBox="0 0 41 41" fill="none" xmlns="http://www.w3.org/2000/svg">
<path d="M6.91797 18.0656C6.98203 18.0656 6.98203 18.0656 7.04609 18.0656L21.1398 17.6171C21.268 18.0015 21.6523 18.3218 22.0367 18.4499L23.7664 18.9624C23.8305 21.0765 25.6242 22.8062 27.7383 22.8062H30.8773C33.0555 22.8062 34.8492 21.0124 34.8492 18.8343C34.8492 15.6953 34.7852 10.7624 34.7852 10.7624C34.7852 10.5062 34.7211 3.77963 27.6742 1.21713C27.2258 1.08901 26.7133 1.08901 26.3289 1.40932C25.9445 1.66557 25.6883 2.11401 25.6883 2.56244V7.87963L25.2398 8.39213H22.293C21.5242 8.39213 20.8836 9.03276 20.8836 9.80151V10.314L6.91797 9.80151C5.82891 9.73744 4.80391 10.1859 3.97109 10.8906C3.20234 11.6593 2.75391 12.6843 2.75391 13.7734V14.0296C2.75391 15.1187 3.20234 16.1437 3.97109 16.9124C4.93203 17.6171 5.89297 18.0656 6.91797 18.0656ZM23.9586 11.2749H26.1367C26.5852 11.2749 26.9695 11.0828 27.2258 10.7624L28.443 9.35307C28.6992 9.09682 28.8273 8.77651 28.8273 8.39213V4.86869C32.0305 7.04682 32.0945 10.5062 32.0945 10.6984C32.0945 10.6984 32.1586 15.5671 32.1586 18.7703C32.1586 19.4109 31.6461 19.8593 31.0695 19.8593H27.9305C27.2898 19.8593 26.8414 19.3468 26.8414 18.7703V17.8734C26.8414 17.2328 26.393 16.6562 25.8164 16.464L24.0867 15.9515V11.2749H23.9586ZM5.82891 13.7734C5.82891 13.4531 5.95703 13.1968 6.14922 12.9406C6.34141 12.7484 6.66172 12.6203 6.98203 12.6203L21.0117 13.1328V14.6703L6.91797 15.1187C6.59766 15.1187 6.34141 14.9906 6.08516 14.7984C5.89297 14.6062 5.76484 14.2859 5.76484 13.9656V13.7734H5.82891Z" fill="#215F83"/>
<path d="M36.5148 30.3015H30.9414V28.5078H33.0555C33.8242 28.5078 34.4648 27.8672 34.4648 27.0984C34.4648 26.3297 33.8242 25.689 33.0555 25.689H26.5211C25.7523 25.689 25.1117 26.3297 25.1117 27.0984C25.1117 27.8672 25.7523 28.5078 26.5211 28.5078H27.9945V30.3015H12.8758V26.7781H14.7336C15.5023 26.7781 16.143 26.1375 16.143 25.3687C16.143 24.6 15.5023 23.9594 14.7336 23.9594H8.26328C7.49453 23.9594 6.85391 24.6 6.85391 25.3687C6.85391 26.1375 7.49453 26.7781 8.26328 26.7781H9.99297V30.3015H4.48359C2.62578 30.3015 1.15234 31.839 1.15234 33.6328V36.5156C1.15234 38.3734 2.68984 39.8468 4.48359 39.8468H36.5148C38.3727 39.8468 39.8461 38.3093 39.8461 36.5156V33.6968C39.8461 31.839 38.3727 30.3015 36.5148 30.3015ZM36.9633 36.5156C36.9633 36.7718 36.7711 37.0281 36.4508 37.0281H4.48359C4.22734 37.0281 3.97109 36.8359 3.97109 36.5156V33.6968C3.97109 33.4406 4.16328 33.1843 4.48359 33.1843H36.5148C36.7711 33.1843 37.0273 33.3765 37.0273 33.6968V36.5156H36.9633Z" fill="#215F83"/>
</svg>
