<svg width="43" height="43" viewBox="0 0 43 43" fill="none" xmlns="http://www.w3.org/2000/svg">
<mask id="path-1-inside-1_1549_10815" fill="white">
<path d="M29.109 8.93881C29.109 9.04359 29.1076 9.14837 29.1062 9.25315L29.1047 9.37463V9.39285V9.41107L29.1118 9.81044V9.82411V9.83778L29.1514 10.5606L29.1542 10.6396L29.1754 10.717C29.4624 11.8468 30.0802 12.8277 31.0825 13.5293C32.0085 14.1762 33.2243 14.5573 34.7327 14.6454V16.1654C32.8256 16.0591 31.3229 15.5246 30.2046 14.7137L29.1019 13.9135V15.3424V19.9815V20.7407H29.8088H31.2225C31.4473 20.7407 31.6565 20.8561 31.7894 21.046L31.8558 21.1599L41.7405 40.8809C41.978 41.3531 41.6952 41.9226 41.2202 41.9924L41.1 42H1.53464C1.0356 42 0.70197 41.4624 0.870202 40.9811L0.922509 40.8626L10.8086 21.1401C10.9245 20.9093 11.1139 20.7817 11.3217 20.7499L11.3755 20.7407H26.9814H27.6882V19.9815L27.691 15.3439V13.915L26.5884 14.7137C25.4701 15.5246 23.9688 16.0591 22.0617 16.1654V14.6454C23.5093 14.5604 24.6855 14.2066 25.5959 13.6067C26.6647 12.9037 27.3221 11.8923 27.6189 10.717L27.6373 10.6471L27.643 10.5758L27.6642 10.2964V10.2842V10.2721L27.6826 9.82867V9.80741L27.6882 9.43689V9.42474L27.691 7.76956V6.11133L26.5219 7.19404C25.4164 8.21752 23.9419 8.8887 22.0617 9.02385V7.50078C23.5093 7.37626 24.6996 6.86604 25.62 6.00656C26.6788 5.01648 27.3108 3.63007 27.609 2.04474L27.6119 2.03107L27.6147 2.01741L27.643 1.82152L27.6458 1.80937V1.79874C27.6698 1.60589 27.6854 1.40544 27.691 1.21715V1.18526V1.15489L27.6854 1.03493V1H29.1019V1.328H29.109C29.1161 1.48744 29.1302 1.64689 29.1486 1.79874V1.80937L29.1514 1.82152L29.1811 2.01741L29.1839 2.03107L29.1853 2.04474C29.4723 3.57541 30.0703 4.92081 31.067 5.9033C31.9986 6.822 33.2257 7.3717 34.7327 7.50078V9.02385C32.8511 8.8887 31.3752 8.21448 30.2696 7.191L29.1019 6.10678V7.76652V8.26459V8.93881H29.109ZM10.7237 27.5209L9.39344 27.161L3.28057 39.3623L2.71792 40.4815H3.9026H10.0169H10.7237V39.7222V27.5209ZM38.7519 40.48H39.9337L39.3725 39.3608L31.0005 22.6571L30.7998 22.2577H30.3785L13.7985 22.2593H12.6139L13.1737 23.3784L21.5471 40.0821L21.7478 40.4815H22.1705L38.7519 40.48ZM13.4663 27.1656L12.1374 27.5255V39.7222V40.4815H12.8443H18.96H20.1418L19.5806 39.3623L13.4663 27.1656ZM10.0169 4.03704C12.7496 4.03704 14.9649 6.41656 14.9649 9.35185C14.9649 12.2871 12.7496 14.6667 10.0169 14.6667C7.28419 14.6667 5.06891 12.2871 5.06891 9.35185C5.06891 6.41656 7.28419 4.03704 10.0169 4.03704ZM10.0169 5.55556C8.06455 5.55556 6.48262 7.25478 6.48262 9.35185C6.48262 11.4489 8.06455 13.1481 10.0169 13.1481C11.9692 13.1481 13.5511 11.4489 13.5511 9.35185C13.5511 7.25478 11.9692 5.55556 10.0169 5.55556Z"/>
</mask>
<path d="M29.109 8.93881C29.109 9.04359 29.1076 9.14837 29.1062 9.25315L29.1047 9.37463V9.39285V9.41107L29.1118 9.81044V9.82411V9.83778L29.1514 10.5606L29.1542 10.6396L29.1754 10.717C29.4624 11.8468 30.0802 12.8277 31.0825 13.5293C32.0085 14.1762 33.2243 14.5573 34.7327 14.6454V16.1654C32.8256 16.0591 31.3229 15.5246 30.2046 14.7137L29.1019 13.9135V15.3424V19.9815V20.7407H29.8088H31.2225C31.4473 20.7407 31.6565 20.8561 31.7894 21.046L31.8558 21.1599L41.7405 40.8809C41.978 41.3531 41.6952 41.9226 41.2202 41.9924L41.1 42H1.53464C1.0356 42 0.70197 41.4624 0.870202 40.9811L0.922509 40.8626L10.8086 21.1401C10.9245 20.9093 11.1139 20.7817 11.3217 20.7499L11.3755 20.7407H26.9814H27.6882V19.9815L27.691 15.3439V13.915L26.5884 14.7137C25.4701 15.5246 23.9688 16.0591 22.0617 16.1654V14.6454C23.5093 14.5604 24.6855 14.2066 25.5959 13.6067C26.6647 12.9037 27.3221 11.8923 27.6189 10.717L27.6373 10.6471L27.643 10.5758L27.6642 10.2964V10.2842V10.2721L27.6826 9.82867V9.80741L27.6882 9.43689V9.42474L27.691 7.76956V6.11133L26.5219 7.19404C25.4164 8.21752 23.9419 8.8887 22.0617 9.02385V7.50078C23.5093 7.37626 24.6996 6.86604 25.62 6.00656C26.6788 5.01648 27.3108 3.63007 27.609 2.04474L27.6119 2.03107L27.6147 2.01741L27.643 1.82152L27.6458 1.80937V1.79874C27.6698 1.60589 27.6854 1.40544 27.691 1.21715V1.18526V1.15489L27.6854 1.03493V1H29.1019V1.328H29.109C29.1161 1.48744 29.1302 1.64689 29.1486 1.79874V1.80937L29.1514 1.82152L29.1811 2.01741L29.1839 2.03107L29.1853 2.04474C29.4723 3.57541 30.0703 4.92081 31.067 5.9033C31.9986 6.822 33.2257 7.3717 34.7327 7.50078V9.02385C32.8511 8.8887 31.3752 8.21448 30.2696 7.191L29.1019 6.10678V7.76652V8.26459V8.93881H29.109ZM10.7237 27.5209L9.39344 27.161L3.28057 39.3623L2.71792 40.4815H3.9026H10.0169H10.7237V39.7222V27.5209ZM38.7519 40.48H39.9337L39.3725 39.3608L31.0005 22.6571L30.7998 22.2577H30.3785L13.7985 22.2593H12.6139L13.1737 23.3784L21.5471 40.0821L21.7478 40.4815H22.1705L38.7519 40.48ZM13.4663 27.1656L12.1374 27.5255V39.7222V40.4815H12.8443H18.96H20.1418L19.5806 39.3623L13.4663 27.1656ZM10.0169 4.03704C12.7496 4.03704 14.9649 6.41656 14.9649 9.35185C14.9649 12.2871 12.7496 14.6667 10.0169 14.6667C7.28419 14.6667 5.06891 12.2871 5.06891 9.35185C5.06891 6.41656 7.28419 4.03704 10.0169 4.03704ZM10.0169 5.55556C8.06455 5.55556 6.48262 7.25478 6.48262 9.35185C6.48262 11.4489 8.06455 13.1481 10.0169 13.1481C11.9692 13.1481 13.5511 11.4489 13.5511 9.35185C13.5511 7.25478 11.9692 5.55556 10.0169 5.55556Z" fill="#2790A3" stroke="#2790A3" stroke-width="2" mask="url(#path-1-inside-1_1549_10815)"/>
<path d="M29.109 8.93881C29.109 9.04359 29.1076 9.14837 29.1062 9.25315L29.1047 9.37463V9.39285V9.41107L29.1118 9.81044V9.82411V9.83778L29.1514 10.5606L29.1542 10.6396L29.1754 10.717C29.4624 11.8468 30.0802 12.8277 31.0825 13.5293C32.0085 14.1762 33.2243 14.5573 34.7327 14.6454V16.1654C32.8256 16.0591 31.3229 15.5246 30.2046 14.7137L29.1019 13.9135V15.3424V19.9815V20.7407H29.8088H31.2225C31.4473 20.7407 31.6565 20.8561 31.7894 21.046L31.8558 21.1599L41.7405 40.8809C41.978 41.3531 41.6952 41.9226 41.2202 41.9924L41.1 42H1.53464C1.0356 42 0.70197 41.4624 0.870202 40.9811L0.922509 40.8626L10.8086 21.1401C10.9245 20.9093 11.1139 20.7817 11.3217 20.7499L11.3755 20.7407H26.9814H27.6882V19.9815L27.691 15.3439V13.915L26.5884 14.7137C25.4701 15.5246 23.9688 16.0591 22.0617 16.1654V14.6454C23.5093 14.5604 24.6855 14.2066 25.5959 13.6067C26.6647 12.9037 27.3221 11.8923 27.6189 10.717L27.6373 10.6471L27.643 10.5758L27.6642 10.2964V10.2842V10.2721L27.6826 9.82867V9.80741L27.6882 9.43689V9.42474L27.691 7.76956V6.11133L26.5219 7.19404C25.4164 8.21752 23.9419 8.8887 22.0617 9.02385V7.50078C23.5093 7.37626 24.6996 6.86604 25.62 6.00656C26.6788 5.01648 27.3108 3.63007 27.609 2.04474L27.6119 2.03107L27.6147 2.01741L27.643 1.82152L27.6458 1.80937V1.79874C27.6698 1.60589 27.6854 1.40544 27.691 1.21715V1.18526V1.15489L27.6854 1.03493V1H29.1019V1.328H29.109C29.1161 1.48744 29.1302 1.64689 29.1486 1.79874V1.80937L29.1514 1.82152L29.1811 2.01741L29.1839 2.03107L29.1853 2.04474C29.4723 3.57541 30.0703 4.92081 31.067 5.9033C31.9986 6.822 33.2257 7.3717 34.7327 7.50078V9.02385C32.8511 8.8887 31.3752 8.21448 30.2696 7.191L29.1019 6.10678V7.76652V8.26459V8.93881H29.109ZM10.7237 27.5209L9.39344 27.161L3.28057 39.3623L2.71792 40.4815H3.9026H10.0169H10.7237V39.7222V27.5209ZM38.7519 40.48H39.9337L39.3725 39.3608L31.0005 22.6571L30.7998 22.2577H30.3785L13.7985 22.2593H12.6139L13.1737 23.3784L21.5471 40.0821L21.7478 40.4815H22.1705L38.7519 40.48ZM13.4663 27.1656L12.1374 27.5255V39.7222V40.4815H12.8443H18.96H20.1418L19.5806 39.3623L13.4663 27.1656ZM10.0169 4.03704C12.7496 4.03704 14.9649 6.41656 14.9649 9.35185C14.9649 12.2871 12.7496 14.6667 10.0169 14.6667C7.28419 14.6667 5.06891 12.2871 5.06891 9.35185C5.06891 6.41656 7.28419 4.03704 10.0169 4.03704ZM10.0169 5.55556C8.06455 5.55556 6.48262 7.25478 6.48262 9.35185C6.48262 11.4489 8.06455 13.1481 10.0169 13.1481C11.9692 13.1481 13.5511 11.4489 13.5511 9.35185C13.5511 7.25478 11.9692 5.55556 10.0169 5.55556Z" fill="#2790A3" stroke="#2790A3"/>
</svg>
