<svg width="41" height="41" viewBox="0 0 41 41" fill="none" xmlns="http://www.w3.org/2000/svg">
<path d="M27.3764 35.1416L27.3769 29.6515C27.3771 26.6189 24.9188 24.1603 21.8862 24.1603H9.5909C6.55873 24.1603 4.10057 26.6182 4.10023 29.6504L4.09961 35.1416M36.8991 35.1419L36.8996 29.6518C36.8999 26.6192 34.4415 24.1606 31.4089 24.1606M26.3188 6.93669C27.6671 7.93715 28.541 9.54103 28.541 11.349C28.541 13.157 27.6671 14.7609 26.3188 15.7613M21.3432 11.3487C21.3432 14.3811 18.8849 16.8394 15.8525 16.8394C12.8201 16.8394 10.3618 14.3811 10.3618 11.3487C10.3618 8.31629 12.8201 5.85803 15.8525 5.85803C18.8849 5.85803 21.3432 8.31629 21.3432 11.3487Z" stroke="#215F83" stroke-width="3" stroke-linecap="round" stroke-linejoin="round"/>
</svg>
