<svg width="15" height="16" viewBox="0 0 15 16" fill="none" xmlns="http://www.w3.org/2000/svg">
<path d="M9.375 3.0343V1.7843V3.0343ZM9.375 3.0343V4.2843V3.0343ZM9.375 3.0343H6.5625H9.375ZM1.875 6.7843V12.4093C1.875 12.7408 2.0067 13.0588 2.24112 13.2932C2.47554 13.5276 2.79348 13.6593 3.125 13.6593H11.875C12.2065 13.6593 12.5245 13.5276 12.7589 13.2932C12.9933 13.0588 13.125 12.7408 13.125 12.4093V6.7843H1.875Z" stroke="#252B5C" stroke-width="1.6" stroke-linecap="round" stroke-linejoin="round"/>
<path d="M1.875 6.7843V4.2843C1.875 3.95278 2.0067 3.63484 2.24112 3.40042C2.47554 3.166 2.79348 3.0343 3.125 3.0343H4.375" stroke="#252B5C" stroke-width="1.6" stroke-linecap="round" stroke-linejoin="round"/>
<path d="M4.375 1.7843V4.2843" stroke="#252B5C" stroke-width="1.6" stroke-linecap="round" stroke-linejoin="round"/>
<path d="M13.125 6.7843V4.2843C13.125 3.95278 12.9933 3.63484 12.7589 3.40042C12.5245 3.166 12.2065 3.0343 11.875 3.0343H11.5625" stroke="#252B5C" stroke-width="1.6" stroke-linecap="round" stroke-linejoin="round"/>
</svg>
