<svg width="35" height="35" viewBox="0 0 35 35" fill="none" xmlns="http://www.w3.org/2000/svg">
<rect width="35" height="35" rx="5" fill="#7BAFF2" fill-opacity="0.83"/>
<g clip-path="url(#clip0_362_6584)">
<path d="M25.55 6H9.45C7.54462 6 6 7.54462 6 9.45V25.55C6 27.4554 7.54462 29 9.45 29H25.55C27.4554 29 29 27.4554 29 25.55V9.45C29 7.54462 27.4554 6 25.55 6Z" fill="#1877F2"/>
<path d="M21.9742 20.8242L22.4863 17.5H19.2969V15.3438C19.2969 14.4363 19.7416 13.5469 21.1701 13.5469H22.6211V10.7168C22.6211 10.7168 21.3049 10.4922 20.0471 10.4922C17.4191 10.4922 15.7031 12.0824 15.7031 14.9664V17.5H12.7832V20.8242H15.7031V29H19.2969V20.8242H21.9742Z" fill="white"/>
</g>
<defs>
<clipPath id="clip0_362_6584">
<rect width="23" height="23" fill="white" transform="translate(6 6)"/>
</clipPath>
</defs>
</svg>
