<svg width="35" height="35" viewBox="0 0 35 35" fill="none" xmlns="http://www.w3.org/2000/svg">
<rect width="35" height="35" rx="5" fill="#FFE6E2"/>
<rect x="6.5" y="6.5" width="22" height="23" rx="3.2" stroke="#FC573B"/>
<path d="M23.25 18C23.25 21.3137 20.6756 24 17.5 24C14.3244 24 11.75 21.3137 11.75 18C11.75 14.6863 14.3244 12 17.5 12C20.6756 12 23.25 14.6863 23.25 18ZM13.6092 18C13.6092 20.2423 15.3512 22.06 17.5 22.06C19.6488 22.06 21.3908 20.2423 21.3908 18C21.3908 15.7577 19.6488 13.94 17.5 13.94C15.3512 13.94 13.6092 15.7577 13.6092 18Z" fill="#FD907E"/>
<ellipse cx="23.7295" cy="11.5" rx="1.4375" ry="1.5" fill="#FD907E"/>
</svg>
