<svg width="31" height="33" viewBox="0 0 31 33" fill="none" xmlns="http://www.w3.org/2000/svg">
<path d="M15.4377 1.11768C8.93298 1.11768 3.65381 6.51768 3.65381 13.1677C3.65381 18.2177 9.96995 26.2177 13.6937 30.5177C14.165 31.0677 14.7778 31.3177 15.4377 31.3177C16.0976 31.3177 16.7103 31.0177 17.1817 30.5177C20.9054 26.2177 27.2215 18.2177 27.2215 13.1677C27.2215 6.51768 21.9424 1.11768 15.4377 1.11768ZM15.6262 29.0177C15.5319 29.1177 15.3905 29.1177 15.2491 29.0177C10.677 23.7177 5.7749 16.8177 5.7749 13.1677C5.7749 7.76768 10.1114 3.36768 15.4377 3.36768C20.764 3.36768 25.1004 7.76768 25.1004 13.1677C25.1004 16.8177 20.1983 23.7177 15.6262 29.0177Z" fill="#555E67"/>
<path d="M15.4376 8.06787C12.6094 8.06787 10.2998 10.5179 10.2998 13.5179C10.2998 16.5179 12.6094 19.0179 15.4376 19.0179C18.2657 19.0179 20.5753 16.5679 20.5753 13.5679C20.5753 10.5679 18.2657 8.06787 15.4376 8.06787ZM15.4376 16.7679C13.7407 16.7679 12.4209 15.3179 12.4209 13.5679C12.4209 11.8179 13.7878 10.3679 15.4376 10.3679C17.0873 10.3679 18.4542 11.8179 18.4542 13.5679C18.4542 15.3179 17.1344 16.7679 15.4376 16.7679Z" fill="#555E67"/>
</svg>
