<svg width="36" height="36" viewBox="0 0 36 36" fill="none" xmlns="http://www.w3.org/2000/svg">
<path d="M12.8997 12.7966L16.6885 5.16656C16.7988 4.94574 16.9684 4.76002 17.1783 4.63021C17.3882 4.5004 17.6302 4.43164 17.877 4.43164C18.1238 4.43164 18.3658 4.5004 18.5757 4.63021C18.7856 4.76002 18.9553 4.94574 19.0656 5.16656L22.8543 12.7966L31.3243 14.0274C31.5686 14.0613 31.7985 14.1631 31.9877 14.3214C32.1768 14.4797 32.3177 14.6879 32.3942 14.9224C32.4707 15.1569 32.4797 15.4082 32.4202 15.6475C32.3608 15.8869 32.2352 16.1047 32.0578 16.2761L25.9299 22.2116L27.3766 30.597C27.5618 31.6732 26.4243 32.4928 25.4516 31.9853L17.877 28.0245L10.301 31.9853C9.32972 32.4943 8.19222 31.6732 8.37743 30.5955L9.8241 22.2101L3.69618 16.2747C3.5197 16.1031 3.39489 15.8855 3.33592 15.6466C3.27696 15.4077 3.2862 15.157 3.36262 14.923C3.43903 14.6891 3.57954 14.4813 3.76818 14.3232C3.95682 14.1651 4.18602 14.0631 4.42972 14.0288L12.8997 12.7966Z" fill="#FFC42D"/>
</svg>
