<svg width="172" height="162" viewBox="0 0 172 162" fill="none" xmlns="http://www.w3.org/2000/svg">
<path d="M156.668 108.774C166.673 90.8421 162.643 66.985 144.834 53.088C135.084 45.49 122.287 43.0491 112.714 35.1165C101.962 26.1996 91.3274 15.3733 77.2922 11.9877C62.3724 8.38548 45.939 13.7199 35.5601 24.9398C22.9009 38.5809 24.1786 57.7728 29.8398 74.4846C44.2092 116.845 100.723 150.308 142.121 124.029C148.51 119.975 153.365 114.699 156.668 108.774Z" fill="#CCE9FF"/>
<path d="M157.867 46.0804C157.867 47.2418 156.982 48.1669 155.881 48.1669H154.545V53.0486L149.886 48.1669H134.593C133.492 48.1669 132.607 47.2418 132.607 46.0804V28.66C132.607 27.4986 133.492 26.5735 134.593 26.5735H155.862C156.963 26.5735 157.847 27.5183 157.847 28.66V46.0804H157.867Z" fill="#FFBE55"/>
<path d="M123.31 54.643C123.31 55.8044 124.194 56.7296 125.295 56.7296H126.632V61.6112L131.29 56.7296H146.584C147.684 56.7296 148.569 55.8044 148.569 54.643V37.2226C148.569 36.0613 147.684 35.1361 146.584 35.1361H125.295C124.194 35.1361 123.31 36.0809 123.31 37.2226V54.643Z" fill="#2A94F4"/>
<path d="M109.962 92.3183L112.439 90.5074L112.694 90.153L112.242 89.6413L111.653 89.7987L111.495 88.1059L108.586 88.0272L107.053 87.5941L109.097 91.9246L109.962 92.3183Z" fill="#FFE3CA"/>
<path d="M115.073 74.7601L107.072 87.3776C107.072 87.3776 107.682 88.9721 108.33 87.9878C108.409 87.8697 107.878 87.6139 108.429 87.2202C110.63 85.6454 114.522 82.87 116.311 80.6654C118.67 77.7718 118.768 73.894 118.768 73.894L115.073 74.7601Z" fill="#FFE3CA"/>
<path d="M111.574 86.1573L108.665 84.2479L110.886 81.2166L113.796 83.1062L111.574 86.1573Z" fill="white"/>
<path d="M106.247 60.1743L114.463 70.9415L109.234 83.0275C109.234 83.0275 112.694 86.2557 113.441 85.4486C119.554 78.8742 121.677 70.5281 121.677 70.5281L111.161 53.3242C111.161 53.3242 109.962 50.6078 107.564 51.0605C102.728 51.966 105.657 59.0129 106.247 60.1743Z" fill="#0E538C"/>
<path d="M87.6508 144.324C87.4543 144.56 87.5722 145.19 87.5722 145.19C87.5722 145.19 90.9925 145.643 92.113 145.426C92.4079 145.367 92.8993 145.131 93.3514 144.875C93.43 144.836 93.5676 144.58 93.6463 144.521C93.7839 144.442 93.8625 144.58 93.9804 144.501C94.2949 144.324 94.5112 144.166 94.5112 144.147C94.8453 142.592 94.4719 141.942 94.4719 141.942C94.4719 141.942 91.5823 140.899 91.0122 141.568C89.6755 143.143 88.0833 143.812 87.6508 144.324ZM105.539 142.395L105.873 144.954L108.487 145.091C108.487 145.091 108.645 144.737 108.881 144.757C109.057 144.776 109.274 145.131 109.529 145.15C110.08 145.19 110.689 145.21 110.925 145.229C111.416 145.249 116.154 145.524 116.154 145.524C116.154 145.524 116.311 144.993 116.173 144.796C116.114 144.698 115.682 144.501 115.387 144.402C114.07 143.95 110.276 142.552 109.686 141.253C108.979 139.678 105.539 142.395 105.539 142.395Z" fill="#0B4870"/>
<path d="M100.055 78.7166L90.6591 78.5001C90.6591 78.5001 89.3028 84.2282 89.1848 89.0705C89.0079 95.9599 88.89 102.771 89.0276 107.003C88.8703 107.672 88.8113 108.361 88.8507 109.03C89.1455 114.128 90.4232 141.194 90.4232 141.194C90.4232 141.194 94.4923 141.666 94.5512 141.174C95.5144 133.064 96.6742 119.974 96.6939 114.994C96.7135 113.439 96.7725 111.884 96.8511 110.428C97.4998 107.928 100.055 78.7166 100.055 78.7166Z" fill="#0B4870"/>
<path d="M111.004 142.099L108.036 112.18C108.036 112.16 108.056 112.16 108.056 112.16L106.916 82.5747L94.3154 81.7283C94.3154 81.7283 95.1017 83.5392 96.7922 91.3341C96.7922 91.3341 98.8169 107.121 100.96 115.27C100.999 115.447 101.058 115.585 101.097 115.742C101.726 123.872 105.284 143.556 105.284 143.556L111.004 142.099Z" fill="#0B4870"/>
<path d="M72.9867 62.1033C72.9867 62.1033 69.1732 59.0916 63.7282 52.8518C61.8804 50.7456 62.7846 53.0289 63.0991 55.6666C63.4136 58.3043 68.5442 63.5402 74.1661 65.0165C79.788 66.4928 72.9867 62.1033 72.9867 62.1033Z" fill="#FFE3CA"/>
<path d="M64.1606 54.5052C64.1606 54.5052 65.0255 51.6707 64.5734 50.9621C64.1213 50.2535 62.2931 47.793 62.2931 47.793L61.7624 47.2025C61.7624 47.2025 60.8189 47.4387 62.0573 49.0921C63.2957 50.7456 62.2735 50.2732 62.2735 50.2732L60.6026 49.2299L58.4403 48.1079L57.5558 47.478C57.5558 47.478 57.084 47.0844 56.8874 47.0844C56.337 47.104 56.5533 47.5371 56.5533 47.5371L59.836 50.2732L56.1601 48.6C56.1601 48.6 55.649 48.4622 55.4918 48.6984C55.3345 48.915 55.4918 48.9937 55.4918 48.9937L59.2266 51.907L57.2216 51.2574C57.2216 51.2574 56.7302 51.1393 56.5533 51.3558C56.3763 51.592 56.3174 51.6511 56.3174 51.6511L63.6691 55.2139L64.1606 54.5052Z" fill="#FFE3CA"/>
<path d="M64.0428 58.2649L62.2344 55.9028L65.2812 53.7375L67.0897 56.0996L64.0428 58.2649Z" fill="white"/>
<path d="M95.789 54.6824C95.789 54.6824 96.2805 56.9067 87.8279 65.8827C83.1102 70.9021 80.4958 73.3232 78.1566 72.2013C73.3799 69.9179 62.0967 59.2294 62.0967 59.2294L66.5195 54.1903C66.5195 54.1903 77.213 62.7923 78.8642 63.6977C79.5522 64.0717 83.8178 57.9697 88.1621 51.7889C88.9483 50.6472 95.219 54.0722 95.789 54.6824Z" fill="#0E538C"/>
<path d="M88.752 52.6746L94.9833 49.3479L99.6617 48.3047L102.296 49.7023C102.296 49.7023 107.78 52.8517 108.33 52.8517C108.881 52.8517 108.154 82.2204 108.154 82.2204L94.0987 82.6928L88.9878 83.1062L88.752 52.6746Z" fill="white"/>
<path d="M92.9387 91.5507L92.8208 55.4698L94.8258 49.5252C92.2507 49.8401 89.656 50.096 87.8082 52.3597L87.415 88.0863L92.9387 91.5507ZM100.88 49.348L103.003 53.2455L102.59 77.7128L104.281 91.7869L109.588 89.7004L110.551 56.513L108.9 51.0212L100.88 49.348Z" fill="#0E538C"/>
<path d="M92.074 70.843L89.9314 56.6311L91.3664 55.5878L89.8135 54.328L91.1698 50.2141L95.003 48.9937L93.2928 55.4697L92.4475 78.4214L92.074 70.843Z" fill="#0B4870"/>
<path d="M95.2584 52.1038C95.2584 52.1038 93.1157 61.4537 95.0028 78.6182C95.1207 79.7205 96.595 80.3307 96.595 80.3307L98.03 78.5592C98.03 78.5592 96.5164 63.7961 96.3395 53.0683C96.3002 51.7298 95.1994 53.3832 95.2584 52.1038Z" fill="#FFBE55"/>
<path d="M96.0254 51.0408L97.6373 53.1667L100.979 49.5252V48.9149L96.0254 51.0408ZM95.0819 48.7378L93.8828 53.3242L95.475 51.4148L95.0819 48.7378Z" fill="#F2F2F2"/>
<path d="M101.509 45.9426C101.352 46.7103 101.057 48.3244 100.743 49.0133C100.251 50.0763 95.9069 51.0211 95.2582 51.1786C94.5898 51.3361 95.4154 47.9701 95.4154 47.2024C95.4154 46.6119 95.8086 46.8087 95.3368 45.9623H101.509V45.9426Z" fill="#FCD2B1"/>
<path d="M94.1187 44.2499C94.0007 44.8994 94.4725 45.5293 95.1605 45.6277L100.743 46.4938C101.431 46.5923 102.08 46.1592 102.178 45.49L103.495 37.577C103.613 36.9274 103.141 36.2975 102.453 36.1991L96.8707 35.3527C96.1827 35.2542 95.534 35.6873 95.4357 36.3565L94.1187 44.2499Z" fill="#FFE3CA"/>
<path d="M95.1604 38.3445C95.1604 38.3445 94.5314 37.4588 94.4724 36.9667C94.4331 36.7108 94.8262 35.8643 95.5142 35.6085C96.2022 35.3526 96.5954 36.0809 96.5954 36.0809C96.5954 36.0809 95.5142 36.4549 95.4356 36.6517C95.357 36.8486 95.1604 38.3445 95.1604 38.3445Z" fill="#FFBE55"/>
<path d="M103.475 41.2185C103.475 41.2185 104.832 38.3052 104.832 37.3997C104.832 36.4746 104.832 35.8447 103.711 35.5691C102.04 35.1558 101.962 35.5101 101.215 34.8802C100.468 34.27 99.1901 32.833 98.6987 32.6362C97.8731 32.3016 96.4971 32.3803 96.1826 33.896C95.9467 35.018 95.1604 35.1754 95.18 35.2345C95.2194 35.3723 95.5142 35.5691 96.0056 35.9038C97.4406 36.888 98.3448 37.1832 99.5832 37.0651C100.822 36.947 103.141 36.6517 103.259 37.5375C103.377 38.4233 102.846 40.9822 102.905 41.1791C102.964 41.3956 103.259 41.3366 103.475 41.2185Z" fill="#FFBE55"/>
<path d="M101.332 43.3247C101.293 43.5412 101.45 43.7577 101.686 43.7774L102.885 43.9546C103.121 43.994 103.337 43.8365 103.357 43.62L103.711 41.5138C103.75 41.2972 103.593 41.0807 103.357 41.061L102.158 40.8839C101.922 40.8445 101.706 41.002 101.686 41.2185L101.332 43.3247ZM94.1379 42.2224C94.0985 42.4389 94.2558 42.6554 94.4917 42.6751L95.6908 42.8523C95.9267 42.8916 96.1429 42.7342 96.1625 42.5176L96.5164 40.4115C96.5557 40.1949 96.3984 39.9784 96.1625 39.9587L94.9635 39.7816C94.7276 39.7422 94.531 39.8997 94.4917 40.1162L94.1379 42.2224Z" fill="#FFE3CA"/>
<path d="M102.826 41.8286C102.826 41.8286 102.296 44.9387 102.138 45.982C101.981 46.9268 101.234 48.9149 95.6909 48.0685C92.4082 47.5764 92.9193 45.2733 93.0372 44.5253C93.1355 43.9545 94.0987 42.3207 94.5115 42.0451C94.5312 42.0451 94.2953 43.3246 94.2953 43.3246C94.2953 43.3246 95.1799 42.1829 96.7524 42.4191C99.2685 42.8128 99.6027 44.3088 100.723 44.4466C101.588 44.5647 102.453 43.3246 102.826 41.8286Z" fill="#FFBE55"/>
<path d="M97.4403 44.6238L95.7104 44.3679C95.4745 44.3285 95.3173 44.1317 95.3566 43.9152L95.3959 43.679L97.9513 44.0726L97.912 44.3088C97.8924 44.5057 97.6762 44.6632 97.4403 44.6238Z" fill="#FFE3CA"/>
<path d="M95.2388 51.1786L96.025 51.0408L96.5558 52.832L95.514 53.4029L94.708 53.147L95.2388 51.1786Z" fill="#FFBE55"/>
<path d="M100.842 48.6196C100.665 49.1511 102.788 53.4816 102.788 53.4816L102.611 76.2167L106.424 56.8673L105.225 55.3713L106.542 54.1115L104.144 49.6038L100.842 48.6196Z" fill="#0B4870"/>
<path d="M39.7666 25.3531L37.9385 34.5653L36.1104 43.7774C36.1104 43.7774 46.5483 40.5099 58.4212 42.8523L59.2272 38.7974L60.0331 34.7031C48.1798 32.3607 39.7666 25.3531 39.7666 25.3531Z" fill="#F2F2F2"/>
<path d="M56.7694 52.9305L55.7275 52.4384L60.4649 42.3601L63.1186 43.6199L59.0889 52.1628C58.6565 53.1076 57.7129 53.3832 56.7694 52.9305Z" fill="#FFBE55"/>
<mask id="mask0_258_5901" style="mask-type:luminance" maskUnits="userSpaceOnUse" x="55" y="42" width="9" height="12">
<path d="M56.7694 52.9305L55.7275 52.4384L60.4649 42.3601L63.1186 43.6199L59.0889 52.1628C58.6565 53.1076 57.7129 53.3832 56.7694 52.9305Z" fill="white"/>
</mask>
<g mask="url(#mask0_258_5901)">
<path d="M63.0008 42.3601H63.1187V53.3832H63.0008V42.3601ZM62.8828 42.3601H63.0008V53.3832H62.8828V42.3601Z" fill="#FFBE55"/>
</g>
<mask id="mask1_258_5901" style="mask-type:luminance" maskUnits="userSpaceOnUse" x="55" y="42" width="9" height="12">
<path d="M56.7694 52.9305L55.7275 52.4384L60.4649 42.3601L63.1186 43.6199L59.0889 52.1628C58.6565 53.1076 57.7129 53.3832 56.7694 52.9305Z" fill="white"/>
</mask>
<g mask="url(#mask1_258_5901)">
<path d="M62.7646 42.3601H62.8826V53.3832H62.7646V42.3601Z" fill="#FFBE55"/>
</g>
<mask id="mask2_258_5901" style="mask-type:luminance" maskUnits="userSpaceOnUse" x="55" y="42" width="9" height="12">
<path d="M56.7694 52.9305L55.7275 52.4384L60.4649 42.3601L63.1186 43.6199L59.0889 52.1628C58.6565 53.1076 57.7129 53.3832 56.7694 52.9305Z" fill="white"/>
</mask>
<g mask="url(#mask2_258_5901)">
<path d="M62.6668 42.3601H62.7847V53.3832H62.6668V42.3601ZM62.5488 42.3601H62.6668V53.3832H62.5488V42.3601Z" fill="#FFBE55"/>
</g>
<mask id="mask3_258_5901" style="mask-type:luminance" maskUnits="userSpaceOnUse" x="55" y="42" width="9" height="12">
<path d="M56.7694 52.9305L55.7275 52.4384L60.4649 42.3601L63.1186 43.6199L59.0889 52.1628C58.6565 53.1076 57.7129 53.3832 56.7694 52.9305Z" fill="white"/>
</mask>
<g mask="url(#mask3_258_5901)">
<path d="M62.4302 42.3601H62.5482V53.3832H62.4302V42.3601ZM62.3123 42.3601H62.4302V53.3832H62.3123V42.3601ZM62.1943 42.3601H62.3123V53.3832H62.1943V42.3601Z" fill="#FFBE55"/>
</g>
<mask id="mask4_258_5901" style="mask-type:luminance" maskUnits="userSpaceOnUse" x="55" y="42" width="9" height="12">
<path d="M56.7694 52.9305L55.7275 52.4384L60.4649 42.3601L63.1186 43.6199L59.0889 52.1628C58.6565 53.1076 57.7129 53.3832 56.7694 52.9305Z" fill="white"/>
</mask>
<g mask="url(#mask4_258_5901)">
<path d="M62.0967 42.3601H62.2146V53.3832H62.0967V42.3601Z" fill="#FFBE55"/>
</g>
<mask id="mask5_258_5901" style="mask-type:luminance" maskUnits="userSpaceOnUse" x="55" y="42" width="9" height="12">
<path d="M56.7694 52.9305L55.7275 52.4384L60.4649 42.3601L63.1186 43.6199L59.0889 52.1628C58.6565 53.1076 57.7129 53.3832 56.7694 52.9305Z" fill="white"/>
</mask>
<g mask="url(#mask5_258_5901)">
<path d="M61.9783 42.3601H62.0962V53.3832H61.9783V42.3601ZM61.8604 42.3601H61.9783V53.3832H61.8604V42.3601Z" fill="#FFBE55"/>
</g>
<mask id="mask6_258_5901" style="mask-type:luminance" maskUnits="userSpaceOnUse" x="55" y="42" width="9" height="12">
<path d="M56.7694 52.9305L55.7275 52.4384L60.4649 42.3601L63.1186 43.6199L59.0889 52.1628C58.6565 53.1076 57.7129 53.3832 56.7694 52.9305Z" fill="white"/>
</mask>
<g mask="url(#mask6_258_5901)">
<path d="M61.7422 42.3601H61.8601V53.3832H61.7422V42.3601Z" fill="#FFBE55"/>
</g>
<mask id="mask7_258_5901" style="mask-type:luminance" maskUnits="userSpaceOnUse" x="55" y="42" width="9" height="12">
<path d="M56.7694 52.9305L55.7275 52.4384L60.4649 42.3601L63.1186 43.6199L59.0889 52.1628C58.6565 53.1076 57.7129 53.3832 56.7694 52.9305Z" fill="white"/>
</mask>
<g mask="url(#mask7_258_5901)">
<path d="M61.6441 42.3601H61.762V53.3832H61.6441V42.3601ZM61.5261 42.3601H61.6441V53.3832H61.5261V42.3601ZM61.4082 42.3601H61.5261V53.3832H61.4082V42.3601Z" fill="#FFBE55"/>
</g>
<mask id="mask8_258_5901" style="mask-type:luminance" maskUnits="userSpaceOnUse" x="55" y="42" width="9" height="12">
<path d="M56.7694 52.9305L55.7275 52.4384L60.4649 42.3601L63.1186 43.6199L59.0889 52.1628C58.6565 53.1076 57.7129 53.3832 56.7694 52.9305Z" fill="white"/>
</mask>
<g mask="url(#mask8_258_5901)">
<path d="M61.2908 42.3601H61.4087V53.3832H61.2908V42.3601ZM61.1729 42.3601H61.2908V53.3832H61.1729V42.3601Z" fill="#FFBE55"/>
</g>
<mask id="mask9_258_5901" style="mask-type:luminance" maskUnits="userSpaceOnUse" x="55" y="42" width="9" height="12">
<path d="M56.7694 52.9305L55.7275 52.4384L60.4649 42.3601L63.1186 43.6199L59.0889 52.1628C58.6565 53.1076 57.7129 53.3832 56.7694 52.9305Z" fill="white"/>
</mask>
<g mask="url(#mask9_258_5901)">
<path d="M61.0742 42.3601H61.1922V53.3832H61.0742V42.3601Z" fill="#FFBE55"/>
</g>
<mask id="mask10_258_5901" style="mask-type:luminance" maskUnits="userSpaceOnUse" x="55" y="42" width="9" height="12">
<path d="M56.7694 52.9305L55.7275 52.4384L60.4649 42.3601L63.1186 43.6199L59.0889 52.1628C58.6565 53.1076 57.7129 53.3832 56.7694 52.9305Z" fill="white"/>
</mask>
<g mask="url(#mask10_258_5901)">
<path d="M60.9566 42.3601H61.0745V53.3832H60.9566V42.3601ZM60.8386 42.3601H60.9566V53.3832H60.8386V42.3601ZM60.7207 42.3601H60.8386V53.3832H60.7207V42.3601Z" fill="#FFBE55"/>
</g>
<mask id="mask11_258_5901" style="mask-type:luminance" maskUnits="userSpaceOnUse" x="55" y="42" width="9" height="12">
<path d="M56.7694 52.9305L55.7275 52.4384L60.4649 42.3601L63.1186 43.6199L59.0889 52.1628C58.6565 53.1076 57.7129 53.3832 56.7694 52.9305Z" fill="white"/>
</mask>
<g mask="url(#mask11_258_5901)">
<path d="M60.6221 42.3601H60.74V53.3832H60.6221V42.3601Z" fill="#FFBE55"/>
</g>
<mask id="mask12_258_5901" style="mask-type:luminance" maskUnits="userSpaceOnUse" x="55" y="42" width="9" height="12">
<path d="M56.7694 52.9305L55.7275 52.4384L60.4649 42.3601L63.1186 43.6199L59.0889 52.1628C58.6565 53.1076 57.7129 53.3832 56.7694 52.9305Z" fill="white"/>
</mask>
<g mask="url(#mask12_258_5901)">
<path d="M60.5047 42.3601H60.6226V53.3832H60.5047V42.3601ZM60.3867 42.3601H60.5047V53.3832H60.3867V42.3601Z" fill="#FFBE55"/>
</g>
<mask id="mask13_258_5901" style="mask-type:luminance" maskUnits="userSpaceOnUse" x="55" y="42" width="9" height="12">
<path d="M56.7694 52.9305L55.7275 52.4384L60.4649 42.3601L63.1186 43.6199L59.0889 52.1628C58.6565 53.1076 57.7129 53.3832 56.7694 52.9305Z" fill="white"/>
</mask>
<g mask="url(#mask13_258_5901)">
<path d="M60.2683 42.3601H60.3863V53.3832H60.2683V42.3601ZM60.1504 42.3601H60.2683V53.3832H60.1504V42.3601Z" fill="#FFBE55"/>
</g>
<mask id="mask14_258_5901" style="mask-type:luminance" maskUnits="userSpaceOnUse" x="55" y="42" width="9" height="12">
<path d="M56.7694 52.9305L55.7275 52.4384L60.4649 42.3601L63.1186 43.6199L59.0889 52.1628C58.6565 53.1076 57.7129 53.3832 56.7694 52.9305Z" fill="white"/>
</mask>
<g mask="url(#mask14_258_5901)">
<path d="M60.0525 42.3601H60.1705V53.3832H60.0525V42.3601ZM59.9346 42.3601H60.0525V53.3832H59.9346V42.3601Z" fill="#FFBE55"/>
</g>
<mask id="mask15_258_5901" style="mask-type:luminance" maskUnits="userSpaceOnUse" x="55" y="42" width="9" height="12">
<path d="M56.7694 52.9305L55.7275 52.4384L60.4649 42.3601L63.1186 43.6199L59.0889 52.1628C58.6565 53.1076 57.7129 53.3832 56.7694 52.9305Z" fill="white"/>
</mask>
<g mask="url(#mask15_258_5901)">
<path d="M59.8162 42.3601H59.9341V53.3832H59.8162V42.3601ZM59.6982 42.3601H59.8162V53.3832H59.6982V42.3601Z" fill="#FFBE55"/>
</g>
<mask id="mask16_258_5901" style="mask-type:luminance" maskUnits="userSpaceOnUse" x="55" y="42" width="9" height="12">
<path d="M56.7694 52.9305L55.7275 52.4384L60.4649 42.3601L63.1186 43.6199L59.0889 52.1628C58.6565 53.1076 57.7129 53.3832 56.7694 52.9305Z" fill="white"/>
</mask>
<g mask="url(#mask16_258_5901)">
<path d="M59.5801 42.3601H59.698V53.3832H59.5801V42.3601Z" fill="#FFBE55"/>
</g>
<mask id="mask17_258_5901" style="mask-type:luminance" maskUnits="userSpaceOnUse" x="55" y="42" width="9" height="12">
<path d="M56.7694 52.9305L55.7275 52.4384L60.4649 42.3601L63.1186 43.6199L59.0889 52.1628C58.6565 53.1076 57.7129 53.3832 56.7694 52.9305Z" fill="white"/>
</mask>
<g mask="url(#mask17_258_5901)">
<path d="M59.482 42.3601H59.5999V53.3832H59.482V42.3601ZM59.364 42.3601H59.482V53.3832H59.364V42.3601ZM59.2461 42.3601H59.364V53.3832H59.2461V42.3601Z" fill="#FFBE55"/>
</g>
<mask id="mask18_258_5901" style="mask-type:luminance" maskUnits="userSpaceOnUse" x="55" y="42" width="9" height="12">
<path d="M56.7694 52.9305L55.7275 52.4384L60.4649 42.3601L63.1186 43.6199L59.0889 52.1628C58.6565 53.1076 57.7129 53.3832 56.7694 52.9305Z" fill="white"/>
</mask>
<g mask="url(#mask18_258_5901)">
<path d="M59.1287 42.3601H59.2466V53.3832H59.1287V42.3601ZM59.0107 42.3601H59.1287V53.3832H59.0107V42.3601Z" fill="#FFBE55"/>
</g>
<mask id="mask19_258_5901" style="mask-type:luminance" maskUnits="userSpaceOnUse" x="55" y="42" width="9" height="12">
<path d="M56.7694 52.9305L55.7275 52.4384L60.4649 42.3601L63.1186 43.6199L59.0889 52.1628C58.6565 53.1076 57.7129 53.3832 56.7694 52.9305Z" fill="white"/>
</mask>
<g mask="url(#mask19_258_5901)">
<path d="M58.9121 42.3601H59.03V53.3832H58.9121V42.3601Z" fill="#FFBE55"/>
</g>
<mask id="mask20_258_5901" style="mask-type:luminance" maskUnits="userSpaceOnUse" x="55" y="42" width="9" height="12">
<path d="M56.7694 52.9305L55.7275 52.4384L60.4649 42.3601L63.1186 43.6199L59.0889 52.1628C58.6565 53.1076 57.7129 53.3832 56.7694 52.9305Z" fill="white"/>
</mask>
<g mask="url(#mask20_258_5901)">
<path d="M58.7945 42.3601H58.9124V53.3832H58.7945V42.3601ZM58.6765 42.3601H58.7945V53.3832H58.6765V42.3601ZM58.5586 42.3601H58.6765V53.3832H58.5586V42.3601Z" fill="#FFBE55"/>
</g>
<mask id="mask21_258_5901" style="mask-type:luminance" maskUnits="userSpaceOnUse" x="55" y="42" width="9" height="12">
<path d="M56.7694 52.9305L55.7275 52.4384L60.4649 42.3601L63.1186 43.6199L59.0889 52.1628C58.6565 53.1076 57.7129 53.3832 56.7694 52.9305Z" fill="white"/>
</mask>
<g mask="url(#mask21_258_5901)">
<path d="M58.4404 42.3601H58.5584V53.3832H58.4404V42.3601Z" fill="#FFBE55"/>
</g>
<mask id="mask22_258_5901" style="mask-type:luminance" maskUnits="userSpaceOnUse" x="55" y="42" width="9" height="12">
<path d="M56.7694 52.9305L55.7275 52.4384L60.4649 42.3601L63.1186 43.6199L59.0889 52.1628C58.6565 53.1076 57.7129 53.3832 56.7694 52.9305Z" fill="white"/>
</mask>
<g mask="url(#mask22_258_5901)">
<path d="M58.3416 42.3601H58.4595V53.3832H58.3416V42.3601ZM58.2236 42.3601H58.3416V53.3832H58.2236V42.3601Z" fill="#FFBE55"/>
</g>
<mask id="mask23_258_5901" style="mask-type:luminance" maskUnits="userSpaceOnUse" x="55" y="42" width="9" height="12">
<path d="M56.7694 52.9305L55.7275 52.4384L60.4649 42.3601L63.1186 43.6199L59.0889 52.1628C58.6565 53.1076 57.7129 53.3832 56.7694 52.9305Z" fill="white"/>
</mask>
<g mask="url(#mask23_258_5901)">
<path d="M58.1062 42.3601H58.2242V53.3832H58.1062V42.3601ZM57.9883 42.3601H58.1062V53.3832H57.9883V42.3601Z" fill="#FFBE55"/>
</g>
<mask id="mask24_258_5901" style="mask-type:luminance" maskUnits="userSpaceOnUse" x="55" y="42" width="9" height="12">
<path d="M56.7694 52.9305L55.7275 52.4384L60.4649 42.3601L63.1186 43.6199L59.0889 52.1628C58.6565 53.1076 57.7129 53.3832 56.7694 52.9305Z" fill="white"/>
</mask>
<g mask="url(#mask24_258_5901)">
<path d="M57.8894 42.3601H58.0074V53.3832H57.8894V42.3601ZM57.7715 42.3601H57.8894V53.3832H57.7715V42.3601Z" fill="#FFBE55"/>
</g>
<mask id="mask25_258_5901" style="mask-type:luminance" maskUnits="userSpaceOnUse" x="55" y="42" width="9" height="12">
<path d="M56.7694 52.9305L55.7275 52.4384L60.4649 42.3601L63.1186 43.6199L59.0889 52.1628C58.6565 53.1076 57.7129 53.3832 56.7694 52.9305Z" fill="white"/>
</mask>
<g mask="url(#mask25_258_5901)">
<path d="M57.6541 42.3601H57.772V53.3832H57.6541V42.3601ZM57.5361 42.3601H57.6541V53.3832H57.5361V42.3601Z" fill="#FFBE55"/>
</g>
<mask id="mask26_258_5901" style="mask-type:luminance" maskUnits="userSpaceOnUse" x="55" y="42" width="9" height="12">
<path d="M56.7694 52.9305L55.7275 52.4384L60.4649 42.3601L63.1186 43.6199L59.0889 52.1628C58.6565 53.1076 57.7129 53.3832 56.7694 52.9305Z" fill="white"/>
</mask>
<g mask="url(#mask26_258_5901)">
<path d="M57.418 42.3601H57.5359V53.3832H57.418V42.3601Z" fill="#FFBE55"/>
</g>
<mask id="mask27_258_5901" style="mask-type:luminance" maskUnits="userSpaceOnUse" x="55" y="42" width="9" height="12">
<path d="M56.7694 52.9305L55.7275 52.4384L60.4649 42.3601L63.1186 43.6199L59.0889 52.1628C58.6565 53.1076 57.7129 53.3832 56.7694 52.9305Z" fill="white"/>
</mask>
<g mask="url(#mask27_258_5901)">
<path d="M57.3199 42.3601H57.4378V53.3832H57.3199V42.3601ZM57.2019 42.3601H57.3199V53.3832H57.2019V42.3601ZM57.084 42.3601H57.2019V53.3832H57.084V42.3601Z" fill="#FFBE55"/>
</g>
<mask id="mask28_258_5901" style="mask-type:luminance" maskUnits="userSpaceOnUse" x="55" y="42" width="9" height="12">
<path d="M56.7694 52.9305L55.7275 52.4384L60.4649 42.3601L63.1186 43.6199L59.0889 52.1628C58.6565 53.1076 57.7129 53.3832 56.7694 52.9305Z" fill="white"/>
</mask>
<g mask="url(#mask28_258_5901)">
<path d="M56.9656 42.3601H57.0835V53.3832H56.9656V42.3601ZM56.8477 42.3601H56.9656V53.3832H56.8477V42.3601Z" fill="#FFBE55"/>
</g>
<mask id="mask29_258_5901" style="mask-type:luminance" maskUnits="userSpaceOnUse" x="55" y="42" width="9" height="12">
<path d="M56.7694 52.9305L55.7275 52.4384L60.4649 42.3601L63.1186 43.6199L59.0889 52.1628C58.6565 53.1076 57.7129 53.3832 56.7694 52.9305Z" fill="white"/>
</mask>
<g mask="url(#mask29_258_5901)">
<path d="M56.75 42.3601H56.8679V53.3832H56.75V42.3601Z" fill="#FFBE55"/>
</g>
<mask id="mask30_258_5901" style="mask-type:luminance" maskUnits="userSpaceOnUse" x="55" y="42" width="9" height="12">
<path d="M56.7694 52.9305L55.7275 52.4384L60.4649 42.3601L63.1186 43.6199L59.0889 52.1628C58.6565 53.1076 57.7129 53.3832 56.7694 52.9305Z" fill="white"/>
</mask>
<g mask="url(#mask30_258_5901)">
<path d="M56.6314 42.3601H56.7493V53.3832H56.6314V42.3601ZM56.5135 42.3601H56.6314V53.3832H56.5135V42.3601ZM56.3955 42.3601H56.5135V53.3832H56.3955V42.3601Z" fill="#FFBE55"/>
</g>
<mask id="mask31_258_5901" style="mask-type:luminance" maskUnits="userSpaceOnUse" x="55" y="42" width="9" height="12">
<path d="M56.7694 52.9305L55.7275 52.4384L60.4649 42.3601L63.1186 43.6199L59.0889 52.1628C58.6565 53.1076 57.7129 53.3832 56.7694 52.9305Z" fill="white"/>
</mask>
<g mask="url(#mask31_258_5901)">
<path d="M56.2783 42.3601H56.3963V53.3832H56.2783V42.3601Z" fill="#FFBE55"/>
</g>
<mask id="mask32_258_5901" style="mask-type:luminance" maskUnits="userSpaceOnUse" x="55" y="42" width="9" height="12">
<path d="M56.7694 52.9305L55.7275 52.4384L60.4649 42.3601L63.1186 43.6199L59.0889 52.1628C58.6565 53.1076 57.7129 53.3832 56.7694 52.9305Z" fill="white"/>
</mask>
<g mask="url(#mask32_258_5901)">
<path d="M56.1795 42.3601H56.2974V53.3832H56.1795V42.3601ZM56.0615 42.3601H56.1795V53.3832H56.0615V42.3601Z" fill="#FFBE55"/>
</g>
<mask id="mask33_258_5901" style="mask-type:luminance" maskUnits="userSpaceOnUse" x="55" y="42" width="9" height="12">
<path d="M56.7694 52.9305L55.7275 52.4384L60.4649 42.3601L63.1186 43.6199L59.0889 52.1628C58.6565 53.1076 57.7129 53.3832 56.7694 52.9305Z" fill="white"/>
</mask>
<g mask="url(#mask33_258_5901)">
<path d="M55.9439 42.3601H56.0618V53.3832H55.9439V42.3601ZM55.826 42.3601H55.9439V53.3832H55.826V42.3601ZM55.708 42.3601H55.826V53.3832H55.708V42.3601Z" fill="#FFBE55"/>
</g>
<path d="M66.6178 44.5647L56.1602 42.616L57.8507 34.014L68.2296 36.3958L66.6178 44.5647Z" fill="#FFBE55"/>
<mask id="mask34_258_5901" style="mask-type:luminance" maskUnits="userSpaceOnUse" x="56" y="34" width="13" height="11">
<path d="M66.6178 44.5647L56.1602 42.616L57.8507 34.014L68.2296 36.3958L66.6178 44.5647Z" fill="white"/>
</mask>
<g mask="url(#mask34_258_5901)">
<path d="M68.053 34.014H68.2299V44.5647H68.053V34.014ZM67.8564 34.014H68.0334V44.5647H67.8564V34.014Z" fill="#FFBE55"/>
</g>
<mask id="mask35_258_5901" style="mask-type:luminance" maskUnits="userSpaceOnUse" x="56" y="34" width="13" height="11">
<path d="M66.6178 44.5647L56.1602 42.616L57.8507 34.014L68.2296 36.3958L66.6178 44.5647Z" fill="white"/>
</mask>
<g mask="url(#mask35_258_5901)">
<path d="M67.679 34.014H67.8756V44.5647H67.679V34.014ZM67.4824 34.014H67.6594V44.5647H67.4824V34.014ZM67.3055 34.014H67.4824V44.5647H67.3055V34.014ZM67.1286 34.014H67.3055V44.5647H67.1286V34.014ZM66.932 34.014H67.1089V44.5647H66.932V34.014ZM66.7551 34.014H66.932V44.5647H66.7551V34.014ZM66.5586 34.014H66.7355V44.5647H66.5586V34.014ZM66.3816 34.014H66.5586V44.5647H66.3816V34.014ZM66.1851 34.014H66.3816V44.5647H66.1851V34.014ZM66.0081 34.014H66.1851V44.5647H66.0081V34.014ZM65.8116 34.014H65.9885V44.5647H65.8116V34.014ZM65.6347 34.014H65.8116V44.5647H65.6347V34.014ZM65.4381 34.014H65.615V44.5647H65.4381V34.014ZM65.2612 34.014H65.4381V44.5647H65.2612V34.014ZM65.0843 34.014H65.2612V44.5647H65.0843V34.014ZM64.8877 34.014H65.0646V44.5647H64.8877V34.014Z" fill="#FFBE55"/>
</g>
<mask id="mask36_258_5901" style="mask-type:luminance" maskUnits="userSpaceOnUse" x="56" y="34" width="13" height="11">
<path d="M66.6178 44.5647L56.1602 42.616L57.8507 34.014L68.2296 36.3958L66.6178 44.5647Z" fill="white"/>
</mask>
<g mask="url(#mask36_258_5901)">
<path d="M64.7112 34.014H64.9077V44.5647H64.7112V34.014ZM64.5146 34.014H64.6915V44.5647H64.5146V34.014ZM64.3377 34.014H64.5146V44.5647H64.3377V34.014ZM64.1411 34.014H64.318V44.5647H64.1411V34.014ZM63.9642 34.014H64.1411V44.5647H63.9642V34.014ZM63.7676 34.014H63.9445V44.5647H63.7676V34.014ZM63.5907 34.014H63.7676V44.5647H63.5907V34.014ZM63.4138 34.014H63.5907V44.5647H63.4138V34.014ZM63.2172 34.014H63.3941V44.5647H63.2172V34.014ZM63.0403 34.014H63.2172V44.5647H63.0403V34.014ZM62.8438 34.014H63.0207V44.5647H62.8438V34.014Z" fill="#FFBE55"/>
</g>
<mask id="mask37_258_5901" style="mask-type:luminance" maskUnits="userSpaceOnUse" x="56" y="34" width="13" height="11">
<path d="M66.6178 44.5647L56.1602 42.616L57.8507 34.014L68.2296 36.3958L66.6178 44.5647Z" fill="white"/>
</mask>
<g mask="url(#mask37_258_5901)">
<path d="M62.6666 34.014H62.8632V44.5647H62.6666V34.014ZM62.47 34.014H62.6469V44.5647H62.47V34.014ZM62.2931 34.014H62.47V44.5647H62.2931V34.014ZM62.0965 34.014H62.2735V44.5647H62.0965V34.014ZM61.9196 34.014H62.0965V44.5647H61.9196V34.014ZM61.7231 34.014H61.9V44.5647H61.7231V34.014ZM61.5461 34.014H61.7231V44.5647H61.5461V34.014ZM61.3692 34.014H61.5461V44.5647H61.3692V34.014ZM61.1727 34.014H61.3692V44.5647H61.1727V34.014ZM60.9957 34.014H61.1727V44.5647H60.9957V34.014ZM60.7992 34.014H60.9761V44.5647H60.7992V34.014ZM60.6223 34.014H60.7992V44.5647H60.6223V34.014ZM60.4257 34.014H60.6026V44.5647H60.4257V34.014ZM60.2488 34.014H60.4257V44.5647H60.2488V34.014ZM60.0522 34.014H60.2291V44.5647H60.0522V34.014ZM59.8753 34.014H60.0522V44.5647H59.8753V34.014ZM59.6787 34.014H59.8556V44.5647H59.6787V34.014Z" fill="#FFBE55"/>
</g>
<mask id="mask38_258_5901" style="mask-type:luminance" maskUnits="userSpaceOnUse" x="56" y="34" width="13" height="11">
<path d="M66.6178 44.5647L56.1602 42.616L57.8507 34.014L68.2296 36.3958L66.6178 44.5647Z" fill="white"/>
</mask>
<g mask="url(#mask38_258_5901)">
<path d="M59.5019 34.014H59.6984V44.5647H59.5019V34.014ZM59.325 34.014H59.5019V44.5647H59.325V34.014ZM59.1284 34.014H59.3053V44.5647H59.1284V34.014ZM58.9515 34.014H59.1284V44.5647H58.9515V34.014ZM58.7549 34.014H58.9318V44.5647H58.7549V34.014ZM58.578 34.014H58.7549V44.5647H58.578V34.014ZM58.3814 34.014H58.5583V44.5647H58.3814V34.014ZM58.2045 34.014H58.3814V44.5647H58.2045V34.014ZM58.0079 34.014H58.2045V44.5647H58.0079V34.014ZM57.831 34.014H58.0079V44.5647H57.831V34.014ZM57.6344 34.014H57.8114V44.5647H57.6344V34.014ZM57.4575 34.014H57.6344V44.5647H57.4575V34.014ZM57.2806 34.014H57.4575V44.5647H57.2806V34.014ZM57.084 34.014H57.261V44.5647H57.084V34.014ZM56.9071 34.014H57.084V44.5647H56.9071V34.014ZM56.7106 34.014H56.8875V44.5647H56.7106V34.014ZM56.5336 34.014H56.7106V44.5647H56.5336V34.014ZM56.3371 34.014H56.5336V44.5647H56.3371V34.014ZM56.1602 34.014H56.3371V44.5647H56.1602V34.014Z" fill="#FFBE55"/>
</g>
<path d="M51.7969 102.416C59.1249 102.416 65.0655 98.1156 65.0655 92.8104C65.0655 87.5053 59.1249 83.2046 51.7969 83.2046C44.4689 83.2046 38.5283 87.5053 38.5283 92.8104C38.5283 98.1156 44.4689 102.416 51.7969 102.416Z" fill="#2A94F4"/>
<path d="M46.234 108.597C52.5198 108.597 57.6155 104.913 57.6155 100.369C57.6155 95.825 52.5198 92.1412 46.234 92.1412C39.9482 92.1412 34.8525 95.825 34.8525 100.369C34.8525 104.913 39.9482 108.597 46.234 108.597Z" fill="#FFBE55"/>
<path d="M46.5088 107.514H50.3616V112.593L46.5088 107.514Z" fill="#FFBE55"/>
<path d="M53.0156 85.4486H57.5171V79.5237L53.0156 85.4486Z" fill="#2A94F4"/>
<path d="M35.0295 30.6481C34.7936 30.8843 34.4201 30.8843 34.2039 30.6481L29.0537 25.4908C28.8178 25.2546 28.8178 24.8806 29.0537 24.6641C29.2896 24.4279 29.6631 24.4279 29.8793 24.6641L35.0295 29.8213C35.2653 30.0378 35.2653 30.4118 35.0295 30.6481ZM32.6116 38.9154C32.6509 39.2303 32.4151 39.5256 32.0809 39.5649L24.8471 40.3326C24.5325 40.372 24.2377 40.1358 24.1984 39.8012C24.1591 39.4862 24.3949 39.1909 24.7291 39.1516L31.9629 38.3839C32.2775 38.3642 32.5723 38.6004 32.6116 38.9154ZM31.4125 34.2699C31.3143 34.5849 30.9604 34.7423 30.6656 34.6242L23.7856 32.2228C23.4711 32.1244 23.3138 31.77 23.4317 31.4748C23.53 31.1598 23.8839 31.0024 24.1787 31.1205L31.0391 33.5219C31.3536 33.6204 31.5108 33.955 31.4125 34.2699Z" fill="#FFBE55"/>
</svg>
