<svg width="26" height="26" viewBox="0 0 26 26" fill="none" xmlns="http://www.w3.org/2000/svg">
<path d="M24.7188 8.82031L22.9609 3.35156C22.6484 2.33594 21.6719 1.63281 20.6172 1.63281H5.61719C4.5625 1.63281 3.625 2.29687 3.27344 3.27344L1.32031 8.78125C1.24219 9.01563 1.20312 9.25 1.20312 9.52344V21.3594C1.20312 23.0391 2.57031 24.3672 4.21094 24.3672H21.8281C23.5078 24.3672 24.8359 23 24.8359 21.3594V9.48438C24.8359 9.28906 24.7969 9.05469 24.7188 8.82031ZM21.2812 3.89844L22.7266 8.42969H13.8984V3.39062H20.6172C20.8906 3.39062 21.2031 3.58594 21.2812 3.89844ZM4.91406 3.85938C5.03125 3.58594 5.30469 3.39062 5.57812 3.39062H12.1016V8.42969H3.3125L4.91406 3.85938ZM21.7891 22.6094H4.21094C3.50781 22.6094 2.96094 22.0625 2.96094 21.3594V10.1875H23.0781V21.3594C23.0781 22.0625 22.4922 22.6094 21.7891 22.6094Z" fill="#555E67"/>
</svg>
