<svg width="26" height="26" viewBox="0 0 26 26" fill="none" xmlns="http://www.w3.org/2000/svg">
<path d="M22.375 8.3125H17.5703V7.60938C17.5703 5.38281 15.7734 3.58594 13.5469 3.58594H12.4141C10.1875 3.58594 8.39062 5.38281 8.39062 7.60938V8.3125H3.625C2.29688 8.3125 1.16406 9.40625 1.16406 10.7734V19.9922C1.16406 21.3203 2.25781 22.4531 3.625 22.4531H22.375C23.7031 22.4531 24.8359 21.3594 24.8359 19.9922V10.7344C24.8359 9.40625 23.7031 8.3125 22.375 8.3125ZM10.1875 7.60938C10.1875 6.35938 11.2031 5.34375 12.4531 5.34375H13.5859C14.8359 5.34375 15.8516 6.35938 15.8516 7.60938V8.3125H10.1875V7.60938ZM3.625 10.0703H22.375C22.7656 10.0703 23.0781 10.3828 23.0781 10.7734V12.9609H20.7734V12.2188C20.7734 11.75 20.3828 11.3203 19.875 11.3203C19.3672 11.3203 18.9766 11.7109 18.9766 12.2188V12.9609H7.02344V12.2188C7.02344 11.75 6.63281 11.3203 6.125 11.3203C5.61719 11.3203 5.22656 11.7109 5.22656 12.2188V12.9609H2.96094V10.7734C2.96094 10.3828 3.23438 10.0703 3.625 10.0703ZM22.375 20.6562H3.625C3.23438 20.6562 2.92187 20.3438 2.92187 19.9531V14.6797H5.22656V15.4219C5.22656 15.8906 5.61719 16.3203 6.125 16.3203C6.63281 16.3203 7.02344 15.9297 7.02344 15.4219V14.6797H18.9766V15.4219C18.9766 15.8906 19.3672 16.3203 19.875 16.3203C20.3828 16.3203 20.7734 15.9297 20.7734 15.4219V14.6797H23.0781V19.9531C23.0781 20.3438 22.7656 20.6562 22.375 20.6562Z" fill="#555E67"/>
</svg>
