<svg width="26" height="26" viewBox="0 0 26 26" fill="none" xmlns="http://www.w3.org/2000/svg">
<path d="M22.5703 9.13281H11.9062V6.39844C11.9062 5.14844 10.8906 4.13281 9.64062 4.13281H6.4375C5.1875 4.13281 4.17188 5.14844 4.17188 6.39844V9.13281H3.42969C2.17969 9.13281 1.16406 10.1484 1.16406 11.3984V19.6016C1.16406 20.8516 2.17969 21.8672 3.42969 21.8672H22.5312C23.7812 21.8672 24.7969 20.8516 24.7969 19.6016V11.3984C24.8359 10.1484 23.8203 9.13281 22.5703 9.13281ZM5.92969 6.4375C5.92969 6.16406 6.16406 5.92969 6.4375 5.92969H9.64062C9.91406 5.92969 10.1484 6.16406 10.1484 6.4375V12.1797L9.05469 11.3203L8.97656 11.2813C8.42969 10.8906 7.6875 10.8906 7.14062 11.2813L5.96875 12.2188V6.4375H5.92969ZM23.0781 19.5625C23.0781 19.8359 22.8438 20.0703 22.5703 20.0703H3.42969C3.15625 20.0703 2.92188 19.8359 2.92188 19.5625V11.3594C2.92188 11.0859 3.15625 10.8516 3.42969 10.8516H4.17188V12.9219C4.17188 13.4688 4.48438 13.9375 4.95312 14.1719C5.14844 14.25 5.34375 14.3281 5.53906 14.3281C5.85156 14.3281 6.125 14.2109 6.39844 14.0156L8.03906 12.7266L9.64062 14.0156C10.0703 14.3281 10.6172 14.4063 11.0859 14.1719C11.5547 13.9375 11.8672 13.4688 11.8672 12.9219V10.8906H22.5312C22.8047 10.8906 23.0391 11.125 23.0391 11.3984V19.5625H23.0781Z" fill="#555E67"/>
</svg>
