<svg width="26" height="26" viewBox="0 0 26 26" fill="none" xmlns="http://www.w3.org/2000/svg">
<path d="M4.71875 11.5156C4.75781 11.5156 4.75781 11.5156 4.79687 11.5156L13.3906 11.2422C13.4687 11.4765 13.7031 11.6719 13.9375 11.75L14.9922 12.0625C15.0312 13.3515 16.125 14.4062 17.4141 14.4062H19.3281C20.6562 14.4062 21.75 13.3125 21.75 11.9844C21.75 10.0703 21.7109 7.06248 21.7109 7.06248C21.7109 6.90623 21.6719 2.80467 17.375 1.24217C17.1016 1.16404 16.7891 1.16404 16.5547 1.35936C16.3203 1.51561 16.1641 1.78904 16.1641 2.06248V5.30467L15.8906 5.61717H14.0937C13.625 5.61717 13.2344 6.00779 13.2344 6.47654V6.78904L4.71875 6.47654C4.05469 6.43748 3.42969 6.71092 2.92187 7.14061C2.45312 7.60936 2.17969 8.23436 2.17969 8.89842V9.05467C2.17969 9.71873 2.45312 10.3437 2.92187 10.8125C3.50781 11.2422 4.09375 11.5156 4.71875 11.5156ZM15.1094 7.37498H16.4375C16.7109 7.37498 16.9453 7.25779 17.1016 7.06248L17.8438 6.20311C18 6.04686 18.0781 5.85154 18.0781 5.61717V3.46873C20.0312 4.79686 20.0703 6.90623 20.0703 7.02342C20.0703 7.02342 20.1094 9.99217 20.1094 11.9453C20.1094 12.3359 19.7969 12.6094 19.4453 12.6094H17.5312C17.1406 12.6094 16.8672 12.2969 16.8672 11.9453V11.3984C16.8672 11.0078 16.5937 10.6562 16.2422 10.539L15.1875 10.2265V7.37498H15.1094ZM4.05469 8.89842C4.05469 8.70311 4.13281 8.54686 4.25 8.39061C4.36719 8.27342 4.5625 8.19529 4.75781 8.19529L13.3125 8.50779V9.44529L4.71875 9.71873C4.52344 9.71873 4.36719 9.64061 4.21094 9.52342C4.09375 9.40623 4.01562 9.21092 4.01562 9.01561V8.89842H4.05469Z" fill="#555E67"/>
<path d="M22.7656 18.9766H19.3672V17.8828H20.6563C21.125 17.8828 21.5156 17.4922 21.5156 17.0234C21.5156 16.5547 21.125 16.1641 20.6563 16.1641H16.6719C16.2031 16.1641 15.8125 16.5547 15.8125 17.0234C15.8125 17.4922 16.2031 17.8828 16.6719 17.8828H17.5703V18.9766H8.35156V16.8281H9.48438C9.95313 16.8281 10.3438 16.4375 10.3438 15.9687C10.3438 15.5 9.95313 15.1094 9.48438 15.1094H5.53906C5.07031 15.1094 4.67969 15.5 4.67969 15.9687C4.67969 16.4375 5.07031 16.8281 5.53906 16.8281H6.59375V18.9766H3.23438C2.10156 18.9766 1.20312 19.9141 1.20312 21.0078V22.7656C1.20312 23.8984 2.14062 24.7969 3.23438 24.7969H22.7656C23.8984 24.7969 24.7969 23.8594 24.7969 22.7656V21.0469C24.7969 19.9141 23.8984 18.9766 22.7656 18.9766ZM23.0391 22.7656C23.0391 22.9219 22.9219 23.0781 22.7266 23.0781H3.23438C3.07813 23.0781 2.92188 22.9609 2.92188 22.7656V21.0469C2.92188 20.8906 3.03906 20.7344 3.23438 20.7344H22.7656C22.9219 20.7344 23.0781 20.8516 23.0781 21.0469V22.7656H23.0391Z" fill="#555E67"/>
</svg>
