<svg width="26" height="26" viewBox="0 0 26 26" fill="none" xmlns="http://www.w3.org/2000/svg">
<path d="M20.8125 3.27344L13.7422 1.28125C13.2344 1.125 12.6875 1.125 12.1797 1.28125L5.1875 3.27344C3.9375 3.625 3.07812 4.75781 3.07812 6.04687V11.75C3.07812 17.4531 6.55469 22.4922 11.9844 24.6406C12.2969 24.7578 12.6484 24.8359 13 24.8359C13.3516 24.8359 13.7031 24.7578 14.0156 24.6406C19.4062 22.4922 22.8828 17.4531 22.8828 11.75V6.04687C22.9219 4.75781 22.0625 3.625 20.8125 3.27344ZM21.1641 11.75C21.1641 16.7109 18.1172 21.125 13.3906 23C13.1562 23.0781 12.8828 23.0781 12.6484 23C7.92187 21.125 4.875 16.7109 4.875 11.75V6.04687C4.875 5.53906 5.22656 5.10937 5.69531 4.95312L12.6875 3C12.8047 2.96094 12.8828 2.96094 13 2.96094C13.1172 2.96094 13.1953 2.96094 13.3125 3L20.3828 4.99219C20.8516 5.10937 21.2031 5.57812 21.2031 6.08594V11.75H21.1641Z" fill="#555E67"/>
</svg>
