<svg width="26" height="26" viewBox="0 0 26 26" fill="none" xmlns="http://www.w3.org/2000/svg">
<path d="M15.7574 8.625V6.4375C15.7574 5.85734 15.5249 5.30094 15.1113 4.8907C14.6976 4.48047 14.1365 4.25 13.5515 4.25H5.83088C5.24585 4.25 4.68477 4.48047 4.27109 4.8907C3.8574 5.30094 3.625 5.85734 3.625 6.4375V19.5625C3.625 20.1427 3.8574 20.6991 4.27109 21.1093C4.68477 21.5195 5.24585 21.75 5.83088 21.75H13.5515C14.1365 21.75 14.6976 21.5195 15.1113 21.1093C15.5249 20.6991 15.7574 20.1427 15.7574 19.5625V17.375M9.13971 13H22.375M22.375 13L19.0662 9.71875M22.375 13L19.0662 16.2812" stroke="#555E67" stroke-width="2" stroke-linecap="round" stroke-linejoin="round"/>
</svg>
