<svg width="26" height="26" viewBox="0 0 26 26" fill="none" xmlns="http://www.w3.org/2000/svg">
<path d="M17.7456 5.34074C17.7456 5.40463 17.7448 5.46852 17.7439 5.53241L17.743 5.60648V5.61759V5.6287L17.7473 5.87222V5.88056V5.88889L17.7715 6.32963L17.7732 6.37778L17.7861 6.425C17.9611 7.11389 18.3378 7.71204 18.949 8.13981C19.5136 8.53426 20.2549 8.76667 21.1747 8.82037V9.74722C20.0119 9.68241 19.0955 9.35648 18.4137 8.86204L17.7413 8.37407V9.24537V12.0741V12.537H18.1723H19.0343C19.1714 12.537 19.299 12.6074 19.38 12.7231L19.4205 12.7926L25.4477 24.8176C25.5926 25.1056 25.4202 25.4528 25.1305 25.4954L25.0572 25.5H0.931995C0.627703 25.5 0.424267 25.1722 0.526848 24.8787L0.558742 24.8065L6.58682 12.7806C6.65751 12.6398 6.77302 12.562 6.89973 12.5426L6.93249 12.537H16.4483H16.8793V12.0741L16.881 9.2463V8.375L16.2086 8.86204C15.5268 9.35648 14.6113 9.68241 13.4485 9.74722V8.82037C14.3312 8.76852 15.0484 8.55278 15.6035 8.18704C16.2552 7.75833 16.656 7.14167 16.8371 6.425L16.8483 6.38241L16.8517 6.33889L16.8646 6.16852V6.16111V6.1537L16.8758 5.88333V5.87037L16.8793 5.64444V5.63704L16.881 4.62778V3.61667L16.1681 4.27685C15.494 4.90093 14.595 5.31018 13.4485 5.39259V4.46389C14.3312 4.38796 15.057 4.07685 15.6182 3.55278C16.2638 2.94907 16.6491 2.1037 16.831 1.13704L16.8327 1.1287L16.8345 1.12037L16.8517 1.00093L16.8534 0.993519V0.987037C16.8681 0.869445 16.8776 0.747222 16.881 0.632407V0.612963V0.594445L16.8776 0.521296V0.5H17.7413V0.7H17.7456C17.7499 0.797222 17.7586 0.894444 17.7698 0.987037V0.993519L17.7715 1.00093L17.7896 1.12037L17.7913 1.1287L17.7922 1.13704C17.9672 2.07037 18.3318 2.89074 18.9395 3.48981C19.5076 4.05 20.2558 4.38519 21.1747 4.46389V5.39259C20.0274 5.31018 19.1274 4.89907 18.4533 4.275L17.7413 3.61389V4.62593V4.92963V5.34074H17.7456ZM6.5351 16.6713L5.72394 16.4519L1.99659 23.8917L1.6535 24.5741H2.37587H6.10409H6.5351V24.1111V16.6713ZM23.6254 24.5731H24.3461L24.0039 23.8907L18.899 13.7056L18.7766 13.462H18.5197L8.40999 13.463H7.68762L8.02897 14.1454L13.1347 24.3306L13.2571 24.5741H13.5148L23.6254 24.5731ZM8.20741 16.4546L7.39712 16.6741V24.1111V24.5741H7.82812H11.5572H12.2779L11.9356 23.8917L8.20741 16.4546ZM6.10409 2.35185C7.77037 2.35185 9.12115 3.80278 9.12115 5.59259C9.12115 7.38241 7.77037 8.83333 6.10409 8.83333C4.43781 8.83333 3.08704 7.38241 3.08704 5.59259C3.08704 3.80278 4.43781 2.35185 6.10409 2.35185ZM6.10409 3.27778C4.91365 3.27778 3.94905 4.31389 3.94905 5.59259C3.94905 6.8713 4.91365 7.90741 6.10409 7.90741C7.29454 7.90741 8.25913 6.8713 8.25913 5.59259C8.25913 4.31389 7.29454 3.27778 6.10409 3.27778Z" fill="#555E67"/>
<path d="M17.7456 5.34074C17.7456 5.40463 17.7448 5.46852 17.7439 5.53241L17.743 5.60648V5.61759V5.6287L17.7473 5.87222V5.88056V5.88889L17.7715 6.32963L17.7732 6.37778L17.7861 6.425C17.9611 7.11389 18.3378 7.71204 18.949 8.13981C19.5136 8.53426 20.255 8.76667 21.1747 8.82037V9.74722C20.0119 9.68241 19.0955 9.35648 18.4137 8.86204L17.7413 8.37407V9.24537V12.0741V12.537H18.1723H19.0343C19.1714 12.537 19.299 12.6074 19.38 12.7231L19.4205 12.7926L25.4477 24.8176C25.5926 25.1056 25.4202 25.4528 25.1305 25.4954L25.0572 25.5H0.931995C0.627703 25.5 0.424267 25.1722 0.526848 24.8787L0.558742 24.8065L6.58682 12.7806C6.65751 12.6398 6.77302 12.562 6.89973 12.5426L6.93249 12.537H16.4483H16.8793V12.0741L16.881 9.2463V8.375L16.2086 8.86204C15.5268 9.35648 14.6113 9.68241 13.4485 9.74722V8.82037C14.3312 8.76852 15.0484 8.55278 15.6035 8.18704C16.2552 7.75833 16.656 7.14167 16.8371 6.425L16.8483 6.38241L16.8517 6.33889L16.8646 6.16852V6.16111V6.1537L16.8758 5.88333V5.87037L16.8793 5.64444V5.63704L16.881 4.62778V3.61667L16.1681 4.27685C15.494 4.90093 14.595 5.31018 13.4485 5.39259V4.46389C14.3312 4.38796 15.057 4.07685 15.6182 3.55278C16.2638 2.94907 16.6491 2.1037 16.831 1.13704L16.8327 1.1287L16.8345 1.12037L16.8517 1.00093L16.8534 0.993519V0.987037C16.8681 0.869445 16.8776 0.747222 16.881 0.632407V0.612963V0.594445L16.8776 0.521296V0.5H17.7413V0.7H17.7456C17.7499 0.797222 17.7586 0.894444 17.7698 0.987037V0.993519L17.7715 1.00093L17.7896 1.12037L17.7913 1.1287L17.7922 1.13704C17.9672 2.07037 18.3318 2.89074 18.9395 3.48981C19.5076 4.05 20.2558 4.38519 21.1747 4.46389V5.39259C20.0274 5.31018 19.1274 4.89907 18.4533 4.275L17.7413 3.61389V4.62593V4.92963V5.34074H17.7456ZM6.5351 16.6713L5.72394 16.4519L1.99659 23.8917L1.6535 24.5741H2.37587H6.10409H6.5351V24.1111V16.6713ZM23.6254 24.5731H24.3461L24.0039 23.8907L18.899 13.7056L18.7766 13.462H18.5197L8.40999 13.463H7.68762L8.02897 14.1454L13.1347 24.3306L13.2571 24.5741H13.5148L23.6254 24.5731ZM8.20741 16.4546L7.39712 16.6741V24.1111V24.5741H7.82812H11.5572H12.2779L11.9356 23.8917L8.20741 16.4546ZM6.10409 2.35185C7.77037 2.35185 9.12115 3.80278 9.12115 5.59259C9.12115 7.38241 7.77037 8.83333 6.10409 8.83333C4.43781 8.83333 3.08704 7.38241 3.08704 5.59259C3.08704 3.80278 4.43781 2.35185 6.10409 2.35185ZM6.10409 3.27778C4.91365 3.27778 3.94905 4.31389 3.94905 5.59259C3.94905 6.8713 4.91365 7.90741 6.10409 7.90741C7.29454 7.90741 8.25913 6.8713 8.25913 5.59259C8.25913 4.31389 7.29454 3.27778 6.10409 3.27778Z" stroke="#555E67"/>
</svg>
