<svg width="25" height="26" viewBox="0 0 25 26" fill="none" xmlns="http://www.w3.org/2000/svg">
<path d="M19.4831 14.219H15.8549L16.4513 4.13636C16.501 3.14463 16.1034 2.19421 15.3082 1.49174C14.5129 0.830578 13.5686 0.5 12.5249 0.5C11.4811 0.5 10.4871 0.871901 9.74155 1.49174C8.94632 2.19421 8.49901 3.14463 8.54871 4.13636L9.19483 14.219H5.5666C2.48509 14.219 0 16.4504 0 19.219V21.1612C0 21.781 0.54672 22.2769 1.24254 22.3182V22.8967C1.24254 24.3017 2.63419 25.5 4.37376 25.5H20.6262C22.3161 25.5 23.7575 24.343 23.7575 22.8967V22.3182C24.4533 22.2769 25 21.781 25 21.1612V19.219C25 16.4504 22.5149 14.219 19.4831 14.219ZM10.835 4.05372C10.7853 3.55785 11.0338 3.10331 11.3817 2.77273C12.0278 2.23554 13.0219 2.23554 13.668 2.77273C14.0656 3.10331 14.2644 3.55785 14.2147 4.0124L13.6183 14.219H11.4314L10.835 4.05372ZM2.28628 19.219C2.28628 17.4835 3.77734 16.0785 5.6163 16.0785H9.34394H15.7555H19.4831C21.3221 16.0785 22.8131 17.4835 22.8131 19.219V20.5H2.28628V19.219ZM20.6759 23.6405H4.37376C3.87674 23.6405 3.47913 23.3099 3.47913 22.8967V22.3595H21.4712V22.8967C21.5209 23.3099 21.1233 23.6405 20.6759 23.6405Z" fill="#2790A3"/>
</svg>
