<?xml version="1.0" standalone="no"?>
<!DOCTYPE svg PUBLIC "-//W3C//DTD SVG 20010904//EN"
 "http://www.w3.org/TR/2001/REC-SVG-20010904/DTD/svg10.dtd">
<svg version="1.0" xmlns="http://www.w3.org/2000/svg"
 width="512.000000pt" height="512.000000pt" viewBox="0 0 512.000000 512.000000"
 preserveAspectRatio="xMidYMid meet">

<g transform="translate(0.000000,512.000000) scale(0.100000,-0.100000)"
fill="#2790A3" stroke="none">
<path d="M200 4783 l-30 -28 0 -739 c-1 -809 -3 -776 58 -793 15 -5 454 -8
975 -8 l949 0 29 33 29 32 0 726 c0 777 1 767 -49 794 -13 7 -339 10 -975 10
l-956 0 -30 -27z m1908 -770 l2 -693 -920 0 -920 0 0 695 0 695 918 -2 917 -3
3 -692z"/>
<path d="M427 4562 c-15 -17 -17 -69 -17 -546 0 -344 4 -534 10 -547 10 -19
29 -19 763 -19 572 0 756 3 765 12 9 9 12 146 12 555 0 526 -1 543 -19 553
-13 7 -268 10 -759 10 -703 0 -740 -1 -755 -18z m1433 -289 l0 -206 -47 79
c-42 69 -53 80 -85 88 -69 17 -93 -5 -197 -189 -30 -52 -57 -95 -60 -95 -3 0
-37 57 -76 126 -38 69 -81 134 -94 145 -32 26 -84 24 -115 -3 -15 -13 -78
-113 -142 -223 -63 -110 -119 -204 -124 -208 -6 -7 -251 -11 -397 -7 -10 0
-13 77 -13 350 l0 350 675 0 675 0 0 -207z m-539 -273 c40 -69 83 -143 95
-165 13 -22 24 -44 24 -50 0 -6 -63 -9 -172 -8 -95 1 -186 3 -201 3 l-29 0 20
33 c11 17 56 96 102 175 45 79 84 142 85 140 2 -2 36 -59 76 -128z m463 -7
c62 -109 76 -140 76 -175 l0 -43 -146 2 c-81 1 -147 3 -148 5 -1 2 -10 15 -19
31 -15 24 -16 30 -3 50 7 12 46 77 86 145 39 68 73 122 74 120 2 -2 37 -63 80
-135z m76 -383 l0 -60 -675 0 -675 0 0 60 0 60 675 0 675 0 0 -60z"/>
<path d="M695 4409 c-95 -30 -144 -151 -99 -246 50 -105 206 -126 283 -38 98
112 36 274 -110 290 -24 2 -57 0 -74 -6z m108 -117 c24 -21 22 -77 -3 -102
-58 -58 -148 18 -109 91 21 39 74 45 112 11z"/>
<path d="M2803 3896 l-28 -24 -5 -387 -5 -386 -215 -3 c-234 -3 -286 -12 -425
-75 -200 -91 -396 -295 -468 -487 -56 -149 -59 -172 -64 -454 l-5 -265 -58
-17 c-71 -22 -150 -89 -188 -162 -22 -44 -26 -64 -26 -141 l-1 -90 32 -15 33
-15 0 -417 0 -418 29 -32 29 -33 1624 -3 c893 -1 1638 0 1657 3 18 4 44 18 57
32 l24 26 0 1664 0 1665 -29 29 -29 29 -956 0 -955 0 -28 -24z m1897 -196 l0
-120 -62 -2 c-35 -1 -115 -2 -178 -2 -129 -1 -160 -13 -179 -68 -6 -18 -11
-111 -11 -219 l0 -189 -485 0 -485 0 0 198 c0 178 -2 200 -20 229 -25 41 -81
58 -170 49 -77 -8 -66 -8 -162 0 l-78 7 0 118 0 119 915 0 915 0 0 -120z
m-1720 -415 l0 -185 -55 0 -55 0 0 185 0 185 55 0 55 0 0 -185z m218 3 l-3
-183 -55 0 -55 0 -3 183 -2 182 60 0 60 0 -2 -182z m1290 0 l-3 -183 -52 -3
-53 -3 0 185 0 186 55 0 55 0 -2 -182z m212 -3 l0 -185 -55 0 -55 0 0 185 0
185 55 0 55 0 0 -185z m-1931 -300 c306 -58 550 -286 632 -590 19 -69 22 -115
26 -332 5 -217 3 -253 -9 -253 -33 0 -140 -64 -177 -106 l-39 -45 -84 25
c-168 48 -282 61 -558 61 -276 0 -390 -13 -558 -61 l-84 -24 -46 49 c-43 45
-136 101 -171 101 -11 0 -12 44 -8 253 4 217 7 263 26 332 81 301 323 529 627
589 96 20 323 20 423 1z m1931 -360 l0 -375 -72 -2 c-40 -1 -118 0 -173 1
-175 3 -185 -12 -185 -284 l0 -190 -307 2 c-260 2 -318 5 -370 20 l-63 18 0
221 c0 236 -12 341 -52 457 -62 179 -201 356 -368 465 l-65 42 828 0 827 0 0
-375z m-212 -662 l2 -181 -55 -4 -55 -3 0 188 0 188 53 -3 52 -3 3 -182z m212
2 c0 -102 -3 -185 -7 -186 -5 0 -29 -2 -55 -3 l-48 -2 0 188 0 188 55 0 55 0
0 -185z m-2962 -279 c28 -14 59 -41 74 -63 25 -37 29 -47 42 -105 l6 -28 -225
0 c-251 0 -236 -5 -214 71 16 52 64 108 113 130 60 27 145 25 204 -5z m1849 3
c51 -25 96 -76 112 -128 22 -76 37 -71 -214 -71 -124 0 -225 4 -225 8 0 5 7
31 15 58 16 55 59 105 114 134 50 27 142 26 198 -1z m1113 -569 l0 -550 -39 0
-38 0 -6 86 c-3 47 -3 114 0 148 7 82 -2 128 -33 166 l-26 30 -294 0 c-328 0
-333 -1 -355 -67 -6 -19 -10 -74 -9 -121 2 -48 2 -122 2 -165 l-2 -78 -77 3
-78 3 -2 400 -3 400 33 15 32 15 0 90 c-1 73 -5 98 -23 133 l-22 42 470 0 470
0 0 -550z m-1770 502 c63 -12 142 -29 174 -39 l60 -18 0 -80 1 -80 32 -15 c25
-12 33 -21 33 -42 l0 -28 -670 0 -670 0 0 28 c0 21 8 30 33 42 l32 15 1 79 0
79 40 14 c50 18 218 51 314 63 131 15 489 5 620 -18z m-1142 -644 l-3 -403
-152 -3 -153 -3 0 406 0 405 155 0 155 0 -2 -402z m1852 -2 l0 -405 -152 2
-153 2 -3 403 -2 402 155 0 155 0 0 -404z m-410 -81 l0 -325 -670 0 -670 0 0
325 0 325 670 0 670 0 0 -325z m1280 -50 l0 -55 -255 0 -255 0 0 55 0 55 255
0 255 0 0 -55z m0 -215 l0 -60 -252 2 -253 3 -3 44 c-6 75 -21 71 258 71 l250
0 0 -60z"/>
<path d="M624 2389 c-17 -18 -18 -35 -16 -162 3 -106 -2 -174 -17 -266 -11
-68 -22 -125 -25 -128 -2 -3 -24 30 -49 74 -52 92 -88 133 -116 133 -33 0 -69
-42 -86 -100 -23 -74 -31 -281 -16 -362 16 -81 61 -193 104 -261 l35 -54 -44
-11 c-78 -21 -79 -23 -82 -367 -3 -343 0 -368 58 -398 32 -16 66 -17 363 -15
l329 3 29 33 29 32 0 315 c0 175 -4 325 -10 339 -12 33 -54 59 -105 66 l-41 5
28 100 c36 124 128 359 174 445 20 37 61 90 95 122 49 47 59 62 59 91 0 56
-27 72 -124 72 -99 -1 -172 -25 -231 -77 l-43 -38 -27 78 c-31 89 -113 252
-156 311 -24 34 -35 41 -63 41 -21 0 -40 -8 -52 -21z m178 -373 c50 -138 48
-197 -18 -426 -9 -30 -24 -100 -33 -155 l-18 -100 -15 36 c-58 135 -69 326
-31 554 12 72 25 161 28 200 l7 70 26 -50 c14 -28 38 -86 54 -129z m358 -31
c0 -3 -16 -26 -36 -52 -73 -95 -157 -300 -251 -607 -10 -33 -24 -62 -31 -64
-26 -8 1 141 77 438 46 174 90 246 172 279 26 10 69 14 69 6z m-633 -281 c27
-34 33 -50 33 -88 0 -64 26 -184 60 -278 l29 -78 -38 0 c-35 0 -43 5 -78 53
-105 138 -138 234 -138 407 0 172 5 180 57 94 23 -38 56 -87 75 -110z m491
-841 l-3 -288 -297 -3 -298 -2 0 290 0 290 300 0 300 0 -2 -287z"/>
</g>
</svg>
