<svg width="25" height="24" viewBox="0 0 25 24" fill="none" xmlns="http://www.w3.org/2000/svg">
<path d="M8.22937 19.512C7.70498 19.6853 7.42036 20.2509 7.59367 20.7753C7.76697 21.2997 8.33256 21.5843 8.85695 21.411L8.22937 19.512ZM14.3622 20.8462L14.2722 19.8502L14.3622 20.8462ZM17.8536 20.0769L18.2891 20.9771H18.2891L17.8536 20.0769ZM21.1897 17.0681L20.4153 16.4354L21.1897 17.0681ZM18.908 15.1854L19.6121 15.8955L18.908 15.1854ZM17.3715 16.7087L18.0756 17.4188L17.3715 16.7087ZM13.1984 16.3846C12.6461 16.3846 12.1984 16.8323 12.1984 17.3846C12.1984 17.9369 12.6461 18.3846 13.1984 18.3846V16.3846ZM20.835 14.9962L20.2836 15.8305L20.835 14.9962ZM9.72402 14.4915L10.1682 15.3875H10.1682L9.72402 14.4915ZM13.9001 14.1128L14.1611 13.1475H14.1611L13.9001 14.1128ZM15.5309 14.5538L15.2699 15.5191H15.2699L15.5309 14.5538ZM16.0476 16.4829L15.3435 15.7727L16.0476 16.4829ZM14.434 16.6745C14.0418 17.0633 14.0391 17.6965 14.4279 18.0887C14.8168 18.4809 15.4499 18.4836 15.8421 18.0948L14.434 16.6745ZM8.54316 20.4615L8.85695 21.411C8.9545 21.3788 9.17974 21.3518 9.60006 21.3815C10 21.4098 10.4683 21.4794 11.0079 21.5634C12.0286 21.7224 13.3321 21.9433 14.4521 21.8421L14.3622 20.8462L14.2722 19.8502C13.4526 19.9242 12.4284 19.7605 11.3156 19.5872C10.7883 19.5051 10.2382 19.4216 9.74113 19.3865C9.26435 19.3528 8.71371 19.352 8.22937 19.512L8.54316 20.4615ZM14.3622 20.8462L14.4521 21.8421C15.9538 21.7065 16.7079 21.7421 18.2891 20.9771L17.8536 20.0769L17.4181 19.1767C16.2223 19.7553 15.8478 19.7079 14.2722 19.8502L14.3622 20.8462ZM17.8536 20.0769L18.2891 20.9771C19.719 20.2853 21.1284 18.7238 21.9642 17.7007L21.1897 17.0681L20.4153 16.4354C19.5698 17.4704 18.4056 18.699 17.4181 19.1767L17.8536 20.0769ZM18.908 15.1854L18.2039 14.4753L16.6675 15.9986L17.3715 16.7087L18.0756 17.4188L19.6121 15.8955L18.908 15.1854ZM15.7257 17.3846V16.3846H13.1984V17.3846V18.3846H15.7257V17.3846ZM17.3715 16.7087L16.6675 15.9986C16.4191 16.2448 16.0805 16.3846 15.7257 16.3846V17.3846V18.3846C16.6054 18.3846 17.4509 18.0382 18.0756 17.4188L17.3715 16.7087ZM20.835 14.9962L21.3864 14.162C20.3866 13.5011 19.0558 13.6307 18.2039 14.4753L18.908 15.1854L19.6121 15.8955C19.7897 15.7194 20.072 15.6906 20.2836 15.8305L20.835 14.9962ZM21.1897 17.0681L21.9642 17.7007C22.9053 16.5487 22.546 14.9284 21.3864 14.162L20.835 14.9962L20.2836 15.8305C20.5394 15.9995 20.5448 16.2769 20.4153 16.4354L21.1897 17.0681ZM4.27587 13.5385V14.5385H7.37935V13.5385V12.5385H4.27587V13.5385ZM8.15522 14.3077H7.15522V21.2308H8.15522H9.15522V14.3077H8.15522ZM7.37935 22V21H4.27587V22V23H7.37935V22ZM3.5 21.2308H4.5V14.3077H3.5H2.5V21.2308H3.5ZM4.27587 22V21C4.39153 21 4.5 21.0952 4.5 21.2308H3.5H2.5C2.5 22.216 3.30321 23 4.27587 23V22ZM8.15522 21.2308H7.15522C7.15522 21.0952 7.26369 21 7.37935 21V22V23C8.35201 23 9.15522 22.216 9.15522 21.2308H8.15522ZM7.37935 13.5385V14.5385C7.26369 14.5385 7.15522 14.4432 7.15522 14.3077H8.15522H9.15522C9.15522 13.3225 8.35202 12.5385 7.37935 12.5385V13.5385ZM4.27587 13.5385V12.5385C3.3032 12.5385 2.5 13.3225 2.5 14.3077H3.5H4.5C4.5 14.4432 4.39153 14.5385 4.27587 14.5385V13.5385ZM8.54316 15.0769L8.9873 15.9729L10.1682 15.3875L9.72402 14.4915L9.27987 13.5956L8.09901 14.181L8.54316 15.0769ZM12.1529 13.9231V14.9231H12.4711V13.9231V12.9231H12.1529V13.9231ZM13.9001 14.1128L13.6391 15.0781L15.2699 15.5191L15.5309 14.5538L15.7919 13.5884L14.1611 13.1475L13.9001 14.1128ZM16.0476 16.4829L15.3435 15.7727L14.434 16.6745L15.1381 17.3846L15.8421 18.0948L16.7517 17.193L16.0476 16.4829ZM15.5309 14.5538L15.2699 15.5191C15.3963 15.5533 15.422 15.6949 15.3435 15.7727L16.0476 16.4829L16.7517 17.193C17.9369 16.0179 17.3897 14.0205 15.7919 13.5884L15.5309 14.5538ZM12.4711 13.9231V14.9231C12.8657 14.9231 13.2585 14.9752 13.6391 15.0781L13.9001 14.1128L14.1611 13.1475C13.6102 12.9985 13.0419 12.9231 12.4711 12.9231V13.9231ZM9.72402 14.4915L10.1682 15.3875C10.784 15.0822 11.4635 14.9231 12.1529 14.9231V13.9231V12.9231C11.1559 12.9231 10.1723 13.1532 9.27987 13.5956L9.72402 14.4915ZM18.2415 8.15385H17.2415C17.2415 9.29281 16.3079 10.2308 15.1381 10.2308V11.2308V12.2308C17.3962 12.2308 19.2415 10.4136 19.2415 8.15385H18.2415ZM15.1381 11.2308V10.2308C13.9682 10.2308 13.0346 9.29281 13.0346 8.15385H12.0346H11.0346C11.0346 10.4136 12.8799 12.2308 15.1381 12.2308V11.2308ZM12.0346 8.15385H13.0346C13.0346 7.01488 13.9682 6.07692 15.1381 6.07692V5.07692V4.07692C12.8799 4.07692 11.0346 5.89414 11.0346 8.15385H12.0346ZM15.1381 5.07692V6.07692C16.3079 6.07692 17.2415 7.01488 17.2415 8.15385H18.2415H19.2415C19.2415 5.89414 17.3962 4.07692 15.1381 4.07692V5.07692ZM12.0346 8.15385V7.15385C10.8647 7.15385 9.93109 6.21589 9.93109 5.07692H8.93109H7.93109C7.93109 7.33663 9.7764 9.15385 12.0346 9.15385V8.15385ZM8.93109 5.07692H9.93109C9.93109 3.93796 10.8647 3 12.0346 3V2V1C9.7764 1 7.93109 2.81722 7.93109 5.07692H8.93109ZM12.0346 2V3C13.2044 3 14.1381 3.93796 14.1381 5.07692H15.1381H16.1381C16.1381 2.81722 14.2927 1 12.0346 1V2Z" fill="#555E67"/>
</svg>
