<svg width="101" height="160" viewBox="0 0 101 160" fill="none" xmlns="http://www.w3.org/2000/svg">
<path d="M85.4774 117.926V44.7452L70.0291 49.5665V18.0398L31.051 0V54.6517L39.1334 52.1289V12.0158L61.9476 22.7512V52.0893L54.5817 54.3878V26.7779L46.4984 22.8992V56.9106L15.6027 66.5524V96.1192L0.155334 91.2987V159.452H54.5817V122.747L46.4984 120.224V152.222H8.23864V101.054L31.051 108.174V137.764H23.686V113.105L15.6027 110.582V144.994H39.1334V110.696L92.8424 127.458V152.222H70.0291V134.798L77.3941 137.096V144.994H85.4774V132.389L61.9476 125.045V132.275V159.452H100.926V122.747L85.4774 117.926ZM77.3941 115.402L54.5817 108.283V76.0798L61.9476 73.7813V103.531L70.0291 106.055V64.0296L46.4984 71.3729V105.759L23.686 98.6412V71.263L31.051 68.9645V93.8902L39.1334 96.4122V66.4425L77.3941 54.5014V115.402Z" fill="#238EC3"/>
</svg>
