<svg width="42" height="48" viewBox="0 0 42 48" fill="none" xmlns="http://www.w3.org/2000/svg">
<path d="M39.4326 30.9749L25.7232 9.14995C24.6342 7.42495 22.9686 6.44995 21.1748 6.44995C19.317 6.44995 17.6514 7.42495 16.6264 9.14995L2.917 30.9749C1.63575 32.9999 1.44356 35.625 2.4045 37.875C3.36543 40.125 5.28731 41.55 7.46544 41.55H34.8842C37.0623 41.55 38.9842 40.125 39.9451 37.875C40.9061 35.7 40.7139 32.9999 39.4326 30.9749ZM37.3826 36.375C36.8701 37.5 35.9733 38.175 34.8842 38.175H7.46544C6.37637 38.175 5.4795 37.5 4.967 36.375C4.51856 35.25 4.58262 33.975 5.22325 33L18.9326 11.175C19.4451 10.35 20.2779 9.82495 21.1748 9.82495C22.0717 9.82495 22.9045 10.275 23.417 11.175L37.1264 33C37.767 33.975 37.8311 35.25 37.3826 36.375Z" fill="#F9A000"/>
<path d="M21.1749 17.25C20.4061 17.25 19.7014 18 19.7014 18.975V27.15C19.7014 28.05 20.342 28.875 21.1749 28.875C22.0077 28.875 22.6483 28.125 22.6483 27.15V18.9C22.6483 18 21.9436 17.25 21.1749 17.25Z" fill="#F9A000"/>
<path d="M21.1749 30.6C20.4061 30.6 19.7014 31.35 19.7014 32.325V32.7C19.7014 33.6 20.342 34.425 21.1749 34.425C22.0077 34.425 22.6483 33.675 22.6483 32.7V32.25C22.6483 31.35 21.9436 30.6 21.1749 30.6Z" fill="#F9A000"/>
</svg>
