<svg width="118" height="118" viewBox="0 0 118 118" fill="none" xmlns="http://www.w3.org/2000/svg">
<path d="M60.5 36.875C60.5 36.0466 59.8284 35.375 59 35.375C58.1716 35.375 57.5 36.0466 57.5 36.875H60.5ZM57.5 81.125C57.5 81.9534 58.1716 82.625 59 82.625C59.8284 82.625 60.5 81.9534 60.5 81.125H57.5ZM81.125 60.5C81.9534 60.5 82.625 59.8284 82.625 59C82.625 58.1716 81.9534 57.5 81.125 57.5V60.5ZM36.875 57.5C36.0466 57.5 35.375 58.1716 35.375 59C35.375 59.8284 36.0466 60.5 36.875 60.5V57.5ZM103.25 59H101.75C101.75 82.6102 82.6102 101.75 59 101.75V103.25V104.75C84.267 104.75 104.75 84.267 104.75 59H103.25ZM59 103.25V101.75C35.3898 101.75 16.25 82.6102 16.25 59H14.75H13.25C13.25 84.267 33.733 104.75 59 104.75V103.25ZM14.75 59H16.25C16.25 35.3898 35.3898 16.25 59 16.25V14.75V13.25C33.733 13.25 13.25 33.733 13.25 59H14.75ZM59 14.75V16.25C82.6102 16.25 101.75 35.3898 101.75 59H103.25H104.75C104.75 33.733 84.267 13.25 59 13.25V14.75ZM59 36.875H57.5L57.5 59H59H60.5L60.5 36.875H59ZM59 59H57.5V81.125H59H60.5V59H59ZM81.125 59V57.5H59V59V60.5H81.125V59ZM59 59V57.5H36.875V59V60.5H59V59Z" fill="#555E67"/>
</svg>
