<svg width="18" height="18" viewBox="0 0 18 18" fill="none" xmlns="http://www.w3.org/2000/svg">
<g clip-path="url(#clip0_504_1407)">
<path d="M15.7499 0.506226H9.42178C8.46553 0.506226 7.67803 1.29373 7.67803 2.2781V3.37498H2.2499C1.29365 3.37498 0.478027 4.16248 0.478027 5.14685V15.75C0.478027 16.7062 1.26553 17.5219 2.2499 17.5219H15.7499C16.7062 17.5219 17.5218 16.7344 17.5218 15.75V2.24998C17.5218 1.29373 16.7062 0.506226 15.7499 0.506226ZM7.6499 16.2562H2.2499C1.96865 16.2562 1.74365 16.0312 1.74365 15.75V5.11873C1.74365 4.83748 1.96865 4.61248 2.2499 4.61248H7.6499V16.2562ZM16.2562 15.75C16.2562 16.0312 16.0312 16.2562 15.7499 16.2562H8.91553V2.24998C8.91553 1.96873 9.14053 1.74373 9.39365 1.74373H15.7499C16.0312 1.74373 16.2562 1.96873 16.2562 2.24998V15.75Z" fill="#7D7F88"/>
<path d="M3.9374 7.90313H5.5124C5.8499 7.90313 6.15928 7.62187 6.15928 7.25625C6.15928 6.89062 5.87803 6.60938 5.5124 6.60938H3.9374C3.5999 6.60938 3.29053 6.89062 3.29053 7.25625C3.29053 7.62187 3.5999 7.90313 3.9374 7.90313Z" fill="#7D7F88"/>
<path d="M3.9374 11.0531H5.5124C5.8499 11.0531 6.15928 10.7719 6.15928 10.4063C6.15928 10.0406 5.87803 9.7594 5.5124 9.7594H3.9374C3.5999 9.7594 3.29053 10.0406 3.29053 10.4063C3.29053 10.7719 3.5999 11.0531 3.9374 11.0531Z" fill="#7D7F88"/>
<path d="M3.90933 14.2312H5.48433C5.82183 14.2312 6.1312 13.95 6.1312 13.5844C6.1312 13.2187 5.84995 12.9375 5.48433 12.9375H3.90933C3.57183 12.9375 3.26245 13.2187 3.26245 13.5844C3.26245 13.95 3.57183 14.2312 3.90933 14.2312Z" fill="#7D7F88"/>
<path d="M13.3874 4.1344H11.8124C11.4749 4.1344 11.1655 4.41565 11.1655 4.78127C11.1655 5.1469 11.4468 5.42815 11.8124 5.42815H13.3874C13.7249 5.42815 14.0343 5.1469 14.0343 4.78127C14.0343 4.41565 13.7249 4.1344 13.3874 4.1344Z" fill="#7D7F88"/>
<path d="M13.3874 8.18433H11.8124C11.4749 8.18433 11.1655 8.46558 11.1655 8.8312C11.1655 9.1687 11.4468 9.47808 11.8124 9.47808H13.3874C13.7249 9.47808 14.0343 9.19683 14.0343 8.8312C14.0062 8.46558 13.7249 8.18433 13.3874 8.18433Z" fill="#7D7F88"/>
<path d="M13.3593 12.2344H11.7843C11.4468 12.2344 11.1375 12.5156 11.1375 12.8812C11.1375 13.2469 11.4187 13.5281 11.7843 13.5281H13.3593C13.6968 13.5281 14.0062 13.2469 14.0062 12.8812C14.0062 12.5156 13.6968 12.2344 13.3593 12.2344Z" fill="#7D7F88"/>
</g>
<defs>
<clipPath id="clip0_504_1407">
<rect width="18" height="18" fill="white"/>
</clipPath>
</defs>
</svg>
