<svg width="20" height="21" viewBox="0 0 20 21" fill="none" xmlns="http://www.w3.org/2000/svg">
<path d="M1.66699 8.03426H18.3337M1.66699 8.03426V5.20093C1.66699 5.06832 1.71967 4.94114 1.81344 4.84737C1.90721 4.75361 2.03438 4.70093 2.16699 4.70093H17.8337C17.9663 4.70093 18.0934 4.75361 18.1872 4.84737C18.281 4.94114 18.3337 5.06832 18.3337 5.20093V8.03426H1.66699ZM1.66699 8.03426V15.8676C1.66699 16.0002 1.71967 16.1274 1.81344 16.2211C1.90721 16.3149 2.03438 16.3676 2.16699 16.3676H17.8337C17.9663 16.3676 18.0934 16.3149 18.1872 16.2211C18.281 16.1274 18.3337 16.0002 18.3337 15.8676V8.03426H1.66699Z" stroke="#252B5C" stroke-width="1.6" stroke-linecap="round" stroke-linejoin="round"/>
</svg>
