<svg width="35" height="35" viewBox="0 0 35 35" fill="none" xmlns="http://www.w3.org/2000/svg">
<rect width="35" height="35" rx="5" fill="#25D366" fill-opacity="0.41"/>
<g clip-path="url(#clip0_362_6590)">
<path d="M25.4 6H8.6C6.61177 6 5 7.61177 5 9.6V26.4C5 28.3882 6.61177 30 8.6 30H25.4C27.3882 30 29 28.3882 29 26.4V9.6C29 7.61177 27.3882 6 25.4 6Z" fill="#25D366" fill-opacity="0.78"/>
<path d="M10.7653 24.4219L11.4215 21.375C10.578 20.0446 10.249 18.4522 10.4961 16.8964C10.7433 15.3407 11.5496 13.9286 12.7638 12.9251C13.978 11.9215 15.5167 11.3956 17.0911 11.4458C18.6655 11.496 20.1675 12.1191 21.3153 13.1979C22.4631 14.2768 23.1777 15.7375 23.3251 17.3058C23.4726 18.8741 23.0427 20.4424 22.1161 21.7163C21.1895 22.9902 19.83 23.8822 18.2925 24.225C16.755 24.5678 15.1452 24.3378 13.7653 23.5781L10.7653 24.4219Z" fill="#25D366" stroke="white" stroke-width="1.3"/>
<path d="M19.438 18.7969C19.2974 18.7032 19.1568 18.6563 19.0161 18.8438L18.4536 19.5938C18.313 19.6875 18.2193 19.7344 18.0318 19.6407C17.3286 19.2657 16.3443 18.8438 15.5005 17.4375C15.4536 17.25 15.5474 17.1563 15.6411 17.0625L16.063 16.4063C16.1568 16.3125 16.1099 16.2188 16.063 16.125L15.5005 14.7657C15.3599 14.3907 15.2193 14.4375 15.0786 14.4375H14.7036C14.6099 14.4375 14.4224 14.4844 14.2349 14.6719C13.2036 15.7032 13.6255 17.1563 14.3755 18.0938C14.5161 18.2813 15.4536 19.9688 17.4693 20.8594C18.9693 21.5157 19.2974 21.4219 19.7193 21.3282C20.2349 21.2813 20.7505 20.8594 20.9849 20.4375C21.0318 20.2969 21.2661 19.6875 21.0786 19.5938" fill="white"/>
</g>
<defs>
<clipPath id="clip0_362_6590">
<rect width="24" height="24" fill="white" transform="translate(5 6)"/>
</clipPath>
</defs>
</svg>
