<svg width="126" height="118" viewBox="0 0 126 118" fill="none" xmlns="http://www.w3.org/2000/svg">
<path d="M123.426 87.5128C123.32 87.7301 123.209 87.9414 123.097 88.1527C117.678 98.5038 105.431 103.283 93.1188 100.089C88.5509 98.903 84.6114 96.5721 79.9672 94.7637C79.568 94.6052 79.1628 94.4585 78.7519 94.3117C72.1761 91.9514 64.0386 90.8594 50.8578 95.3919C30.3613 102.437 13.006 104.944 4.28135 91.7812C4.1698 91.6227 4.06409 91.4583 3.96429 91.288C2.7842 89.421 1.77435 87.2486 0.946482 84.7416C-1.46072 77.4906 0.893657 69.1887 6.0838 61.2097C6.24824 60.9574 6.41847 60.699 6.58876 60.4465C10.3052 54.9393 15.3486 49.6082 21.0789 44.9054C21.6954 44.4004 22.2884 43.8721 22.8637 43.3201C23.0399 43.1675 23.216 42.9972 23.3863 42.8211C26.6154 39.6506 29.1401 35.9576 31.2889 32.1413C31.3887 31.9652 31.4886 31.789 31.5883 31.6129C35.5514 24.4383 38.2699 16.8762 41.9275 11.4277C42.227 10.9815 42.5323 10.5528 42.8552 10.136C42.9903 9.95398 43.1311 9.77194 43.2779 9.5958C44.4228 8.16318 45.691 6.88915 47.0649 5.7854C47.2234 5.65038 47.3878 5.52122 47.5521 5.39796C51.2746 2.53283 55.7132 0.830116 60.5804 0.307607C60.827 0.284147 61.0678 0.260637 61.3143 0.237177C68.8589 -0.379334 77.3721 1.81061 85.7797 6.91266C86.0028 7.04188 86.22 7.17695 86.4432 7.31782C91.9504 10.7525 97.3988 15.4495 102.483 21.4205C102.642 21.6025 102.8 21.7904 102.959 21.9783C107.521 27.4326 111.789 33.9262 115.529 41.4824C115.623 41.6644 115.711 41.8464 115.799 42.0284C117.079 44.647 118.295 47.3889 119.445 50.2599C119.516 50.4419 119.586 50.6239 119.662 50.8059C120.531 53.0252 121.365 55.315 122.146 57.687C122.211 57.869 122.269 58.0569 122.328 58.2388C123.185 60.8633 123.99 63.5699 124.724 66.3764C126.919 74.737 126.15 81.8999 123.426 87.5128Z" fill="#DCF4E6"/>
<path d="M122.328 58.2389C116.944 60.0179 110.932 61.1921 104.978 61.1921C99.4768 61.1921 94.0284 60.1823 89.1788 57.7105C80.19 53.1192 74.3246 44.2008 71.7413 31.1902C68.4769 14.7449 64.2496 5.50366 60.5801 0.307612C60.8267 0.284152 61.0674 0.260642 61.314 0.237183C64.9717 5.57405 69.0992 14.8683 72.3167 31.0787C74.8589 43.9014 80.6245 52.6848 89.4489 57.188C99.3713 62.2548 111.912 61.0513 122.146 57.6871C122.21 57.869 122.269 58.0569 122.328 58.2389Z" fill="white"/>
<path d="M119.663 50.806C115.506 51.8745 111.79 52.4088 108.496 52.4088C104.081 52.4088 100.423 51.4518 97.4757 49.5495C91.3815 45.6099 88.1464 37.6133 87.5886 25.1018C87.2598 17.8332 86.5904 11.8211 85.7803 6.91272C86.0033 7.04194 86.2205 7.17701 86.4437 7.31788C87.2187 12.1557 87.8587 18.0329 88.1757 25.0725C88.7277 37.3845 91.8746 45.2284 97.7986 49.0564C102.795 52.2856 109.929 52.6907 119.446 50.26C119.516 50.442 119.587 50.624 119.663 50.806Z" fill="white"/>
<path d="M115.799 42.0286C113.597 42.5511 111.63 42.8154 109.892 42.8154C106.598 42.8154 104.144 41.876 102.559 39.9972C99.0656 35.8697 100.381 28.0492 102.483 21.4207C102.641 21.6026 102.8 21.7905 102.958 21.9784C100.968 28.3956 99.77 35.7992 103.005 39.6214C105.265 42.2869 109.469 42.9093 115.528 41.4825C115.622 41.6645 115.711 41.8466 115.799 42.0286Z" fill="white"/>
<path d="M123.426 87.5129C123.32 87.7301 123.209 87.9415 123.097 88.1528C120.72 88.4582 118.089 88.6461 115.218 88.6461C102.965 88.6461 86.3201 85.2114 66.1641 72.7996C40.1018 56.7536 19.9166 57.4053 7.57528 60.7754C7.07033 60.9163 6.57128 61.0572 6.08398 61.2098C6.24842 60.9575 6.41865 60.6991 6.58894 60.4466C6.86488 60.3644 7.14081 60.2881 7.41675 60.2117C19.8755 56.8064 40.231 56.1429 66.4694 72.2947C91.4867 87.6949 111.032 89.2038 123.426 87.5129Z" fill="white"/>
<path d="M79.9668 94.7637C79.5676 94.6052 79.1624 94.4585 78.7514 94.3117C71.0602 86.1272 59.5937 78.3009 44.0643 78.7646C26.8264 79.2754 13.487 85.4813 4.28093 91.7812C4.16937 91.6226 4.06367 91.4582 3.96387 91.288C13.2463 84.9412 26.6913 78.6942 44.0466 78.1776C60.3276 77.702 72.1933 86.1859 79.9668 94.7637Z" fill="white"/>
<path d="M58.983 36.263C58.4253 42.369 55.4838 46.3614 50.4756 47.8058C48.6673 48.3283 46.6829 48.5574 44.575 48.5574C37.9935 48.5574 30.2024 46.2735 22.8633 43.3202C23.0395 43.1675 23.2156 42.9973 23.3859 42.8211C32.9266 46.6491 43.1542 49.3029 50.3112 47.2421C56.3234 45.5042 58.026 40.2847 58.4018 36.2101C59.2531 26.8161 53.9396 13.6059 47.0644 5.78539C47.223 5.65037 47.3874 5.52121 47.5517 5.39795C54.5796 13.3124 59.8695 26.552 58.983 36.263Z" fill="white"/>
<path d="M47.2177 37.2082C46.5307 37.5546 45.7205 37.7131 44.8222 37.7131C41.1879 37.7131 36.0447 35.1356 31.2891 32.1414C31.3888 31.9652 31.4887 31.789 31.5885 31.6129C37.3893 35.2883 43.7243 38.3237 46.9535 36.6857C52.1084 34.0671 46.0552 17.7862 42.8553 10.1361C42.9904 9.95401 43.1313 9.77196 43.2781 9.59583C46.5073 17.2461 52.9303 34.3078 47.2177 37.2082Z" fill="white"/>
<path d="M56.8994 115.256H125.48C123.669 111.989 119.823 113.002 115.682 112.915C114.908 110.473 112.764 110.524 108.144 111.276C113.997 105.939 112.171 100.695 101.963 104.113C113.622 88.2403 95.5483 84.6127 92.8793 84.2953C89.5162 83.8942 74.0563 86.3663 82.2505 102.895C72.3238 98.775 69.6082 103.645 77.0998 112.213C69.9429 112.549 61.3673 114.121 56.8994 115.256Z" fill="#93E5B6"/>
<path d="M6.60254 115.256H60.8307C57.313 114.439 50.0242 113.471 46.7453 113.402C46.1324 111.468 44.4341 111.509 40.7757 112.105C45.4105 107.878 43.9644 103.725 35.8814 106.432C45.1139 93.8631 30.8017 90.9905 28.6882 90.7391C26.025 90.4215 13.7828 92.3791 20.2715 105.468C12.4109 102.205 10.2604 106.061 16.1929 112.846C10.5255 113.112 8.5146 113.777 6.60254 115.256Z" fill="#93E5B6"/>
<path d="M35.6864 116.127C32.8605 116.127 30.5615 113.829 30.5615 111.003V5.12513C30.5615 2.29928 32.8605 0 35.6864 0H88.9332C91.7591 0 94.0584 2.29928 94.0584 5.12513V111.003C94.0584 113.829 91.7591 116.127 88.9332 116.127H35.6864Z" fill="#2F627C"/>
<path d="M35.6864 112.384C34.9246 112.384 34.3047 111.764 34.3047 111.003V5.12506C34.3047 4.36292 34.9246 3.74304 35.6864 3.74304H88.9333C89.6954 3.74304 90.3154 4.36292 90.3154 5.12506V111.003C90.3154 111.764 89.6955 112.384 88.9333 112.384H35.6864Z" fill="#CDEEFF"/>
<path d="M81.3818 10.7468L87.7574 14.7537L87.824 14.9081V14.9124L87.9238 15.1393C88.6998 16.8457 91.7321 18.2977 94.6759 18.2977C96.2668 18.2977 97.4364 17.8802 98.0296 17.2268V14.9081L97.9354 14.7583L89.0838 10.7468H81.3818Z" fill="#097C3A"/>
<path d="M82.4782 18.2971H85.298C87.4985 18.2971 88.8096 16.3171 88.2489 15.0159L81.3818 10.7461H73.7539L77.8737 14.99C78.2103 16.2913 80.2778 18.2971 82.4782 18.2971Z" fill="#FFC439"/>
<path d="M66.125 10.7477L67.4288 15.0957C67.5775 16.8207 70.1243 18.2991 73.0995 18.2991C76.082 18.2991 78.2406 16.6376 77.7945 14.9126L73.7539 10.7477L66.125 10.7477Z" fill="#097C3A"/>
<path d="M60.9016 18.2971H63.7215C65.9219 18.2971 67.79 16.9108 67.6779 15.6095L66.1258 10.7461H58.4974L57.0098 15.3386C56.8977 16.6398 58.7011 18.2971 60.9016 18.2971Z" fill="#FFC439"/>
<path d="M50.868 10.7477L46.4018 15.3643C45.9557 17.0894 48.547 18.2991 51.5224 18.2991C54.5049 18.2991 56.8996 16.9474 57.0483 15.2223L58.497 10.7477H50.868Z" fill="#097C3A"/>
<path d="M39.3237 18.2971H42.1435C44.3441 18.2971 46.065 16.73 46.4015 15.4288L50.868 10.7461H43.2404L35.791 15.4261C35.2301 16.7274 37.1233 18.2971 39.3237 18.2971Z" fill="#FFC439"/>
<path d="M26.5898 14.9215V17.2222C27.1774 17.8758 28.3527 18.2977 29.9437 18.2977C32.9261 18.2977 35.9751 16.8184 36.7179 15.094L36.7955 14.9171V14.9124L36.8619 14.7536H36.8675L43.2379 10.7467H35.2416L26.6896 14.7582L26.5898 14.9215Z" fill="#097C3A"/>
<path d="M87.8242 14.7583V21.202C87.8242 23.5072 90.1137 25.3813 92.9298 25.3813C95.7514 25.3813 98.0298 23.5073 98.0298 21.202V14.9081L97.9356 14.7583H87.8242Z" fill="#009444"/>
<path d="M67.4141 14.756V21.2033C67.4141 23.5071 69.7025 25.3804 72.517 25.3804C75.3382 25.3804 77.6198 23.5071 77.6198 21.2033V14.756H67.4141Z" fill="#009444"/>
<path d="M47.0029 14.756V21.2033C47.0029 23.5071 49.2915 25.3804 52.1059 25.3804C54.9272 25.3804 57.2088 23.5071 57.2088 21.2033V14.756H47.0029Z" fill="#009444"/>
<path d="M77.6191 14.7535V20.3209C77.6191 23.1138 79.9037 25.3779 82.7218 25.3779C85.5399 25.3779 87.8245 23.1138 87.8245 20.3209V14.7535H77.6191Z" fill="#DBA12C"/>
<path d="M57.209 20.3209C57.209 23.1139 59.4936 25.378 62.3117 25.378C65.1297 25.378 67.4144 23.1139 67.4144 20.3209V14.7535H57.209L57.209 20.3209Z" fill="#DBA12C"/>
<path d="M36.7979 20.3209C36.7979 23.1139 39.0824 25.378 41.9006 25.378C44.7188 25.378 47.0034 23.1139 47.0034 20.3209V14.7535H36.7979V20.3209Z" fill="#DBA12C"/>
<path d="M26.5898 14.9215V21.202C26.5898 23.5072 28.8793 25.3813 31.6954 25.3813C34.5171 25.3813 36.7955 23.5073 36.7955 21.202V14.7583H26.6896L26.5898 14.9215Z" fill="#009444"/>
<path d="M42.9568 4.60974H35.2607V10.7468H42.9568V4.60974Z" fill="#009444"/>
<path d="M50.652 4.60974H42.9561V10.7468H50.652V4.60974Z" fill="#DBA12C"/>
<path d="M58.3484 4.60974H50.6523V10.7468H58.3484V4.60974Z" fill="#009444"/>
<path d="M66.0446 4.60974H58.3486V10.7468H66.0446V4.60974Z" fill="#DBA12C"/>
<path d="M73.7399 4.60974H66.0439V10.7468H73.7399V4.60974Z" fill="#009444"/>
<path d="M81.4362 4.60974H73.7402V10.7468H81.4362V4.60974Z" fill="#DBA12C"/>
<path d="M89.1325 4.60974H81.4365V10.7468H89.1325V4.60974Z" fill="#009444"/>
<path d="M96.2423 96.5014L75.0625 95.9827L74.5438 117.162L95.7235 117.681L96.2423 96.5014Z" fill="#FFC439"/>
<path opacity="0.5" d="M88.6126 117.482L88.7468 111.846L88.112 112.308L87.7566 111.822L87.1384 111.587L86.4691 112.342L86.1175 111.306L85.1423 113.058L84.5703 111.563L84.152 112.177L83.6603 111.248C83.6603 111.248 83.3826 115.595 83.2178 117.353C85.0143 117.484 86.817 117.338 88.6126 117.482Z" fill="#CDEEFF"/>
<path d="M75.0566 95.9909L80.3222 95.241L99.2467 95.6916L96.2368 96.4952L75.0566 95.9909Z" fill="#DBA12C"/>
<path d="M99.2482 95.6902L98.7583 116.266L98.1686 116.54L97.0317 117.071L95.7314 117.676L96.2358 96.4969L99.2482 95.6902Z" fill="#DBA12C"/>
<path opacity="0.5" d="M83.3825 96.1892L83.2314 102.534L83.8664 102.072L84.2218 102.558L84.8399 102.793L85.5093 102.038L85.8607 103.074L87.0422 99.6892L87.4081 102.817L87.8263 102.203L88.3181 103.132C88.3181 103.132 88.7275 96.7201 88.8472 96.3193L90.2959 95.5832L88.8245 95.7316L88.7922 95.5473L85.6656 95.4729L83.3825 96.1892Z" fill="#CDEEFF"/>
<path opacity="0.5" d="M95.7324 96.2039L97.2309 96.2197L97.2329 99.3709L97.4915 98.9733L97.5836 99.104L97.8163 98.8392L98.0247 99.0044L98.3327 98.7268L98.3996 95.9174L96.8993 95.7362L97.0231 95.8309L96.7859 95.8802L96.603 96.0824L95.7324 96.2039Z" fill="#CDEEFF"/>
<path opacity="0.5" d="M98.1682 116.54L97.0312 117.071L97.134 115.121L97.3737 115.53L97.528 114.8L97.7689 115.013L97.8307 114.477L98.1541 113.88L98.1682 116.54Z" fill="#CDEEFF"/>
<path opacity="0.5" d="M79.3189 95.3837L81.035 95.4436L80.6187 95.5836L80.7544 95.6633C80.7544 95.6633 80.2698 95.7894 80.3111 95.7904C80.3523 95.7914 80.639 95.8884 80.598 95.8766C80.5569 95.8651 79.9167 95.8787 79.9167 95.8787L79.9147 95.9597L77.2754 95.6748L79.3189 95.3837Z" fill="#CDEEFF"/>
<path d="M29.8726 116.753L46.6592 114.834L44.7398 98.047L27.9531 99.9664L29.8726 116.753Z" fill="#FFC439"/>
<path opacity="0.5" d="M35.5144 116.085L35.0039 111.618L35.5412 111.94L35.7887 111.529L36.2628 111.298L36.8486 111.849L37.0535 111.001L37.9536 112.323L38.3008 111.094L38.6771 111.552L39.001 110.779C39.001 110.779 39.5332 114.212 39.7901 115.596C38.3727 115.829 36.9303 115.843 35.5144 116.085Z" fill="#CDEEFF"/>
<path d="M44.7409 98.0439L40.5049 97.8257L25.5059 99.5401L27.9542 99.9626L44.7409 98.0439Z" fill="#DBA12C"/>
<path d="M25.5049 99.5392L27.3689 115.847L27.8569 116.022L28.7979 116.363L29.8741 116.75L27.9554 99.9639L25.5049 99.5392Z" fill="#DBA12C"/>
<path opacity="0.5" d="M38.1421 98.7982L38.7169 103.827L38.1795 103.506L37.932 103.917L37.4579 104.147L36.8721 103.596L36.6672 104.444L35.4862 101.84L35.4198 104.351L35.0435 103.893L34.7195 104.667C34.7195 104.667 33.9347 99.603 33.8108 99.2932L32.6074 98.8124L33.7868 98.8248L33.7993 98.6762L36.2773 98.3929L38.1421 98.7982Z" fill="#CDEEFF"/>
<path opacity="0.5" d="M28.3333 99.6951L27.1442 99.815L27.3685 102.318L27.1346 102.021L27.0709 102.131L26.867 101.938L26.7134 102.084L26.4488 101.885L26.1943 99.6587L27.3729 99.4072L27.2813 99.4914L27.4734 99.5135L27.6331 99.661L28.3333 99.6951Z" fill="#CDEEFF"/>
<path opacity="0.5" d="M27.8563 116.022L28.7974 116.363L28.576 114.821L28.4149 115.163L28.24 114.594L28.0639 114.781L27.9764 114.359L27.6768 113.909L27.8563 116.022Z" fill="#CDEEFF"/>
<path opacity="0.5" d="M41.3109 97.8672L39.9521 98.0377L40.2929 98.1191L40.1908 98.1922C40.1908 98.1922 40.5847 98.2576 40.552 98.2613C40.5194 98.2651 40.2985 98.3627 40.3303 98.3504C40.3621 98.3383 40.8716 98.3033 40.8716 98.3033L40.8789 98.3674L42.9549 97.952L41.3109 97.8672Z" fill="#CDEEFF"/>
<path d="M41.2879 69.8135L36.8278 71.0883L36.7646 73.1493L39.1956 81.6608L39.8002 81.4905L44.2586 80.2156L44.8618 80.0428L42.4284 71.5328L41.2879 69.8135ZM39.4603 71.8661C39.1988 71.941 38.9269 71.7874 38.8511 71.527C38.7767 71.2635 38.9266 70.989 39.191 70.9135C39.4513 70.8393 39.7281 70.9902 39.8041 71.2537C39.8768 71.517 39.7247 71.7907 39.4603 71.8661Z" fill="#FFC439"/>
<path d="M39.8263 74.288L39.726 73.9386L40.3313 73.7667L40.434 74.1148C40.9902 74.0748 41.3757 74.4012 41.5567 75.0416L41.6002 75.1884L40.8976 75.3901L40.8406 75.1952C40.7452 74.8569 40.5732 74.7666 40.3388 74.8354C40.103 74.9017 40.0049 75.0687 40.0999 75.4061C40.3774 76.3755 41.8423 76.0085 42.2263 77.3603C42.4075 77.9984 42.2486 78.4902 41.7541 78.7471L41.8533 79.0918L41.246 79.2659L41.1464 78.9204C40.5829 78.9645 40.1978 78.6304 40.0151 77.9899L39.9248 77.6659L40.623 77.4678L40.7283 77.837C40.8261 78.1739 41.0087 78.2547 41.2432 78.1859C41.4802 78.1189 41.5947 77.9554 41.4981 77.6177C41.2209 76.646 39.7564 77.0139 39.3731 75.666C39.1908 75.0317 39.3389 74.5516 39.8263 74.288Z" fill="#DBA12C"/>
<path d="M86.9281 80.9213L82.4326 79.7776L81.3405 81.5267L79.1562 90.1048L79.7644 90.2619L84.2584 91.4047L84.8665 91.5591L87.048 82.981L86.9281 80.9213ZM84.3157 81.775C84.052 81.708 83.8945 81.4384 83.96 81.1752C84.0284 80.9102 84.2962 80.7484 84.5626 80.8163C84.8249 80.8832 84.9881 81.1528 84.9211 81.4188C84.8513 81.6829 84.582 81.8428 84.3157 81.775Z" fill="#FFC439"/>
<path d="M83.4123 84.0521L83.5016 83.6997L84.1111 83.8559L84.0246 84.2083C84.5254 84.4538 84.6941 84.93 84.5282 85.5743L84.4919 85.7232L83.7833 85.5437L83.8321 85.3466C83.92 85.0063 83.8168 84.8416 83.5796 84.783C83.3426 84.7217 83.1738 84.8165 83.0859 85.1559C82.8376 86.1332 84.2883 86.5535 83.9395 87.9149C83.7749 88.5574 83.39 88.9024 82.8334 88.8754L82.7455 89.2232L82.1331 89.0679L82.221 88.7192C81.7119 88.4738 81.5473 87.9911 81.7119 87.3458L81.797 87.0203L82.4999 87.2007L82.4051 87.5727C82.32 87.913 82.4372 88.0748 82.6744 88.1334C82.9129 88.1947 83.0941 88.1111 83.1807 87.7707C83.4303 86.7916 81.9797 86.3722 82.327 85.0145C82.4889 84.3748 82.8585 84.0345 83.4123 84.0521Z" fill="#DBA12C"/>
<path d="M23.9954 17.7462L21.8867 28.6043C21.8867 28.6043 28.7169 32.0598 28.9658 31.8098C29.2147 31.5597 33.5262 21.2922 33.5262 21.2922L23.9954 17.7462Z" fill="#F2CD33"/>
<path d="M27.4912 22.537C27.966 22.7434 28.15 23.168 27.811 23.6744C27.4771 24.1831 26.9462 24.297 26.4713 24.0906C25.9914 23.8821 25.8075 23.4575 26.1414 22.9488C26.4804 22.4424 27.0163 22.3306 27.4912 22.537ZM29.0641 23.2799L29.8889 23.6384L25.8101 26.0497L24.9854 25.6913L29.0641 23.2799ZM26.7363 23.2074C26.5964 23.4199 26.6208 23.5553 26.7707 23.6205C26.9207 23.6857 27.0813 23.6307 27.2212 23.4181C27.3611 23.2055 27.3318 23.068 27.1818 23.0028C27.0318 22.9376 26.8762 22.9948 26.7363 23.2074ZM28.4129 25.2434C28.8878 25.4498 29.0668 25.8722 28.7278 26.3787C28.3939 26.8873 27.8629 27.0013 27.3881 26.7949C26.9132 26.5885 26.7292 26.164 27.0682 25.6575C27.4021 25.1489 27.938 25.037 28.4129 25.2434ZM27.6531 25.9116C27.5131 26.1242 27.5375 26.2595 27.6924 26.3269C27.8374 26.3899 27.998 26.3349 28.138 26.1224C28.2779 25.9098 28.2485 25.7723 28.1036 25.7092C27.9535 25.644 27.793 25.699 27.6531 25.9116Z" fill="#DBA12C"/>
<path d="M97.0273 53.8936L100.183 61.5319C100.183 61.5319 105.865 60.8741 105.917 60.6158C105.969 60.3574 104.43 52.1803 104.43 52.1803L97.0273 53.8936Z" fill="#F2CD33"/>
<path d="M101.179 55.4411C101.56 55.3742 101.849 55.5633 101.847 56.0186C101.848 56.4732 101.564 56.7628 101.183 56.8297C100.798 56.8972 100.508 56.7082 100.507 56.2536C100.51 55.7983 100.798 55.508 101.179 55.4411ZM102.465 55.2567L103.127 55.1406L101.577 58.3235L100.915 58.4396L102.465 55.2567ZM100.984 56.1699C100.984 56.36 101.055 56.4344 101.176 56.4133C101.296 56.3922 101.374 56.2918 101.373 56.1016C101.373 55.9114 101.298 55.8378 101.178 55.8589C101.057 55.88 100.984 55.9797 100.984 56.1699ZM102.868 56.7491C103.249 56.6822 103.534 56.8719 103.532 57.3272C103.533 57.7818 103.249 58.0715 102.868 58.1383C102.487 58.2052 102.197 58.0162 102.2 57.5609C102.199 57.1062 102.487 56.8159 102.868 56.7491ZM102.669 57.4785C102.669 57.6687 102.74 57.7431 102.865 57.7213C102.981 57.7009 103.058 57.6005 103.058 57.4103C103.058 57.2202 102.983 57.1465 102.867 57.1669C102.746 57.188 102.669 57.2884 102.669 57.4785Z" fill="#DBA12C"/>
<path d="M20.2807 83.9732C21.1409 85.4859 20.4745 87.1709 18.7925 87.7367C17.1104 88.3025 15.0495 87.5348 14.1893 86.0221C13.3291 84.5093 13.9955 82.8244 15.6776 82.2586C17.3596 81.6929 19.4205 82.4605 20.2807 83.9732Z" fill="#DBA12C"/>
<path d="M20.5219 83.2321C21.3821 84.7448 20.7158 86.4297 19.0337 86.9956C17.3516 87.5614 15.2907 86.7938 14.4305 85.281C13.5704 83.7683 14.2367 82.0833 15.9188 81.5175C17.6009 80.9517 19.6618 81.7194 20.5219 83.2321Z" fill="#F2CD33"/>
<path d="M17.9562 85.3322C17.727 85.3862 17.4363 85.3768 17.1986 85.2959L17.242 84.9825C17.4777 85.045 17.6913 85.0689 17.8845 85.0039C18.1169 84.9258 18.1727 84.7844 18.074 84.6108C17.8326 84.1863 16.8949 84.5745 16.5512 83.97C16.3812 83.6711 16.468 83.3891 16.7605 83.2294L16.574 82.9013L16.86 82.8052L17.0429 83.1268C17.2863 83.0755 17.5003 83.1223 17.7038 83.2031L17.6154 83.4895C17.4209 83.4247 17.2753 83.4008 17.1038 83.4586C16.9106 83.5235 16.8439 83.6533 16.939 83.8204C17.1584 84.2064 18.087 83.802 18.4563 84.4515C18.63 84.7569 18.5577 85.0495 18.2367 85.2264L18.425 85.5576L18.139 85.6538L17.9562 85.3322Z" fill="#DBA12C"/>
<path d="M106.681 100.035C108.251 100.787 108.665 102.551 107.606 103.975C106.547 105.399 104.416 105.944 102.847 105.192C101.278 104.441 100.864 102.677 101.923 101.252C102.981 99.8281 105.112 99.283 106.681 100.035Z" fill="#DBA12C"/>
<path d="M106.457 99.2886C108.026 100.04 108.44 101.804 107.381 103.229C106.322 104.653 104.192 105.198 102.622 104.446C101.053 103.694 100.639 101.93 101.698 100.506C102.757 99.0819 104.887 98.5368 106.457 99.2886Z" fill="#F2CD33"/>
<path d="M105.547 102.477C105.39 102.652 105.146 102.81 104.904 102.88L104.761 102.598C104.99 102.514 105.18 102.412 105.301 102.249C105.447 102.052 105.413 101.904 105.233 101.818C104.792 101.607 104.243 102.46 103.616 102.16C103.306 102.011 103.217 101.73 103.366 101.432L103.025 101.269L103.205 101.027L103.539 101.187C103.71 101.006 103.912 100.922 104.126 100.873L104.216 101.158C104.02 101.216 103.886 101.279 103.778 101.425C103.657 101.588 103.676 101.733 103.849 101.816C104.25 102.008 104.782 101.146 105.456 101.469C105.773 101.62 105.88 101.902 105.717 102.23L106.061 102.395L105.881 102.637L105.547 102.477Z" fill="#DBA12C"/>
<path opacity="0.5" d="M78.8965 42.7869V43.554C78.8965 44.8129 79.736 45.8334 80.7715 45.8334H94.0584V42.7869H78.8965Z" fill="#2F627C"/>
<path d="M109.023 35.6178H81.2078C80.0545 35.6178 79.0098 36.0759 78.2397 36.8173L73.6338 36.4009L77.0969 38.7064C76.9868 39.0859 76.9247 39.4859 76.9247 39.901C76.9247 42.2665 78.8424 44.1842 81.2078 44.1842H109.023C111.388 44.1842 113.306 42.2665 113.306 39.901C113.306 37.5355 111.388 35.6178 109.023 35.6178Z" fill="#FFC439"/>
<path d="M82.3259 38.2399H84.4553L84.3436 38.8689H83.0109L82.8897 39.5725H83.8868L83.775 40.1783H82.7777L82.5448 41.5109H81.748L82.3259 38.2399Z" fill="#DBA12C"/>
<path d="M85.6724 38.2399L85.2018 40.9052H86.2456L86.1383 41.5109H84.2979L84.8757 38.2399H85.6724Z" fill="#DBA12C"/>
<path d="M88.6606 40.9331H87.4399L87.1417 41.5109H86.3076L88.069 38.2399H88.9915L89.5972 41.5109H88.7541L88.6606 40.9331ZM88.3765 39.116L87.7522 40.3274H88.5675L88.3765 39.116Z" fill="#DBA12C"/>
<path d="M91.2584 41.5435C90.5269 41.5435 89.991 41.1987 90.0703 40.5324H90.8997C90.8811 40.7606 91.0114 40.9145 91.2817 40.9145C91.5147 40.9145 91.6731 40.812 91.6731 40.6115C91.6731 40.0851 90.2752 40.2108 90.2659 39.2416C90.2566 38.58 90.797 38.1931 91.538 38.1931C92.2556 38.1931 92.7402 38.566 92.6796 39.1718H91.8315C91.8596 38.9667 91.7336 38.8221 91.4961 38.8221C91.2724 38.8221 91.1186 38.9386 91.1186 39.1251C91.1186 39.6284 92.5305 39.5772 92.5305 40.5416C92.5305 41.1195 92.0458 41.5435 91.2584 41.5435Z" fill="#DBA12C"/>
<path d="M95.1313 40.1549H93.8918L93.6541 41.5109H92.8574L93.4353 38.2399H94.232L94.0038 39.5259H95.2431L95.4715 38.2399H96.2683L95.6904 41.5109H94.8937L95.1313 40.1549Z" fill="#DBA12C"/>
<path d="M98.6422 41.5435C97.9107 41.5435 97.3748 41.1987 97.4541 40.5324H98.2835C98.2649 40.7606 98.3952 40.9145 98.6655 40.9145C98.8985 40.9145 99.0569 40.812 99.0569 40.6115C99.0569 40.0851 97.659 40.2108 97.6497 39.2416C97.6403 38.58 98.1808 38.1931 98.9218 38.1931C99.6395 38.1931 100.124 38.566 100.063 39.1718H99.2152C99.2434 38.9667 99.1174 38.8221 98.8799 38.8221C98.6562 38.8221 98.5023 38.9386 98.5023 39.1251C98.5023 39.6284 99.9143 39.5772 99.9143 40.5416C99.9143 41.1195 99.4296 41.5435 98.6422 41.5435Z" fill="#DBA12C"/>
<path d="M102.381 40.9331H101.161L100.862 41.5109H100.028L101.79 38.2399H102.712L103.318 41.5109H102.475L102.381 40.9331ZM102.097 39.116L101.473 40.3274H102.288L102.097 39.116Z" fill="#DBA12C"/>
<path d="M105.052 38.2399L104.582 40.9052H105.625L105.518 41.5109H103.678L104.256 38.2399H105.052Z" fill="#DBA12C"/>
<path d="M108.371 38.8689H107.164L107.048 39.5492H108.115L108.007 40.1504H106.941L106.81 40.8818H108.017L107.905 41.5109H105.901L106.479 38.2399H108.483L108.371 38.8689Z" fill="#DBA12C"/>
<path d="M54.7471 100.695L56.4143 106.843L58.8055 105.539L58.1795 99.7562L54.7471 100.695Z" fill="#D7A28E"/>
<path d="M58.8348 103.74C59.1829 103.387 59.8455 108.06 59.5383 108.236C59.2311 108.412 50.9343 109.933 50.1106 109.711C49.287 109.489 48.9977 107.945 50.24 107.482C51.4822 107.018 54.1001 106.129 54.7565 104.976C54.7565 104.976 55.1075 103.519 55.2967 103.358C55.4859 103.197 55.7195 104.227 55.7195 104.227C55.7195 104.227 57.9992 104.588 58.8348 103.74Z" fill="#FFC439"/>
<path d="M51.0456 107.188C51.0353 107.241 51.1445 107.296 51.2629 107.414C51.3822 107.535 51.5026 107.742 51.6029 108.001C51.8003 108.524 51.8841 109.004 51.9833 108.997C52.0728 108.996 52.1503 108.481 51.9251 107.876C51.8115 107.577 51.6139 107.321 51.4061 107.216C51.1959 107.113 51.0493 107.149 51.0456 107.188Z" fill="#11405C"/>
<path d="M59.6897 107.431C59.7245 107.593 59.8403 108.318 59.5552 108.421C59.2702 108.525 49.8713 110.069 49.7893 109.949C49.7072 109.83 49.6119 109.354 49.5666 109.267C49.5212 109.18 59.6897 107.431 59.6897 107.431Z" fill="#11405C"/>
<path d="M54.326 106.472C54.511 106.182 53.9195 105.669 53.78 105.732C53.6405 105.796 54.1436 106.757 54.326 106.472Z" fill="#11405C"/>
<path d="M53.5564 106.861C53.7414 106.572 53.1499 106.058 53.0104 106.122C52.871 106.185 53.374 107.147 53.5564 106.861Z" fill="#11405C"/>
<path d="M52.7439 107.203C52.929 106.914 52.3374 106.4 52.198 106.464C52.0584 106.528 52.5615 107.489 52.7439 107.203Z" fill="#11405C"/>
<path d="M56.2277 106.479C56.2973 106.924 56.7141 107.228 57.1588 107.158C57.6034 107.089 57.9074 106.672 57.8379 106.227C57.7683 105.783 57.3514 105.478 56.9068 105.548C56.4621 105.618 56.1581 106.034 56.2277 106.479Z" fill="#DBA12C"/>
<path d="M68.1596 64.6384L56.7428 80.8053L58.785 101.781L54.5829 102.24C54.5829 102.24 46.8686 81.454 47.3166 77.767C47.7648 74.0801 58.1483 57.767 58.1483 57.767L68.1596 64.6384Z" fill="#2F627C"/>
<path d="M53.8304 79.1986C54.7001 79.9836 57.1236 80.2363 56.2388 80.4263C55.354 80.6163 53.2868 80.6095 53.9719 81.0143C54.6613 81.4198 56.3906 81.8141 56.3179 81.9619C56.2517 82.0931 58.0556 98.3372 57.4463 101.926L58.7851 101.78L56.7433 80.8064L68.1568 64.6401L58.1475 57.7673C58.1475 57.7673 55.6924 61.6202 53.1201 66.0091C54.9575 66.1904 58.7241 66.6181 58.7259 66.8288C58.7282 67.1007 56.7739 71.9685 55.9718 72.963C55.174 73.958 58.2325 75.2704 58.1589 75.808C58.0854 76.3456 56.8917 79.6569 56.2089 79.5241C55.5217 79.3906 52.9601 78.4179 53.8304 79.1986Z" fill="#11405C"/>
<path d="M66.5449 108.563L66.9513 114.92L69.5547 114.119L70.0955 108.328L66.5449 108.563Z" fill="#D7A28E"/>
<path d="M69.9927 112.278C70.3878 111.978 70.3752 116.699 70.046 116.829C69.7169 116.959 61.2878 117.277 60.5044 116.94C59.7209 116.603 59.6553 115.034 60.9511 114.752C62.247 114.471 64.9652 113.965 65.7796 112.918C65.7796 112.918 66.3353 111.527 66.5456 111.395C66.7559 111.262 66.8397 112.315 66.8397 112.315C66.8397 112.315 69.0445 112.998 69.9927 112.278Z" fill="#FFC439"/>
<path d="M61.7902 114.576C61.7723 114.628 61.8725 114.698 61.9728 114.832C62.0737 114.968 62.1632 115.19 62.2254 115.461C62.3459 116.007 62.3602 116.494 62.4595 116.501C62.5482 116.513 62.6985 116.015 62.5622 115.383C62.4926 115.071 62.3336 114.79 62.1429 114.656C61.9496 114.524 61.7993 114.539 61.7902 114.576Z" fill="#11405C"/>
<path d="M70.3109 116.054C70.3222 116.219 70.3332 116.953 70.0363 117.014C69.7393 117.076 60.2163 117.26 60.1521 117.13C60.088 117 60.0617 116.515 60.0294 116.423C59.997 116.33 70.3109 116.054 70.3109 116.054Z" fill="#11405C"/>
<path d="M65.1389 114.337C65.3634 114.077 64.8514 113.484 64.7042 113.527C64.5571 113.57 64.9175 114.593 65.1389 114.337Z" fill="#11405C"/>
<path d="M64.3215 114.612C64.546 114.352 64.0339 113.759 63.8868 113.802C63.7397 113.845 64.1002 114.869 64.3215 114.612Z" fill="#11405C"/>
<path d="M63.4689 114.835C63.6935 114.575 63.1815 113.982 63.0343 114.025C62.8872 114.068 63.2476 115.091 63.4689 114.835Z" fill="#11405C"/>
<path d="M67.0206 114.616C67.0258 115.066 67.3949 115.427 67.8449 115.421C68.2949 115.416 68.6554 115.047 68.6502 114.597C68.6449 114.147 68.2759 113.786 67.8258 113.792C67.3758 113.797 67.0153 114.166 67.0206 114.616Z" fill="#DBA12C"/>
<path d="M72.9798 63.058L70.5172 110.063L65.9593 109.966L61.0493 68.3939L59.9414 61.2739L72.9798 63.058Z" fill="#2F627C"/>
<path d="M59.9424 61.2727L60.6151 65.6106L61.049 68.3953L61.822 74.9464C64.0073 73.9617 68.0451 72.2796 68.6976 72.9867C69.6065 73.9654 70.0336 80.8986 69.1974 81.4064C68.3611 81.9142 67.5482 81.3867 67.1962 82.0702C66.8404 82.749 70.6665 82.2296 69.646 83.0276C68.6211 83.8251 66.5428 83.8036 66.6469 84.3874C66.7461 84.975 68.5593 84.1804 68.9968 85.594C69.3498 86.729 69.2758 103.505 69.2321 110.036L70.5166 110.063L72.979 63.0566L59.9424 61.2727Z" fill="#11405C"/>
<path d="M41.9642 33.5935L39.8472 34.6772L38.083 31.3232L41.2696 30.1355L41.5971 30.8698L43.6418 30.0608L43.8004 30.2992L42.5539 31.9789L41.9642 33.5935Z" fill="#D7A28E"/>
<path d="M52.3573 42.8278L46.4626 45.2807L41.9643 33.5935L39.7656 34.2419C39.7656 34.2419 42.6713 49.9717 44.2223 51.7193C45.7733 53.467 54.2161 48.9574 54.2161 48.9574L52.3573 42.8278Z" fill="#D7A28E"/>
<path d="M62.4325 37.6313L59.9988 37.8594L51.377 42.3112L53.5811 49.7422C53.5811 49.7422 57.4014 47.512 58.6835 46.5887C59.9656 45.6653 62.4325 37.6313 62.4325 37.6313Z" fill="#FFC439"/>
<path d="M70.6833 39.901C70.6833 39.901 63.3981 37.1531 62.2303 37.727C61.0626 38.301 50.8969 53.7258 51.7577 56.9079C52.6186 60.0899 53.9496 61.9936 57.4355 63.2442C60.9213 64.4948 71.0701 62.5718 71.0909 61.9454C71.1116 61.319 69.5072 45.4162 70.6833 39.901Z" fill="#DBA12C"/>
<path d="M70.2565 45.6187C70.2487 46.1005 70.2526 46.59 70.2565 47.0912C69.3551 47.0563 68.4149 46.9863 67.4514 46.8775C65.9052 46.7105 64.4211 46.4657 63.0962 46.1044C61.7714 45.7469 60.6059 45.2769 59.689 44.7641C58.9586 44.3755 58.3719 43.9327 57.9834 43.517C58.1077 43.3188 58.232 43.1206 58.3603 42.9303C58.7837 43.2061 59.3743 43.5092 60.1435 43.7967C61.0488 44.1502 62.1599 44.4844 63.4226 44.7485C64.6852 45.0167 66.1072 45.2069 67.6146 45.3702C68.5276 45.475 69.4134 45.5566 70.2565 45.6187Z" fill="#FFC439"/>
<path d="M70.3764 51.186C70.3298 51.1939 70.2832 51.1978 70.2366 51.2055C68.7136 51.3997 67.0236 51.3997 65.2831 51.2209C63.5425 51.0307 61.9186 50.7276 60.4422 50.3119C58.9737 49.8961 57.6877 49.3251 56.697 48.7074C56.1881 48.3887 55.7568 48.0702 55.3994 47.7671C55.5393 47.5224 55.6791 47.2815 55.819 47.0406C56.2153 47.2737 56.6815 47.5224 57.2098 47.7671C58.185 48.2218 59.3972 48.6412 60.7958 48.9638C62.1906 49.2784 63.7834 49.5349 65.4385 49.7136C67.0935 49.8845 68.6747 49.9273 70.0967 49.8185C70.1744 49.8146 70.2482 49.8068 70.322 49.799C70.3376 50.2615 70.357 50.7238 70.3764 51.186Z" fill="#FFC439"/>
<path d="M70.6097 55.3548C70.4115 55.3937 70.2056 55.4286 69.9997 55.4636C68.298 55.7433 66.3788 55.8327 64.3896 55.6384C62.4044 55.4442 60.5434 54.9974 58.9233 54.4224C57.2993 53.8357 55.9046 53.1636 54.7935 52.4488C54.269 52.1146 53.8222 51.7611 53.4492 51.4152C53.5736 51.1628 53.7018 50.9025 53.8377 50.6422C54.2534 50.9336 54.7468 51.2328 55.3296 51.5241C57.5247 52.5964 60.8037 53.7735 64.5373 54.131C66.6857 54.3485 68.7254 54.2475 70.5203 53.9911C70.5514 54.4573 70.5786 54.9118 70.6097 55.3548Z" fill="#FFC439"/>
<path d="M70.9205 59.6479C70.1357 59.8499 69.2733 60.0169 68.3525 60.1296C66.6974 60.3356 64.8637 60.3588 62.9639 60.1995C61.0679 60.0403 59.2459 59.6984 57.653 59.1195C56.0601 58.5522 54.7275 57.7364 53.7679 56.8817C52.9365 56.1513 52.3692 55.4093 52.0273 54.811C52.0973 54.5856 52.1788 54.3486 52.2721 54.1C52.7228 54.6011 53.4066 55.3237 54.4284 56.0425C55.3841 56.7147 56.6195 57.3479 58.0998 57.7986C59.5761 58.257 61.2739 58.5367 63.096 58.6883C66.002 58.9524 68.6944 58.801 70.8273 58.4125C70.8584 58.8592 70.8894 59.275 70.9205 59.6479Z" fill="#FFC439"/>
<path d="M70.4161 41.7609C70.3812 42.1766 70.3501 42.6194 70.3229 43.0818C70.0898 43.0818 69.8489 43.0741 69.6003 43.0663C68.5707 43.0197 67.4362 42.8992 66.2591 42.6661C63.9008 42.2076 61.8611 41.3024 60.5441 40.4283C60.4276 40.3506 60.3149 40.2729 60.21 40.1952C60.4197 39.8999 60.6179 39.6241 60.8005 39.3755C60.8821 39.4104 60.9676 39.4492 61.0569 39.4881C62.4167 40.0747 64.3359 40.7507 66.5543 41.1821C67.9297 41.4539 69.2545 41.6326 70.4161 41.7609Z" fill="#FFC439"/>
<path d="M67.9666 64.4231L58.8967 70.75L55.7422 70.2551L62.5174 62.4486L67.9666 64.4231Z" fill="#CDEEFF"/>
<path d="M55.7424 70.2551L54.3262 68.5774L61.4099 61.6589L62.5176 62.4486L55.7424 70.2551Z" fill="#549BEC"/>
<path d="M67.3026 60.3429C66.9141 62.8185 68.6061 65.1402 71.0818 65.5287C73.5573 65.9171 75.8792 64.225 76.2674 61.7496C76.6559 59.2738 74.9638 56.9522 72.4883 56.5638C70.0127 56.1754 67.691 57.8674 67.3026 60.3429Z" fill="#549BEC"/>
<path d="M45.165 63.1336C56.935 61.3994 63.5087 64.3309 67.2453 65.4712C69.7919 66.2499 73.1362 63.476 74.4068 60.3923C75.339 58.1313 75.1576 55.706 72.7347 54.3902C64.9718 50.1744 56.5903 38.7885 56.5903 38.7885L55.5153 41.0767L45.165 63.1336Z" fill="#91C4F6"/>
<path d="M37.7921 61.6613C44.3336 63.5846 51.6584 58.27 54.1537 49.7921C56.6491 41.3142 53.3703 32.8848 46.829 30.9567C40.2875 29.0333 32.9627 34.348 30.4674 42.8259C27.9721 51.3038 31.2554 59.7382 37.7921 61.6613Z" fill="#11405C"/>
<path d="M43.4225 39.2224L55.3418 43.3661C55.3418 43.3661 56.1035 56.185 47.6763 59.491L39.6152 52.9382L43.4225 39.2224Z" fill="#91C4F6"/>
<path d="M36.1908 45.7817C35.6677 49.1158 37.0675 52.1898 39.6162 52.9373C39.7886 52.988 39.965 53.0286 40.1385 53.0558C42.8502 53.4813 45.7515 51.1658 46.7927 47.6282C47.901 43.8631 46.4838 40.1172 43.6357 39.2784C40.7854 38.4365 37.5649 40.8221 36.4593 44.5877C36.3416 44.9874 36.2528 45.3865 36.1908 45.7817ZM37.9433 45.0244C38.3523 43.6325 39.0962 42.4738 39.9785 41.6974C40.8605 40.9236 41.8858 40.5356 42.8579 40.6881C42.97 40.7056 43.0837 40.7313 43.1961 40.7646C45.2276 41.3604 46.1732 44.2455 45.3062 47.191C44.4388 50.1366 42.0818 52.0486 40.0532 51.4507C38.0243 50.8554 37.0781 47.9729 37.9433 45.0244Z" fill="#CDEEFF"/>
<path d="M40.0537 51.4511C40.199 51.495 40.3571 51.5271 40.5042 51.5341C42.4098 51.7607 44.5007 49.9201 45.3072 47.1947C46.1734 44.251 45.2312 41.3556 43.1956 40.7664C43.0864 40.7366 42.9651 40.7062 42.8553 40.6887C41.8801 40.5313 40.866 40.9249 39.9815 41.6933C39.0963 42.4738 38.3529 43.6299 37.942 45.0229C37.0753 47.9789 38.0187 50.8499 40.0537 51.4511Z" fill="#2F627C"/>
<path d="M38.1051 63.2378C45.6196 65.4474 53.9158 59.7529 56.6292 50.5239C59.3475 41.2904 55.4581 32.0128 47.9437 29.8031C40.4294 27.5889 32.1332 33.2832 29.4148 42.5167C26.6967 51.7454 30.5908 61.0235 38.1051 63.2378ZM30.4681 42.8259C32.9634 34.348 40.2883 29.0333 46.8297 30.9567C53.3711 32.8848 56.6498 41.3142 54.1545 49.7922C51.6592 58.27 44.3343 63.5846 37.7928 61.6613C31.2561 59.7382 27.9728 51.3038 30.4681 42.8259Z" fill="white"/>
<path d="M65.3508 37.6946C65.4762 37.6424 68.4609 37.7848 68.6031 37.851C68.7452 37.9172 68.8077 38.8955 68.8472 39.206C68.8868 39.5163 67.9058 40.4528 67.4914 40.5394C67.077 40.6258 66.3294 40.0476 66.1247 39.793C66.1247 39.793 65.4378 40.1614 64.8361 40.0123C64.2344 39.8632 64.7719 37.9349 65.3508 37.6946Z" fill="#FFC439"/>
<path d="M70.1768 34.6039C70.6681 34.5823 71.0489 34.1668 71.0276 33.6755C71.0186 33.4666 70.9361 33.2676 70.7951 33.1133C71.1568 33.0633 71.4807 32.8425 71.543 32.4496C71.6052 32.0564 71.344 31.7024 70.9625 31.5832C70.9625 31.5832 70.9625 31.5832 70.9624 31.5882C71.2941 31.7332 71.5407 32.0618 71.4771 32.4368C71.4218 32.7567 71.1954 32.9317 70.9211 33.0141C71.1469 32.86 71.2985 32.6191 71.3397 32.3488C71.375 32.0439 71.2243 31.7474 70.9571 31.5962C71.1263 31.2992 71.2023 30.9166 71.0539 30.5945C70.9321 30.3171 70.6574 30.1382 70.3546 30.139C70.5135 29.6959 70.2832 29.208 69.8401 29.049C69.6328 28.9746 69.4047 28.9833 69.2037 29.0735C69.2962 28.6892 69.0597 28.3027 68.6755 28.2101C68.575 28.1859 68.4705 28.1838 68.3693 28.2037C68.3783 28.016 68.2774 27.8402 68.1106 27.7534C67.9152 27.6646 67.6927 27.6568 67.4916 27.7316C67.3975 27.5602 67.2224 27.4487 67.0271 27.4356C66.7708 27.4268 66.5461 27.6053 66.4964 27.857C66.1719 27.7422 65.8035 27.6636 65.4747 27.7998C65.2046 27.9115 64.9841 28.169 64.9887 28.4683C64.4301 28.3499 63.8812 28.7068 63.7628 29.2654C63.754 29.3064 63.7479 29.3478 63.7442 29.3896C63.4857 29.4136 63.2596 29.5737 63.1512 29.8094C63.0707 29.9653 63.03 30.1389 63.033 30.3145C62.8018 30.3534 62.6216 30.5356 62.5846 30.767C62.5581 30.9811 62.6289 31.1959 62.7775 31.3523C62.7857 31.4139 62.78 31.4765 62.7609 31.5356C62.6624 31.8368 62.7209 32.1673 62.9172 32.4162C62.7156 32.7094 62.7897 33.1106 63.0828 33.3123C63.1058 33.3281 63.1297 33.3424 63.1544 33.355C63.0413 33.7334 63.2516 34.1327 63.6276 34.2537C63.5588 34.5527 63.6242 34.867 63.8066 35.1139C63.9484 35.3021 64.1886 35.4509 64.4222 35.3855C64.3984 35.5696 64.5744 35.7207 64.7513 35.7533C64.8176 35.7639 64.8848 35.7673 64.9517 35.7635C65.038 35.7471 65.1263 35.7455 65.213 35.759C65.2947 35.7852 65.3448 35.8698 65.4096 35.9257C65.4527 35.9652 65.5001 36 65.5505 36.0296C65.9423 36.2531 66.4369 36.1737 66.7392 35.8389C66.9708 36.0517 67.3111 36.0161 67.5843 35.8956C67.6715 35.8538 67.7551 35.8044 67.8341 35.7483C67.9019 35.6931 67.9851 35.6601 68.0724 35.654C68.1286 35.6554 68.1856 35.6658 68.2428 35.6653C68.4366 35.6642 68.5802 35.5443 68.7071 35.412C69.348 35.9593 70.1894 35.3722 70.1768 34.6039ZM62.64 30.8797C62.6423 30.636 62.7976 30.4199 63.0282 30.3404C63.0278 30.3584 63.0275 30.3705 63.0275 30.3705C63.0275 30.3705 62.963 30.4171 62.9342 30.4424C62.8825 30.4908 62.8382 30.5465 62.8025 30.6078C62.7267 30.7354 62.6904 30.8826 62.6985 31.0309C62.704 31.0962 62.7172 31.1605 62.7378 31.2228C62.7404 31.2304 62.7424 31.2381 62.7442 31.246C62.6774 31.1356 62.6428 31.0088 62.6441 30.8798L62.64 30.8797ZM67.1152 27.6055C66.8864 27.565 66.6566 27.6719 66.5401 27.8731L66.522 27.8726C66.607 27.6508 66.7459 27.4766 67.02 27.4836C67.1919 27.4951 67.3447 27.5973 67.4208 27.7518C67.3361 27.6755 67.2316 27.6249 67.1193 27.6056L67.1152 27.6055ZM68.7249 35.3902L68.731 35.3844C69.2214 35.6116 69.8034 35.4097 70.048 34.9279C69.8317 35.4595 69.3313 35.7893 68.733 35.3875L68.7249 35.3902Z" fill="#11405C"/>
<path d="M65.6848 38.7699C66.3713 39.0776 68.3748 38.2841 68.3327 37.6852C68.2936 37.1354 68.5169 35.6683 68.775 34.5033L65.7752 35.6878C65.727 35.9538 64.9186 38.4275 65.6848 38.7699Z" fill="#D7A28E"/>
<path d="M63.1585 34.8418C62.8301 36.0694 64.3365 37.1501 64.9991 37.3043C65.1791 37.346 68.1424 36.4523 68.4252 34.9375C68.6053 33.9721 69.1512 31.8055 67.4687 31.1274C67.0284 30.9499 63.9148 30.1531 63.8933 31.9017C63.8761 33.2818 63.5417 33.4106 63.1585 34.8418Z" fill="#D7A28E"/>
<path d="M68.0526 32.3466C68.0526 32.3466 67.5949 35.1712 67.3944 35.5144C67.1939 35.8577 66.8235 35.8995 66.5204 35.3152C66.0348 34.3786 63.6361 34.2641 63.1855 34.5768C62.7349 34.8896 63.0832 36.7869 64.6795 37.2586C66.2757 37.7303 68.3318 36.0455 68.3244 35.8506C68.3169 35.6556 68.2223 33.158 68.6278 32.5213C69.0333 31.8847 68.0526 32.3466 68.0526 32.3466Z" fill="#11405C"/>
<path d="M68.2735 34.8059C68.9697 35.3483 69.7123 33.6842 69.0638 33.3257C68.8766 33.2221 68.4925 33.1498 68.3553 33.5303C68.2074 33.941 68.121 34.6871 68.2735 34.8059Z" fill="#D7A28E"/>
<path d="M68.8525 33.6255C68.6805 33.7343 68.3482 34.1262 68.5137 34.4602C68.5137 34.4602 68.531 34.2468 68.656 34.1271L68.9523 34.0218L68.6695 33.9763L68.8525 33.6255Z" fill="#11405C"/>
<path d="M65.2362 33.6567C65.3638 33.7205 64.9028 34.1698 65.1572 34.2428C65.4116 34.3158 64.9799 34.3774 64.9468 34.1666C64.9139 33.9561 65.123 33.6 65.2362 33.6567Z" fill="#11405C"/>
<path d="M66.1443 33.3593C66.0726 33.5007 66.1218 33.6696 66.2541 33.7365C66.3863 33.8034 66.5514 33.7431 66.623 33.6016C66.6946 33.4602 66.6455 33.2911 66.5132 33.2243C66.381 33.1574 66.2158 33.2178 66.1443 33.3593Z" fill="#11405C"/>
<path d="M66.2103 33.3171C66.1896 33.3653 66.2054 33.4183 66.2453 33.4355C66.2854 33.4525 66.3347 33.4274 66.3553 33.3792C66.3759 33.331 66.3601 33.278 66.3201 33.2608C66.2801 33.2438 66.2308 33.2689 66.2103 33.3171Z" fill="white"/>
<path d="M64.2959 32.969C64.2836 33.1271 64.3934 33.2647 64.5412 33.276C64.689 33.2875 64.8186 33.1687 64.8309 33.0106C64.8432 32.8525 64.7334 32.7151 64.5857 32.7036C64.4379 32.6922 64.3082 32.811 64.2959 32.969Z" fill="#11405C"/>
<path d="M64.3399 32.9052C64.3392 32.9575 64.3739 33.0005 64.4174 33.0011C64.4609 33.0017 64.4969 32.9596 64.4976 32.9073C64.4983 32.8548 64.4635 32.8119 64.42 32.8113C64.3764 32.8106 64.3404 32.8526 64.3399 32.9052Z" fill="white"/>
<path d="M64.1998 32.322C64.1434 32.3129 64.1411 32.1683 64.1899 32.1512C64.1899 32.1512 64.8315 31.7954 65.1299 32.151C65.1299 32.151 65.1558 32.2908 65.1475 32.3296C65.1343 32.3904 65.0453 32.489 64.9706 32.4312C64.6522 32.1846 64.1998 32.322 64.1998 32.322Z" fill="#11405C"/>
<path d="M67.0927 33.0715C67.1466 33.0904 67.2174 32.9643 67.1826 32.9261C67.1826 32.9261 66.7876 32.3078 66.356 32.4785C66.356 32.4785 66.2667 32.5891 66.2555 32.6272C66.2382 32.687 66.2696 32.8161 66.3628 32.8007C66.7601 32.7355 67.0927 33.0715 67.0927 33.0715Z" fill="#11405C"/>
<path d="M65.5099 35.3876C64.6666 35.4613 64.6029 35.1437 64.2534 35.1188C64.0623 35.1052 63.9492 35.2605 64.0007 35.4185C64.0007 35.4185 64.2477 36.1617 65.2292 35.9875C65.8479 35.8779 65.6959 35.3714 65.5099 35.3876Z" fill="white"/>
<path d="M68.4577 32.4758C67.7487 32.5668 67.7782 32.4211 67.4352 31.7167C66.6748 31.9081 66.0263 31.7111 65.9454 31.1677C65.5516 31.6313 65.1595 31.8845 64.5067 31.3704C64.2435 31.7485 63.7205 31.3816 63.7316 31.1415C63.7567 30.6008 64.9971 29.4031 67.6945 30.2611C70.0842 31.0211 68.6224 33.855 68.2752 33.8123C67.9281 33.7696 68.5157 32.8082 68.4577 32.4758Z" fill="#11405C"/>
<path d="M74.9425 49.9521C74.9425 49.9521 76.583 55.6091 76.4897 55.818C76.3962 56.0269 73.835 56.9192 73.3343 56.8525C72.8335 56.7858 71.8503 56.696 71.4376 56.4627C71.0249 56.2295 70.4004 51.6916 70.4004 51.6916L74.9425 49.9521Z" fill="#D7A28E"/>
<path d="M70.6835 39.901L72.608 41.4381C72.608 41.4381 76.5298 50.328 76.2267 50.7145C75.9236 51.101 70.091 52.8697 70.091 52.8697C70.091 52.8697 69.5839 46.06 69.583 45.8565C69.5821 45.653 70.4678 40.2101 70.6835 39.901Z" fill="#FFC439"/>
<path d="M72.4321 54.4617C72.4321 54.4617 61.8589 59.5315 61.802 59.8275C61.7451 60.1235 62.8304 62.4595 62.8304 62.4595C62.8304 62.4595 73.2863 60.1939 74.8036 58.8155C76.3209 57.4371 76.904 56.3836 76.2434 55.0714C75.5828 53.7593 72.4321 54.4617 72.4321 54.4617Z" fill="#D7A28E"/>
<path d="M73.7526 54.8506C73.6282 54.7414 71.1236 54.9378 71.0979 55.1393C71.0722 55.3407 73.2826 56.3272 73.3292 56.18C73.3758 56.0329 72.315 55.3471 72.315 55.3471C72.315 55.3471 74.2288 55.2682 73.7526 54.8506Z" fill="#C18C7C"/>
<path d="M59.1572 58.9242C58.8573 59.2749 59.2146 59.5796 59.2146 59.5796L60.3071 60.5117L57.0681 62.1586C57.0681 62.1586 57.0774 62.5552 57.3546 62.5791C57.4815 62.59 59.1515 61.9455 59.1515 61.9455L56.9893 63.0468C56.9893 63.0468 57.059 63.4703 57.305 63.4136C57.4226 63.3865 59.5573 62.7033 59.5573 62.7033L57.5265 63.6895C57.5265 63.6895 57.8152 64.0569 57.9064 64.0363C58.3762 63.93 60.0034 63.3943 60.0034 63.3943L58.4931 64.056C58.4931 64.056 58.6068 64.4472 58.9273 64.3162C59.3109 64.1593 61.2452 63.6104 61.7912 63.2547C62.5064 62.7889 64.9613 61.9868 64.9613 61.9868C64.9613 61.9868 63.8376 59.3985 63.7602 59.1764C63.4479 59.3117 62.3267 59.7798 62.3267 59.7798C61.2935 59.6667 60.5863 59.1857 59.1572 58.9242Z" fill="#D7A28E"/>
<path d="M59.4472 61.78C59.4638 61.8144 59.2619 61.9461 58.9962 62.0741C58.7307 62.2022 58.5019 62.2781 58.4853 62.2438C58.4687 62.2094 58.6707 62.0777 58.9363 61.9496C59.2019 61.8216 59.4307 61.7456 59.4472 61.78Z" fill="#C18C7C"/>
<path d="M59.8993 62.5308C59.9143 62.5659 59.7201 62.6826 59.4655 62.7914C59.2109 62.9002 58.9924 62.96 58.9774 62.9249C58.9624 62.8897 59.1566 62.7731 59.4112 62.6643C59.6658 62.5555 59.8843 62.4957 59.8993 62.5308Z" fill="#C18C7C"/>
<path d="M60.3799 63.197C60.3959 63.2316 60.2395 63.338 60.0306 63.4346C59.8216 63.5311 59.6392 63.5813 59.6232 63.5467C59.6072 63.512 59.7636 63.4057 59.9726 63.3091C60.1815 63.2126 60.3639 63.1624 60.3799 63.197Z" fill="#C18C7C"/>
<path d="M60.2047 62.9069C60.246 62.9045 60.2756 63.0233 60.348 63.1352C60.418 63.2496 60.51 63.3209 60.4968 63.3562C60.4872 63.3944 60.3285 63.364 60.2312 63.209C60.1349 63.0536 60.1705 62.9048 60.2047 62.9069Z" fill="#C18C7C"/>
<path d="M59.7584 62.2764C59.7997 62.274 59.8293 62.3929 59.9018 62.5047C59.9717 62.6191 60.0637 62.6904 60.0505 62.7257C60.0409 62.7639 59.8822 62.7335 59.7849 62.5785C59.6886 62.4232 59.7243 62.2743 59.7584 62.2764Z" fill="#C18C7C"/>
<path d="M59.3258 61.5712C59.3671 61.5687 59.3967 61.6876 59.4691 61.7995C59.5391 61.9139 59.6311 61.9852 59.618 62.0205C59.6084 62.0587 59.4496 62.0283 59.3523 61.8733C59.2559 61.7179 59.2916 61.5691 59.3258 61.5712Z" fill="#C18C7C"/>
<path d="M40.7807 29.4153C40.7807 29.4153 40.8612 28.7107 41.7135 29.1362C42.5659 29.5619 42.3974 30.1772 42.0913 30.2158C41.7852 30.2544 41.5916 30.302 41.2631 29.8931C41.2631 29.8931 41.365 30.3378 41.0282 30.4322C40.6914 30.5266 40.4106 30.3212 40.4106 30.3212C40.4106 30.3212 40.5827 30.6974 40.4518 30.819C40.321 30.9406 39.8705 30.9566 39.5554 30.6288C39.5554 30.6288 39.6064 31.0905 39.0612 31.0084C38.6967 30.9534 38.5922 30.8443 38.5922 30.8443L38.1051 31.1183C38.1051 31.1183 37.9743 30.1647 38.9946 30.0767C38.9946 30.0767 39.1803 29.4405 39.8611 29.8164C39.8611 29.8164 40.0317 28.9225 40.7807 29.4153Z" fill="#D7A28E"/>
<path d="M40.7823 29.4239C40.7681 29.4506 40.8982 29.5381 41.0291 29.6726C41.1626 29.8054 41.2446 29.9355 41.2692 29.9258C41.2971 29.9165 41.2473 29.7482 41.1006 29.6021C40.9556 29.454 40.7925 29.4008 40.7823 29.4239Z" fill="#C18C7C"/>
<path d="M39.8532 29.7968C39.8473 29.8103 39.8798 29.8381 39.9291 29.884C39.9787 29.9299 40.0456 29.9953 40.1193 30.0692C40.2667 30.2169 40.3884 30.3386 40.4106 30.3212C40.4323 30.3046 40.3435 30.1518 40.1903 29.9981C40.1139 29.9214 40.0348 29.8602 39.9703 29.826C39.9055 29.7915 39.8583 29.7847 39.8532 29.7968Z" fill="#C18C7C"/>
<path d="M38.9935 30.0766C38.9891 30.0913 39.0277 30.1149 39.082 30.1589C39.1364 30.2037 39.2065 30.2716 39.2788 30.3539C39.424 30.5181 39.5309 30.6657 39.5555 30.6514C39.5792 30.6387 39.5084 30.4623 39.3539 30.2872C39.2772 30.1997 39.1913 30.1327 39.1201 30.0989C39.0478 30.0653 38.9966 30.0647 38.9935 30.0766Z" fill="#C18C7C"/>
</svg>
